<svg width="164" height="42" viewBox="0 0 164 42" fill="none" xmlns="http://www.w3.org/2000/svg">
<path d="M27.064 21.448C27.992 21.704 28.752 22.096 29.344 22.624C29.952 23.136 30.4 23.728 30.688 24.4C30.992 25.072 31.144 25.76 31.144 26.464C31.144 27.312 30.936 28.12 30.52 28.888C30.12 29.656 29.528 30.288 28.744 30.784C27.976 31.264 27.024 31.504 25.888 31.504C24.288 31.504 23.056 31.032 22.192 30.088C22.032 29.912 21.952 29.696 21.952 29.44C21.952 29.12 22.08 28.84 22.336 28.6C22.512 28.44 22.728 28.36 22.984 28.36C23.288 28.36 23.544 28.456 23.752 28.648C24.072 28.904 24.416 29.096 24.784 29.224C25.168 29.352 25.544 29.416 25.912 29.416C26.472 29.416 26.992 29.304 27.472 29.08C27.952 28.856 28.344 28.544 28.648 28.144C28.952 27.728 29.104 27.256 29.104 26.728C29.104 26.648 29.096 26.576 29.08 26.512C29.08 26.432 29.072 26.36 29.056 26.296C28.88 25.256 28.408 24.472 27.64 23.944C26.872 23.416 25.92 23.152 24.784 23.152C24.112 23.152 23.392 23.248 22.624 23.44C21.856 23.632 21.072 23.936 20.272 24.352C20.16 24.4 20.104 24.48 20.104 24.592C20.12 25.376 20.112 26.168 20.08 26.968C20.048 27.752 19.992 28.52 19.912 29.272C19.72 30.744 19.024 31.48 17.824 31.48C17.296 31.48 16.72 31.352 16.096 31.096C15.328 30.776 14.664 30.408 14.104 29.992C13.56 29.56 13.288 29.032 13.288 28.408C13.288 28.008 13.432 27.568 13.72 27.088C14.008 26.592 14.488 26.04 15.16 25.432C16.056 24.632 16.96 23.944 17.872 23.368C17.968 23.288 18.016 23.2 18.016 23.104C18 22.464 17.976 21.848 17.944 21.256C17.912 20.648 17.872 20.056 17.824 19.48C17.808 19.352 17.728 19.296 17.584 19.312C16.288 19.536 14.96 19.68 13.6 19.744C13.296 19.76 13.04 19.664 12.832 19.456C12.64 19.248 12.544 18.992 12.544 18.688C12.544 18.416 12.64 18.184 12.832 17.992C13.04 17.8 13.272 17.696 13.528 17.68C14.184 17.648 14.832 17.6 15.472 17.536C16.128 17.456 16.752 17.36 17.344 17.248C17.504 17.216 17.568 17.128 17.536 16.984C17.44 16.328 17.336 15.712 17.224 15.136C17.112 14.56 16.992 14.032 16.864 13.552C16.848 13.504 16.84 13.456 16.84 13.408C16.84 13.36 16.84 13.32 16.84 13.288C16.84 13.016 16.928 12.784 17.104 12.592C17.28 12.384 17.52 12.28 17.824 12.28C18.064 12.28 18.28 12.352 18.472 12.496C18.68 12.624 18.816 12.816 18.88 13.072C19.008 13.536 19.128 14.064 19.24 14.656C19.352 15.232 19.456 15.848 19.552 16.504C19.584 16.664 19.664 16.72 19.792 16.672C20.16 16.576 20.512 16.472 20.848 16.36C21.184 16.248 21.504 16.128 21.808 16C21.952 15.952 22.088 15.928 22.216 15.928C22.424 15.928 22.616 15.984 22.792 16.096C22.968 16.192 23.096 16.336 23.176 16.528C23.24 16.656 23.272 16.8 23.272 16.96C23.272 17.392 23.064 17.696 22.648 17.872C22.232 18.032 21.8 18.192 21.352 18.352C20.92 18.496 20.472 18.632 20.008 18.76C19.864 18.792 19.808 18.872 19.84 19C19.872 19.48 19.904 19.968 19.936 20.464C19.984 20.944 20.016 21.44 20.032 21.952C20.064 22.128 20.168 22.176 20.344 22.096C21.864 21.472 23.344 21.16 24.784 21.16C25.584 21.16 26.344 21.256 27.064 21.448ZM31.696 18.904C31.984 19.096 32.128 19.376 32.128 19.744C32.128 19.984 32.056 20.2 31.912 20.392C31.72 20.664 31.456 20.8 31.12 20.8C30.896 20.8 30.688 20.728 30.496 20.584C29.264 19.704 27.776 19.192 26.032 19.048C25.776 19.016 25.552 18.904 25.36 18.712C25.168 18.504 25.072 18.272 25.072 18.016C25.072 17.712 25.184 17.456 25.408 17.248C25.632 17.04 25.896 16.952 26.2 16.984C27.24 17.048 28.232 17.248 29.176 17.584C30.12 17.92 30.96 18.36 31.696 18.904ZM15.904 28.744C16.416 29 16.8 29.2 17.056 29.344C17.328 29.472 17.52 29.536 17.632 29.536C17.76 29.536 17.832 29.472 17.848 29.344C17.864 29.2 17.88 29 17.896 28.744C17.928 28.472 17.952 28.08 17.968 27.568C17.984 27.056 18 26.552 18.016 26.056C18.016 25.848 17.928 25.8 17.752 25.912C17.4 26.168 17.072 26.432 16.768 26.704C16.464 26.96 16.192 27.216 15.952 27.472C15.568 27.856 15.376 28.128 15.376 28.288C15.376 28.384 15.424 28.464 15.52 28.528C15.616 28.592 15.744 28.664 15.904 28.744ZM45.16 13.6V18.928C45.16 19.36 45.008 19.736 44.704 20.056C44.4 20.36 44.024 20.512 43.576 20.512H38.728C38.632 20.512 38.584 20.56 38.584 20.656V31.504C38.584 31.776 38.48 32.008 38.272 32.2C38.08 32.408 37.848 32.512 37.576 32.512C37.288 32.512 37.04 32.408 36.832 32.2C36.64 32.008 36.544 31.776 36.544 31.504V13.6C36.544 13.168 36.696 12.8 37 12.496C37.304 12.176 37.68 12.016 38.128 12.016H43.576C44.008 12.016 44.376 12.176 44.68 12.496C45 12.8 45.16 13.168 45.16 13.6ZM48.424 12.016H53.872C54.304 12.016 54.672 12.176 54.976 12.496C55.296 12.8 55.456 13.168 55.456 13.6V29.848C55.456 31.816 54.168 32.728 51.592 32.584C51.304 32.568 51.064 32.448 50.872 32.224C50.68 32.016 50.584 31.768 50.584 31.48C50.6 31.192 50.712 30.952 50.92 30.76C51.128 30.568 51.376 30.48 51.664 30.496C52.192 30.512 52.576 30.512 52.816 30.496C53.072 30.464 53.232 30.4 53.296 30.304C53.376 30.192 53.416 30.04 53.416 29.848V20.656C53.416 20.56 53.368 20.512 53.272 20.512H48.424C47.992 20.512 47.616 20.36 47.296 20.056C46.992 19.752 46.84 19.376 46.84 18.928V13.6C46.84 13.168 46.992 12.8 47.296 12.496C47.6 12.176 47.976 12.016 48.424 12.016ZM43.048 15.28C43.144 15.28 43.192 15.232 43.192 15.136V14.152C43.192 14.056 43.144 14.008 43.048 14.008H38.728C38.632 14.008 38.584 14.056 38.584 14.152V15.136C38.584 15.232 38.632 15.28 38.728 15.28H43.048ZM53.272 15.28C53.368 15.28 53.416 15.232 53.416 15.136V14.152C53.416 14.056 53.368 14.008 53.272 14.008H48.952C48.856 14.008 48.808 14.056 48.808 14.152V15.136C48.808 15.232 48.856 15.28 48.952 15.28H53.272ZM38.728 17.248C38.632 17.248 38.584 17.296 38.584 17.392V18.4C38.584 18.496 38.632 18.544 38.728 18.544H43.048C43.144 18.544 43.192 18.496 43.192 18.4V17.392C43.192 17.296 43.144 17.248 43.048 17.248H38.728ZM48.952 17.248C48.856 17.248 48.808 17.296 48.808 17.392V18.4C48.808 18.496 48.856 18.544 48.952 18.544H53.272C53.368 18.544 53.416 18.496 53.416 18.4V17.392C53.416 17.296 53.368 17.248 53.272 17.248H48.952ZM43.456 22.144H48.544C48.976 22.144 49.344 22.296 49.648 22.6C49.968 22.904 50.128 23.28 50.128 23.728V28.144C50.128 28.592 49.968 28.968 49.648 29.272C49.344 29.576 48.976 29.728 48.544 29.728H43.456C43.024 29.728 42.648 29.576 42.328 29.272C42.024 28.968 41.872 28.592 41.872 28.144V23.728C41.872 23.28 42.024 22.904 42.328 22.6C42.648 22.296 43.024 22.144 43.456 22.144ZM43.888 27.592C43.888 27.688 43.936 27.736 44.032 27.736H47.968C48.064 27.736 48.112 27.688 48.112 27.592V24.28C48.112 24.184 48.064 24.136 47.968 24.136H44.032C43.936 24.136 43.888 24.184 43.888 24.28V27.592ZM66.568 29.776C65.896 29.776 65.232 29.552 64.576 29.104C63.936 28.656 63.352 28.032 62.824 27.232C62.312 26.432 61.896 25.504 61.576 24.448C61.272 23.392 61.12 22.264 61.12 21.064C61.12 20.248 61.2 19.408 61.36 18.544C61.536 17.68 61.808 16.808 62.176 15.928C62.352 15.512 62.672 15.304 63.136 15.304C63.296 15.304 63.44 15.336 63.568 15.4C63.776 15.496 63.928 15.632 64.024 15.808C64.136 15.984 64.192 16.168 64.192 16.36C64.192 16.504 64.168 16.64 64.12 16.768C63.768 17.552 63.512 18.32 63.352 19.072C63.208 19.808 63.136 20.528 63.136 21.232C63.136 22.16 63.24 23.016 63.448 23.8C63.672 24.584 63.96 25.264 64.312 25.84C64.664 26.416 65.04 26.864 65.44 27.184C65.84 27.504 66.216 27.664 66.568 27.664C66.856 27.664 67.112 27.544 67.336 27.304C67.56 27.064 67.728 26.696 67.84 26.2C67.904 25.912 68.04 25.68 68.248 25.504C68.472 25.328 68.72 25.24 68.992 25.24C69.28 25.24 69.52 25.344 69.712 25.552C69.904 25.76 70 25.992 70 26.248C70 26.344 69.992 26.416 69.976 26.464C69.48 28.672 68.344 29.776 66.568 29.776ZM77.968 25.264C77.616 25.264 77.328 25.136 77.104 24.88C76.896 24.624 76.792 24.312 76.792 23.944C76.792 22.76 76.48 21.76 75.856 20.944C75.248 20.128 74.384 19.568 73.264 19.264C72.976 19.184 72.744 19.016 72.568 18.76C72.408 18.488 72.36 18.216 72.424 17.944C72.504 17.672 72.648 17.448 72.856 17.272C73.064 17.096 73.296 17.008 73.552 17.008C73.6 17.008 73.688 17.024 73.816 17.056C74.76 17.312 75.648 17.784 76.48 18.472C77.312 19.144 77.968 19.976 78.448 20.968C78.944 21.96 79.144 23.064 79.048 24.28C79.032 24.552 78.92 24.784 78.712 24.976C78.504 25.168 78.256 25.264 77.968 25.264ZM84.76 21.52C84.648 21.568 84.528 21.592 84.4 21.592C84.144 21.592 83.92 21.504 83.728 21.328C83.536 21.136 83.44 20.888 83.44 20.584C83.44 20.36 83.504 20.144 83.632 19.936C83.776 19.728 83.96 19.568 84.184 19.456C84.952 19.088 85.736 18.632 86.536 18.088C87.352 17.544 88.144 16.952 88.912 16.312C89.696 15.672 90.424 15.016 91.096 14.344C91.768 13.672 92.352 13.04 92.848 12.448C93.136 12.112 93.488 11.944 93.904 11.944C94.304 11.944 94.632 12.088 94.888 12.376C95.4 12.904 95.992 13.48 96.664 14.104C97.352 14.728 98.096 15.368 98.896 16.024C99.696 16.664 100.52 17.28 101.368 17.872C102.232 18.448 103.08 18.952 103.912 19.384C104.36 19.608 104.584 19.968 104.584 20.464C104.584 20.768 104.488 21.024 104.296 21.232C104.104 21.424 103.88 21.52 103.624 21.52C103.56 21.52 103.496 21.512 103.432 21.496C103.368 21.464 103.304 21.44 103.24 21.424C102.552 21.088 101.792 20.656 100.96 20.128C100.144 19.6 99.312 19.016 98.464 18.376C97.632 17.736 96.832 17.08 96.064 16.408C95.296 15.736 94.624 15.088 94.048 14.464C93.984 14.368 93.92 14.368 93.856 14.464C93.312 15.12 92.664 15.8 91.912 16.504C91.16 17.192 90.36 17.864 89.512 18.52C88.68 19.16 87.848 19.744 87.016 20.272C86.2 20.8 85.448 21.216 84.76 21.52ZM98.488 21.28H89.512C89.224 21.28 88.976 21.176 88.768 20.968C88.576 20.76 88.48 20.52 88.48 20.248C88.48 19.976 88.576 19.736 88.768 19.528C88.976 19.32 89.224 19.216 89.512 19.216H98.488C98.76 19.216 99 19.32 99.208 19.528C99.416 19.72 99.52 19.96 99.52 20.248C99.52 20.52 99.416 20.76 99.208 20.968C99.016 21.176 98.776 21.28 98.488 21.28ZM99.256 32.2H88.744C88.312 32.2 87.936 32.048 87.616 31.744C87.312 31.44 87.16 31.064 87.16 30.616V24.784C87.16 24.352 87.312 23.984 87.616 23.68C87.92 23.36 88.296 23.2 88.744 23.2H99.256C99.688 23.2 100.056 23.36 100.36 23.68C100.68 23.984 100.84 24.352 100.84 24.784V30.616C100.84 31.048 100.688 31.416 100.384 31.72C100.08 32.04 99.704 32.2 99.256 32.2ZM89.392 25.264C89.296 25.264 89.248 25.312 89.248 25.408V30.016C89.248 30.112 89.296 30.16 89.392 30.16H98.608C98.704 30.16 98.752 30.112 98.752 30.016V25.408C98.752 25.312 98.704 25.264 98.608 25.264H89.392ZM126.736 20.776C126.976 21.128 127.176 21.568 127.336 22.096C127.496 22.608 127.576 23.168 127.576 23.776C127.576 24.416 127.456 25.072 127.216 25.744C126.992 26.416 126.608 27.08 126.064 27.736C125.536 28.376 124.816 28.96 123.904 29.488C122.992 30.016 121.856 30.456 120.496 30.808C120.464 30.824 120.424 30.832 120.376 30.832C120.328 30.832 120.288 30.832 120.256 30.832C119.984 30.832 119.744 30.736 119.536 30.544C119.328 30.352 119.224 30.112 119.224 29.824C119.224 29.584 119.296 29.368 119.44 29.176C119.6 28.968 119.808 28.832 120.064 28.768C120.672 28.608 121.296 28.392 121.936 28.12C122.576 27.832 123.168 27.488 123.712 27.088C124.256 26.672 124.696 26.2 125.032 25.672C125.368 25.128 125.536 24.52 125.536 23.848C125.536 23.624 125.512 23.392 125.464 23.152C125.288 22.176 124.864 21.432 124.192 20.92C123.536 20.408 122.72 20.152 121.744 20.152C120.928 20.152 120.032 20.336 119.056 20.704C118.08 21.072 117.064 21.648 116.008 22.432C115.912 22.496 115.864 22.584 115.864 22.696C115.88 24.088 115.904 25.456 115.936 26.8C115.968 28.128 116.008 29.328 116.056 30.4C116.072 30.704 115.968 30.96 115.744 31.168C115.536 31.392 115.272 31.504 114.952 31.504C114.696 31.504 114.464 31.408 114.256 31.216C114.064 31.04 113.96 30.808 113.944 30.52C113.912 29.688 113.88 28.776 113.848 27.784C113.816 26.792 113.792 25.768 113.776 24.712C113.776 24.616 113.752 24.552 113.704 24.52C113.656 24.488 113.592 24.512 113.512 24.592C113.304 24.8 113.096 25.016 112.888 25.24C112.68 25.464 112.472 25.704 112.264 25.96C112.2 26.024 112.152 26.088 112.12 26.152C111.72 26.776 111.296 27.392 110.848 28C110.656 28.272 110.392 28.408 110.056 28.408C109.832 28.408 109.616 28.328 109.408 28.168C109.168 27.976 109.048 27.72 109.048 27.4C109.048 27.144 109.12 26.92 109.264 26.728C109.76 26.088 110.272 25.368 110.8 24.568C111.328 23.752 111.84 22.944 112.336 22.144C112.848 21.328 113.296 20.616 113.68 20.008C113.728 19.912 113.752 19.824 113.752 19.744V19.528C113.752 19.352 113.672 19.288 113.512 19.336C112.968 19.512 112.376 19.664 111.736 19.792C111.096 19.904 110.376 19.976 109.576 20.008C109.288 20.024 109.04 19.936 108.832 19.744C108.64 19.536 108.544 19.288 108.544 19C108.544 18.728 108.64 18.488 108.832 18.28C109.024 18.072 109.264 17.96 109.552 17.944C110.4 17.912 111.136 17.824 111.76 17.68C112.384 17.52 112.992 17.336 113.584 17.128C113.696 17.08 113.752 16.992 113.752 16.864C113.768 16.112 113.784 15.408 113.8 14.752C113.816 14.08 113.832 13.504 113.848 13.024C113.864 12.752 113.968 12.52 114.16 12.328C114.368 12.136 114.608 12.04 114.88 12.04C115.184 12.04 115.44 12.152 115.648 12.376C115.856 12.584 115.96 12.832 115.96 13.12C115.96 13.536 115.944 14.032 115.912 14.608C115.896 15.168 115.888 15.776 115.888 16.432C115.888 16.544 115.944 16.624 116.056 16.672C116.376 16.8 116.616 17.016 116.776 17.32C116.952 17.608 117.04 17.92 117.04 18.256C117.04 18.768 116.864 19.208 116.512 19.576H116.632C116.664 19.576 116.704 19.576 116.752 19.576C116.816 19.56 116.872 19.544 116.92 19.528C117.768 19.08 118.6 18.736 119.416 18.496C120.248 18.256 121.048 18.136 121.816 18.136C122.808 18.136 123.72 18.344 124.552 18.76C125.4 19.176 126.128 19.848 126.736 20.776ZM150.544 17.512C150.816 17.528 151.04 17.632 151.216 17.824C151.408 18.016 151.504 18.248 151.504 18.52C151.504 18.808 151.392 19.056 151.168 19.264C150.96 19.472 150.712 19.576 150.424 19.576C149.88 19.56 149.304 19.568 148.696 19.6C148.104 19.616 147.504 19.64 146.896 19.672C146.752 19.688 146.68 19.768 146.68 19.912C146.712 20.568 146.728 21.16 146.728 21.688C146.744 22.2 146.752 22.576 146.752 22.816C146.752 24.032 146.472 24.96 145.912 25.6C145.368 26.224 144.576 26.536 143.536 26.536C143.28 26.536 143 26.512 142.696 26.464C142.392 26.416 142.072 26.352 141.736 26.272C141.512 26.208 141.328 26.088 141.184 25.912C141.056 25.72 140.992 25.52 140.992 25.312C140.992 24.992 141.104 24.736 141.328 24.544C141.552 24.336 141.816 24.232 142.12 24.232C142.152 24.232 142.192 24.232 142.24 24.232C142.288 24.232 142.336 24.24 142.384 24.256C142.832 24.368 143.208 24.424 143.512 24.424C144.024 24.424 144.336 24.272 144.448 23.968C144.576 23.664 144.64 23.264 144.64 22.768C144.64 22.544 144.632 22.2 144.616 21.736C144.616 21.256 144.608 20.72 144.592 20.128C144.592 19.952 144.52 19.88 144.376 19.912C143.544 20.008 142.696 20.104 141.832 20.2C140.968 20.296 140.096 20.392 139.216 20.488C139.072 20.504 139 20.584 139 20.728V26.392C139 27.144 139.072 27.744 139.216 28.192C139.36 28.64 139.64 28.96 140.056 29.152C140.472 29.328 141.096 29.416 141.928 29.416C142.584 29.416 143.408 29.368 144.4 29.272C145.392 29.176 146.584 29.048 147.976 28.888C148.296 28.856 148.568 28.944 148.792 29.152C149.016 29.344 149.128 29.6 149.128 29.92C149.128 30.192 149.032 30.44 148.84 30.664C148.648 30.888 148.408 31.016 148.12 31.048C146.808 31.176 145.648 31.28 144.64 31.36C143.632 31.456 142.752 31.504 142 31.504C140.304 31.504 139.096 31.2 138.376 30.592C137.72 30.032 137.312 29.328 137.152 28.48C136.992 27.632 136.912 26.696 136.912 25.672V20.896C136.912 20.736 136.84 20.672 136.696 20.704C136.152 20.736 135.608 20.768 135.064 20.8C134.52 20.816 133.976 20.816 133.432 20.8C133.176 20.784 132.944 20.68 132.736 20.488C132.544 20.296 132.448 20.064 132.448 19.792C132.448 19.488 132.552 19.24 132.76 19.048C132.968 18.84 133.216 18.736 133.504 18.736C134.064 18.752 134.608 18.752 135.136 18.736C135.664 18.704 136.184 18.68 136.696 18.664C136.84 18.664 136.912 18.592 136.912 18.448V14.368C136.912 14.08 137.008 13.832 137.2 13.624C137.408 13.416 137.656 13.312 137.944 13.312C138.232 13.312 138.48 13.416 138.688 13.624C138.896 13.816 139 14.064 139 14.368V18.28C139 18.424 139.072 18.488 139.216 18.472C140.112 18.376 140.976 18.28 141.808 18.184C142.656 18.088 143.496 17.984 144.328 17.872C144.456 17.84 144.52 17.76 144.52 17.632L144.4 13.504C144.4 13.184 144.504 12.92 144.712 12.712C144.92 12.504 145.176 12.4 145.48 12.4C145.752 12.4 145.992 12.504 146.2 12.712C146.408 12.904 146.512 13.136 146.512 13.408L146.632 17.416C146.632 17.56 146.704 17.624 146.848 17.608C147.456 17.576 148.064 17.552 148.672 17.536C149.296 17.504 149.92 17.496 150.544 17.512Z" fill="black"/>
</svg>
