<svg width="212" height="42" viewBox="0 0 212 42" fill="none" xmlns="http://www.w3.org/2000/svg">
<path d="M31.648 13.936C31.728 14.032 31.768 14.16 31.768 14.32C31.768 14.624 31.648 14.848 31.408 14.992C31.312 15.072 31.184 15.112 31.024 15.112C30.736 15.112 30.52 14.992 30.376 14.752C30.136 14.368 29.848 13.968 29.512 13.552C29.192 13.12 28.872 12.752 28.552 12.448C28.408 12.272 28.336 12.088 28.336 11.896C28.336 11.688 28.408 11.528 28.552 11.416C28.696 11.256 28.88 11.176 29.104 11.176C29.312 11.176 29.488 11.248 29.632 11.392C30.304 12.032 30.976 12.88 31.648 13.936ZM26.704 13.432C26.544 13.288 26.464 13.112 26.464 12.904C26.464 12.696 26.536 12.52 26.68 12.376C26.824 12.216 27.008 12.136 27.232 12.136C27.44 12.136 27.616 12.208 27.76 12.352C28.112 12.704 28.472 13.112 28.84 13.576C29.208 14.04 29.544 14.504 29.848 14.968C29.928 15.064 29.968 15.192 29.968 15.352C29.968 15.656 29.848 15.88 29.608 16.024C29.512 16.104 29.384 16.144 29.224 16.144C28.936 16.144 28.72 16.024 28.576 15.784C28.32 15.4 28.016 14.992 27.664 14.56C27.328 14.112 27.008 13.736 26.704 13.432ZM29.104 21.136C29.152 21.12 29.2 21.112 29.248 21.112C29.296 21.112 29.336 21.112 29.368 21.112C29.656 21.112 29.912 21.208 30.136 21.4C30.36 21.592 30.472 21.848 30.472 22.168C30.472 22.392 30.4 22.6 30.256 22.792C30.128 22.968 29.944 23.096 29.704 23.176C28.904 23.384 27.992 23.592 26.968 23.8C25.96 23.992 24.912 24.176 23.824 24.352C23.68 24.352 23.624 24.432 23.656 24.592C23.896 25.616 24.144 26.608 24.4 27.568C24.656 28.512 24.912 29.392 25.168 30.208C25.2 30.272 25.216 30.336 25.216 30.4C25.216 30.448 25.216 30.504 25.216 30.568C25.216 30.824 25.12 31.064 24.928 31.288C24.736 31.512 24.472 31.624 24.136 31.624C23.912 31.624 23.704 31.56 23.512 31.432C23.336 31.304 23.208 31.128 23.128 30.904C22.856 30.04 22.584 29.096 22.312 28.072C22.04 27.048 21.776 25.992 21.52 24.904C21.488 24.76 21.4 24.704 21.256 24.736C20.136 24.912 19.064 25.08 18.04 25.24C17.016 25.4 16.144 25.56 15.424 25.72C15.376 25.736 15.304 25.744 15.208 25.744C14.936 25.744 14.696 25.648 14.488 25.456C14.28 25.264 14.176 25.016 14.176 24.712C14.176 24.456 14.256 24.224 14.416 24.016C14.576 23.808 14.784 23.68 15.04 23.632C15.824 23.456 16.704 23.296 17.68 23.152C18.672 22.992 19.704 22.832 20.776 22.672C20.904 22.656 20.96 22.576 20.944 22.432C20.832 21.84 20.712 21.264 20.584 20.704C20.456 20.144 20.344 19.592 20.248 19.048C20.216 18.888 20.128 18.824 19.984 18.856C19.104 18.984 18.248 19.112 17.416 19.24C16.584 19.368 15.816 19.496 15.112 19.624C14.808 19.672 14.52 19.6 14.248 19.408C13.976 19.216 13.84 18.952 13.84 18.616C13.84 18.344 13.92 18.112 14.08 17.92C14.256 17.712 14.472 17.584 14.728 17.536C15.416 17.408 16.168 17.288 16.984 17.176C17.816 17.048 18.68 16.92 19.576 16.792C19.704 16.776 19.76 16.696 19.744 16.552C19.632 15.976 19.536 15.44 19.456 14.944C19.376 14.448 19.296 14 19.216 13.6C19.2 13.552 19.192 13.48 19.192 13.384C19.192 13.112 19.288 12.872 19.48 12.664C19.688 12.456 19.944 12.352 20.248 12.352C20.504 12.352 20.736 12.44 20.944 12.616C21.152 12.776 21.28 12.992 21.328 13.264C21.408 13.664 21.488 14.12 21.568 14.632C21.648 15.128 21.744 15.664 21.856 16.24C21.888 16.4 21.976 16.464 22.12 16.432C22.936 16.304 23.736 16.176 24.52 16.048C25.304 15.92 26.048 15.784 26.752 15.64C27.072 15.592 27.36 15.672 27.616 15.88C27.888 16.072 28.024 16.344 28.024 16.696C28.024 16.936 27.944 17.16 27.784 17.368C27.64 17.56 27.44 17.68 27.184 17.728C26.496 17.856 25.752 17.992 24.952 18.136C24.168 18.264 23.36 18.392 22.528 18.52C22.384 18.52 22.328 18.6 22.36 18.76L23.08 22.096C23.112 22.24 23.224 22.296 23.416 22.264C24.472 22.104 25.496 21.928 26.488 21.736C27.48 21.544 28.352 21.344 29.104 21.136ZM42.64 31.24C42.512 31.304 42.368 31.336 42.208 31.336C41.744 31.336 41.408 31.104 41.2 30.64C41.152 30.512 41.128 30.384 41.128 30.256C41.128 30.032 41.192 29.824 41.32 29.632C41.448 29.44 41.616 29.296 41.824 29.2C44.4 28.096 46.448 26.76 47.968 25.192C49.488 23.624 50.576 21.728 51.232 19.504C51.424 18.848 51.52 18.32 51.52 17.92C51.52 17.456 51.384 17.12 51.112 16.912C50.84 16.704 50.4 16.568 49.792 16.504C49.44 16.472 49.08 16.448 48.712 16.432C48.36 16.4 47.984 16.384 47.584 16.384C46.464 16.384 45.248 16.472 43.936 16.648C42.624 16.808 41.192 17.048 39.64 17.368C39.608 17.384 39.568 17.392 39.52 17.392C39.472 17.392 39.432 17.392 39.4 17.392C39.128 17.392 38.888 17.296 38.68 17.104C38.488 16.912 38.392 16.664 38.392 16.36C38.392 16.088 38.48 15.84 38.656 15.616C38.832 15.392 39.056 15.248 39.328 15.184C40.144 15.008 41.04 14.856 42.016 14.728C43.008 14.6 44.008 14.504 45.016 14.44C46.024 14.36 46.968 14.32 47.848 14.32C48.264 14.32 48.664 14.336 49.048 14.368C49.432 14.384 49.784 14.408 50.104 14.44C51.064 14.552 51.8 14.784 52.312 15.136C52.84 15.488 53.2 15.904 53.392 16.384C53.6 16.864 53.704 17.368 53.704 17.896C53.704 18.296 53.664 18.688 53.584 19.072C53.504 19.456 53.416 19.808 53.32 20.128C52.536 22.704 51.272 24.896 49.528 26.704C47.8 28.496 45.504 30.008 42.64 31.24ZM77.344 24.064C77.552 24.272 77.656 24.536 77.656 24.856C77.656 25.176 77.552 25.448 77.344 25.672C77.184 25.88 76.952 25.984 76.648 25.984C76.36 25.984 76.112 25.88 75.904 25.672C74.928 24.616 73.928 23.784 72.904 23.176C71.88 22.568 70.76 22.152 69.544 21.928H69.496C69.368 21.928 69.304 21.992 69.304 22.12V30.472C69.304 30.76 69.2 31.008 68.992 31.216C68.784 31.44 68.52 31.552 68.2 31.552C67.912 31.552 67.656 31.448 67.432 31.24C67.224 31.032 67.12 30.776 67.12 30.472V14.2C67.12 13.896 67.224 13.64 67.432 13.432C67.656 13.208 67.912 13.096 68.2 13.096C68.504 13.096 68.76 13.208 68.968 13.432C69.192 13.64 69.304 13.896 69.304 14.2V19.576C69.304 19.688 69.376 19.76 69.52 19.792C70.544 19.936 71.528 20.224 72.472 20.656C73.432 21.072 74.32 21.576 75.136 22.168C75.968 22.76 76.704 23.392 77.344 24.064ZM94.96 30.544C94.656 30.576 94.376 30.48 94.12 30.256C93.864 30.032 93.736 29.752 93.736 29.416C93.736 29.16 93.824 28.936 94 28.744C94.176 28.552 94.392 28.432 94.648 28.384C96.6 28.08 98.096 27.424 99.136 26.416C100.192 25.408 100.72 24.12 100.72 22.552C100.72 21.624 100.496 20.776 100.048 20.008C99.6 19.24 98.984 18.624 98.2 18.16C97.432 17.68 96.568 17.416 95.608 17.368C95.48 17.368 95.4 17.432 95.368 17.56C95.032 19.08 94.616 20.536 94.12 21.928C93.64 23.304 93.088 24.536 92.464 25.624C91.856 26.696 91.2 27.544 90.496 28.168C89.808 28.792 89.088 29.104 88.336 29.104C88.144 29.104 87.952 29.08 87.76 29.032C86.96 28.84 86.352 28.36 85.936 27.592C85.536 26.824 85.336 25.92 85.336 24.88C85.336 23.936 85.496 22.952 85.816 21.928C86.152 20.904 86.648 19.944 87.304 19.048C88.248 17.768 89.4 16.816 90.76 16.192C92.136 15.568 93.52 15.256 94.912 15.256C96.064 15.256 97.16 15.456 98.2 15.856C99.256 16.256 100.168 16.856 100.936 17.656C101.72 18.44 102.272 19.408 102.592 20.56C102.784 21.2 102.88 21.872 102.88 22.576C102.88 23.44 102.72 24.304 102.4 25.168C102.096 26.032 101.624 26.84 100.984 27.592C100.344 28.328 99.52 28.96 98.512 29.488C97.52 30 96.336 30.352 94.96 30.544ZM87.64 26.488C87.832 26.824 88.072 26.992 88.36 26.992C88.744 26.992 89.16 26.712 89.608 26.152C90.072 25.592 90.528 24.856 90.976 23.944C91.424 23.032 91.84 22.04 92.224 20.968C92.608 19.88 92.912 18.824 93.136 17.8V17.776C93.136 17.664 93.04 17.608 92.848 17.608C92.8 17.608 92.752 17.616 92.704 17.632C92.656 17.632 92.608 17.64 92.56 17.656C91.632 17.928 90.832 18.344 90.16 18.904C89.504 19.448 88.96 20.072 88.528 20.776C88.112 21.48 87.8 22.192 87.592 22.912C87.4 23.616 87.304 24.272 87.304 24.88C87.304 25.552 87.416 26.088 87.64 26.488ZM126.232 17.296C126.52 17.312 126.768 17.432 126.976 17.656C127.184 17.864 127.288 18.112 127.288 18.4C127.288 18.704 127.176 18.952 126.952 19.144C126.744 19.336 126.496 19.424 126.208 19.408C125.424 19.376 124.608 19.344 123.76 19.312C122.928 19.28 122.08 19.256 121.216 19.24C121.072 19.24 121.008 19.312 121.024 19.456C121.104 20.624 121.208 21.88 121.336 23.224C121.464 24.552 121.608 25.952 121.768 27.424C121.816 27.776 121.84 28.112 121.84 28.432C121.84 29.648 121.464 30.488 120.712 30.952C119.96 31.416 118.728 31.616 117.016 31.552C116.712 31.536 116.448 31.416 116.224 31.192C116.016 30.968 115.912 30.704 115.912 30.4C115.912 30.096 116.016 29.84 116.224 29.632C116.448 29.424 116.712 29.336 117.016 29.368C117.256 29.384 117.48 29.4 117.688 29.416C117.896 29.416 118.08 29.416 118.24 29.416C118.864 29.416 119.264 29.36 119.44 29.248C119.632 29.136 119.728 28.928 119.728 28.624C119.728 28.512 119.72 28.4 119.704 28.288C119.704 28.16 119.696 28.024 119.68 27.88C119.584 26.888 119.488 25.872 119.392 24.832C119.312 23.776 119.224 22.736 119.128 21.712C119.128 21.616 119.096 21.56 119.032 21.544C118.984 21.528 118.928 21.56 118.864 21.64C118.176 22.552 117.368 23.448 116.44 24.328C115.528 25.192 114.568 25.984 113.56 26.704C112.552 27.424 111.552 28.016 110.56 28.48C110.496 28.496 110.432 28.52 110.368 28.552C110.304 28.568 110.232 28.576 110.152 28.576C109.896 28.576 109.656 28.48 109.432 28.288C109.224 28.08 109.12 27.816 109.12 27.496C109.12 27.288 109.176 27.096 109.288 26.92C109.4 26.728 109.56 26.584 109.768 26.488C110.744 26.008 111.728 25.416 112.72 24.712C113.728 23.992 114.672 23.192 115.552 22.312C116.432 21.416 117.176 20.48 117.784 19.504C117.816 19.44 117.832 19.4 117.832 19.384C117.832 19.288 117.768 19.24 117.64 19.24C116.424 19.256 115.208 19.296 113.992 19.36C112.792 19.424 111.6 19.512 110.416 19.624C110.112 19.64 109.848 19.552 109.624 19.36C109.4 19.152 109.288 18.896 109.288 18.592C109.288 18.32 109.384 18.08 109.576 17.872C109.784 17.648 110.024 17.528 110.296 17.512C111.576 17.4 112.912 17.32 114.304 17.272C115.712 17.224 117.128 17.192 118.552 17.176C118.68 17.176 118.744 17.104 118.744 16.96L118.48 13.192C118.464 12.872 118.56 12.608 118.768 12.4C118.992 12.192 119.256 12.088 119.56 12.088C119.832 12.088 120.072 12.192 120.28 12.4C120.488 12.592 120.6 12.824 120.616 13.096C120.648 13.592 120.68 14.16 120.712 14.8C120.744 15.44 120.776 16.152 120.808 16.936C120.84 17.08 120.92 17.152 121.048 17.152C122.888 17.184 124.616 17.232 126.232 17.296ZM150.952 29.656C151.096 29.848 151.168 30.064 151.168 30.304C151.168 30.688 151.016 31.008 150.712 31.264C150.52 31.408 150.312 31.48 150.088 31.48C149.736 31.48 149.448 31.336 149.224 31.048C148.728 30.312 148.136 29.608 147.448 28.936C146.76 28.264 146.032 27.664 145.264 27.136C144.512 26.608 143.752 26.192 142.984 25.888C142.872 25.84 142.776 25.856 142.696 25.936C141.672 26.896 140.496 27.832 139.168 28.744C137.856 29.656 136.368 30.488 134.704 31.24C134.576 31.304 134.432 31.336 134.272 31.336C134.016 31.336 133.784 31.24 133.576 31.048C133.368 30.856 133.264 30.608 133.264 30.304C133.264 30.064 133.328 29.84 133.456 29.632C133.6 29.424 133.784 29.272 134.008 29.176C135.56 28.488 136.952 27.712 138.184 26.848C139.432 25.968 140.512 25.072 141.424 24.16C142.352 23.232 143.12 22.352 143.728 21.52C144.336 20.672 144.784 19.952 145.072 19.36C145.392 18.672 145.552 18.144 145.552 17.776C145.552 17.28 145.232 17.032 144.592 17.032C144.496 17.032 144.392 17.032 144.28 17.032C144.184 17.032 144.072 17.048 143.944 17.08C143.4 17.16 142.672 17.24 141.76 17.32C140.848 17.4 139.848 17.464 138.76 17.512C137.688 17.56 136.632 17.584 135.592 17.584C135.32 17.584 135.08 17.488 134.872 17.296C134.68 17.088 134.584 16.84 134.584 16.552C134.584 16.248 134.688 15.992 134.896 15.784C135.104 15.576 135.36 15.472 135.664 15.472H136.744C138.152 15.472 139.48 15.424 140.728 15.328C141.976 15.232 142.944 15.12 143.632 14.992C143.808 14.96 143.976 14.936 144.136 14.92C144.296 14.904 144.456 14.896 144.616 14.896C145.576 14.896 146.32 15.16 146.848 15.688C147.392 16.2 147.664 16.888 147.664 17.752C147.664 18.552 147.44 19.408 146.992 20.32C146.736 20.848 146.408 21.416 146.008 22.024C145.608 22.632 145.136 23.264 144.592 23.92C144.56 23.952 144.544 24 144.544 24.064C144.544 24.128 144.584 24.184 144.664 24.232C145.464 24.632 146.256 25.136 147.04 25.744C147.824 26.336 148.552 26.976 149.224 27.664C149.896 28.336 150.472 29 150.952 29.656ZM174.952 29.656C175.096 29.848 175.168 30.064 175.168 30.304C175.168 30.688 175.016 31.008 174.712 31.264C174.52 31.408 174.312 31.48 174.088 31.48C173.736 31.48 173.448 31.336 173.224 31.048C172.728 30.312 172.136 29.608 171.448 28.936C170.76 28.264 170.032 27.664 169.264 27.136C168.512 26.608 167.752 26.192 166.984 25.888C166.872 25.84 166.776 25.856 166.696 25.936C165.672 26.896 164.496 27.832 163.168 28.744C161.856 29.656 160.368 30.488 158.704 31.24C158.576 31.304 158.432 31.336 158.272 31.336C158.016 31.336 157.784 31.24 157.576 31.048C157.368 30.856 157.264 30.608 157.264 30.304C157.264 30.064 157.328 29.84 157.456 29.632C157.6 29.424 157.784 29.272 158.008 29.176C159.56 28.488 160.952 27.712 162.184 26.848C163.432 25.968 164.512 25.072 165.424 24.16C166.352 23.232 167.12 22.352 167.728 21.52C168.336 20.672 168.784 19.952 169.072 19.36C169.392 18.672 169.552 18.144 169.552 17.776C169.552 17.28 169.232 17.032 168.592 17.032C168.496 17.032 168.392 17.032 168.28 17.032C168.184 17.032 168.072 17.048 167.944 17.08C167.4 17.16 166.672 17.24 165.76 17.32C164.848 17.4 163.848 17.464 162.76 17.512C161.688 17.56 160.632 17.584 159.592 17.584C159.32 17.584 159.08 17.488 158.872 17.296C158.68 17.088 158.584 16.84 158.584 16.552C158.584 16.248 158.688 15.992 158.896 15.784C159.104 15.576 159.36 15.472 159.664 15.472H160.744C162.152 15.472 163.48 15.424 164.728 15.328C165.976 15.232 166.944 15.12 167.632 14.992C167.808 14.96 167.976 14.936 168.136 14.92C168.296 14.904 168.456 14.896 168.616 14.896C169.576 14.896 170.32 15.16 170.848 15.688C171.392 16.2 171.664 16.888 171.664 17.752C171.664 18.552 171.44 19.408 170.992 20.32C170.736 20.848 170.408 21.416 170.008 22.024C169.608 22.632 169.136 23.264 168.592 23.92C168.56 23.952 168.544 24 168.544 24.064C168.544 24.128 168.584 24.184 168.664 24.232C169.464 24.632 170.256 25.136 171.04 25.744C171.824 26.336 172.552 26.976 173.224 27.664C173.896 28.336 174.472 29 174.952 29.656ZM196.768 25C197.024 25.256 197.152 25.552 197.152 25.888C197.152 26.16 197.064 26.424 196.888 26.68C196.712 26.952 196.448 27.088 196.096 27.088C195.984 27.088 195.864 27.072 195.736 27.04C195.608 26.992 195.496 26.92 195.4 26.824C194.344 25.816 193.272 24.944 192.184 24.208C192.056 24.128 191.96 24.144 191.896 24.256C189.768 27.024 187.192 29.264 184.168 30.976C184.008 31.072 183.832 31.12 183.64 31.12C183.208 31.12 182.888 30.928 182.68 30.544C182.6 30.4 182.56 30.224 182.56 30.016C182.56 29.584 182.744 29.256 183.112 29.032C185.832 27.48 188.112 25.528 189.952 23.176C189.984 23.144 190 23.096 190 23.032C190 22.952 189.96 22.904 189.88 22.888C189.224 22.568 188.536 22.28 187.816 22.024C187.096 21.768 186.336 21.536 185.536 21.328C185.28 21.264 185.072 21.136 184.912 20.944C184.768 20.736 184.696 20.504 184.696 20.248C184.696 19.88 184.84 19.584 185.128 19.36C185.432 19.136 185.752 19.064 186.088 19.144C186.984 19.352 187.856 19.624 188.704 19.96C189.568 20.28 190.392 20.648 191.176 21.064C191.24 21.096 191.288 21.112 191.32 21.112C191.384 21.112 191.44 21.072 191.488 20.992C192.112 19.952 192.664 18.864 193.144 17.728C193.64 16.576 194.048 15.368 194.368 14.104C194.432 13.864 194.56 13.672 194.752 13.528C194.96 13.368 195.184 13.288 195.424 13.288C195.744 13.288 196.008 13.4 196.216 13.624C196.44 13.848 196.552 14.104 196.552 14.392C196.552 14.504 196.544 14.592 196.528 14.656C196.224 15.968 195.8 17.248 195.256 18.496C194.728 19.744 194.104 20.944 193.384 22.096C193.352 22.16 193.336 22.208 193.336 22.24C193.336 22.304 193.376 22.36 193.456 22.408C194.08 22.808 194.664 23.232 195.208 23.68C195.768 24.112 196.288 24.552 196.768 25Z" fill="black"/>
</svg>
