<svg width="359" height="439" viewBox="0 0 359 439" fill="none" xmlns="http://www.w3.org/2000/svg">
<path d="M120.34 16.336C120.34 16.432 120.388 16.48 120.484 16.48H125.98C126.38 16.48 126.716 16.624 126.988 16.912C127.276 17.184 127.42 17.52 127.42 17.92V27.328C127.42 27.728 127.276 28.064 126.988 28.336C126.716 28.624 126.38 28.768 125.98 28.768H112.372C112.116 28.768 111.9 28.68 111.724 28.504C111.548 28.328 111.46 28.112 111.46 27.856C111.46 27.6 111.548 27.384 111.724 27.208C111.9 27.032 112.116 26.944 112.372 26.944H125.428C125.524 26.944 125.572 26.896 125.572 26.8V23.416C125.572 23.32 125.524 23.272 125.428 23.272H113.308C113.052 23.272 112.836 23.184 112.66 23.008C112.484 22.832 112.396 22.624 112.396 22.384C112.396 22.128 112.484 21.912 112.66 21.736C112.836 21.56 113.052 21.472 113.308 21.472H125.428C125.524 21.472 125.572 21.424 125.572 21.328V18.448C125.572 18.352 125.524 18.304 125.428 18.304H112.372C112.116 18.304 111.9 18.216 111.724 18.04C111.548 17.864 111.46 17.648 111.46 17.392C111.46 17.136 111.548 16.92 111.724 16.744C111.9 16.568 112.116 16.48 112.372 16.48H118.372C118.468 16.48 118.516 16.432 118.516 16.336V9.64C118.516 9.4 118.604 9.192 118.78 9.016C118.956 8.824 119.172 8.728 119.428 8.728C119.684 8.728 119.9 8.824 120.076 9.016C120.252 9.192 120.34 9.4 120.34 9.64V16.336ZM114.844 15.208C114.524 14.424 114.148 13.704 113.716 13.048C113.284 12.376 112.796 11.728 112.252 11.104C112.108 10.928 112.036 10.728 112.036 10.504C112.036 10.184 112.156 9.944 112.396 9.784C112.604 9.656 112.812 9.592 113.02 9.592C113.388 9.592 113.668 9.728 113.86 10C114.132 10.368 114.428 10.808 114.748 11.32C115.084 11.816 115.404 12.344 115.708 12.904C116.028 13.464 116.292 14 116.5 14.512C116.548 14.624 116.572 14.736 116.572 14.848C116.572 15.072 116.484 15.28 116.308 15.472C116.132 15.664 115.908 15.76 115.636 15.76C115.476 15.76 115.316 15.712 115.156 15.616C115.012 15.504 114.908 15.368 114.844 15.208ZM122.812 15.592C122.604 15.432 122.5 15.224 122.5 14.968C122.5 14.744 122.572 14.552 122.716 14.392C123.228 13.816 123.708 13.168 124.156 12.448C124.62 11.712 125.028 10.968 125.38 10.216C125.46 10.024 125.58 9.88 125.74 9.784C125.916 9.672 126.092 9.616 126.268 9.616C126.54 9.616 126.756 9.704 126.916 9.88C127.092 10.056 127.18 10.256 127.18 10.48C127.18 10.576 127.156 10.688 127.108 10.816C126.9 11.312 126.628 11.848 126.292 12.424C125.972 13 125.628 13.56 125.26 14.104C124.908 14.648 124.556 15.12 124.204 15.52C124.012 15.712 123.78 15.808 123.508 15.808C123.268 15.808 123.036 15.736 122.812 15.592ZM144.988 10.528C144.988 10.624 145.036 10.672 145.132 10.672H152.74C152.996 10.672 153.204 10.76 153.364 10.936C153.54 11.112 153.628 11.32 153.628 11.56C153.628 11.816 153.54 12.032 153.364 12.208C153.204 12.368 152.996 12.448 152.74 12.448H136.78C136.684 12.448 136.636 12.496 136.636 12.592V16.864C136.636 18.048 136.604 19.336 136.54 20.728C136.492 22.104 136.38 23.48 136.204 24.856C136.028 26.232 135.764 27.528 135.412 28.744C135.348 28.984 135.22 29.168 135.028 29.296C134.836 29.424 134.628 29.488 134.404 29.488C134.132 29.488 133.908 29.392 133.732 29.2C133.572 29.024 133.492 28.824 133.492 28.6C133.492 28.552 133.492 28.504 133.492 28.456C133.508 28.424 133.524 28.384 133.54 28.336C133.78 27.648 133.996 26.8 134.188 25.792C134.38 24.784 134.532 23.552 134.644 22.096C134.756 20.624 134.812 18.88 134.812 16.864V12.112C134.812 11.712 134.948 11.376 135.22 11.104C135.508 10.816 135.852 10.672 136.252 10.672H143.02C143.116 10.672 143.164 10.624 143.164 10.528V9.448C143.164 9.192 143.252 8.976 143.428 8.8C143.604 8.624 143.82 8.536 144.076 8.536C144.332 8.536 144.548 8.624 144.724 8.8C144.9 8.976 144.988 9.192 144.988 9.448V10.528ZM145.708 16.672C145.708 16.768 145.756 16.816 145.852 16.816H152.044C152.284 16.816 152.492 16.904 152.668 17.08C152.844 17.24 152.932 17.44 152.932 17.68C152.932 17.92 152.844 18.128 152.668 18.304C152.492 18.464 152.284 18.544 152.044 18.544H145.852C145.756 18.544 145.708 18.592 145.708 18.688V21.52C145.708 21.616 145.756 21.664 145.852 21.664H149.668C150.068 21.664 150.404 21.808 150.676 22.096C150.964 22.368 151.108 22.704 151.108 23.104V27.712C151.108 28.112 150.964 28.448 150.676 28.72C150.404 29.008 150.068 29.152 149.668 29.152H139.924C139.524 29.152 139.18 29.008 138.892 28.72C138.62 28.448 138.484 28.112 138.484 27.712V23.104C138.484 22.704 138.62 22.368 138.892 22.096C139.18 21.808 139.524 21.664 139.924 21.664H143.74C143.836 21.664 143.884 21.616 143.884 21.52V14.44C143.884 14.184 143.972 13.968 144.148 13.792C144.324 13.616 144.54 13.528 144.796 13.528C145.052 13.528 145.268 13.616 145.444 13.792C145.62 13.968 145.708 14.184 145.708 14.44V16.672ZM140.284 27.304C140.284 27.4 140.332 27.448 140.428 27.448H149.164C149.26 27.448 149.308 27.4 149.308 27.304V23.512C149.308 23.416 149.26 23.368 149.164 23.368H140.428C140.332 23.368 140.284 23.416 140.284 23.512V27.304ZM168.436 27.4C168.18 27.432 167.948 27.368 167.74 27.208C167.548 27.032 167.428 26.816 167.38 26.56C167.364 26.32 167.428 26.104 167.572 25.912C167.716 25.704 167.916 25.576 168.172 25.528C169.66 25.288 170.852 24.88 171.748 24.304C172.66 23.712 173.324 23.008 173.74 22.192C174.156 21.36 174.364 20.472 174.364 19.528C174.364 18.568 174.124 17.696 173.644 16.912C173.18 16.112 172.54 15.472 171.724 14.992C170.924 14.496 170.012 14.24 168.988 14.224C168.86 14.224 168.78 14.288 168.748 14.416C168.428 15.952 168.02 17.416 167.524 18.808C167.044 20.184 166.5 21.408 165.892 22.48C165.284 23.552 164.636 24.4 163.948 25.024C163.26 25.648 162.556 25.96 161.836 25.96C161.66 25.96 161.476 25.936 161.284 25.888C160.516 25.712 159.932 25.256 159.532 24.52C159.148 23.768 158.956 22.888 158.956 21.88C158.956 20.968 159.116 20.008 159.436 19C159.772 17.976 160.268 17.024 160.924 16.144C161.868 14.864 163.004 13.92 164.332 13.312C165.676 12.704 167.036 12.4 168.412 12.4C169.532 12.4 170.604 12.6 171.628 13C172.668 13.4 173.564 13.984 174.316 14.752C175.084 15.52 175.628 16.472 175.948 17.608C176.14 18.248 176.236 18.92 176.236 19.624C176.236 20.472 176.084 21.32 175.78 22.168C175.476 23 175.004 23.784 174.364 24.52C173.74 25.24 172.932 25.856 171.94 26.368C170.964 26.864 169.796 27.208 168.436 27.4ZM160.996 23.56C161.236 23.944 161.508 24.136 161.812 24.136C162.148 24.136 162.5 23.944 162.868 23.56C163.252 23.16 163.636 22.632 164.02 21.976C164.42 21.32 164.796 20.576 165.148 19.744C165.5 18.912 165.82 18.056 166.108 17.176C166.396 16.296 166.628 15.44 166.804 14.608V14.584C166.804 14.472 166.708 14.416 166.516 14.416C166.484 14.416 166.444 14.424 166.396 14.44C166.348 14.44 166.292 14.448 166.228 14.464C165.252 14.72 164.404 15.136 163.684 15.712C162.98 16.272 162.404 16.92 161.956 17.656C161.524 18.376 161.196 19.112 160.972 19.864C160.764 20.616 160.66 21.304 160.66 21.928C160.66 22.616 160.772 23.16 160.996 23.56ZM201.7 12.664C201.604 12.696 201.532 12.712 201.484 12.712C201.228 12.712 201.044 12.592 200.932 12.352C200.548 11.328 199.972 10.456 199.204 9.736C199.092 9.624 199.036 9.488 199.036 9.328C199.036 9.168 199.084 9.04 199.18 8.944C199.292 8.832 199.436 8.776 199.612 8.776C199.772 8.776 199.908 8.824 200.02 8.92C200.5 9.368 200.892 9.816 201.196 10.264C201.5 10.712 201.78 11.24 202.036 11.848C202.068 11.944 202.084 12.024 202.084 12.088C202.084 12.376 201.956 12.568 201.7 12.664ZM199.708 13.576C199.612 13.608 199.54 13.624 199.492 13.624C199.22 13.624 199.036 13.496 198.94 13.24C198.572 12.248 198.012 11.424 197.26 10.768C197.132 10.64 197.068 10.488 197.068 10.312C197.068 10.152 197.116 10.016 197.212 9.904C197.356 9.76 197.516 9.688 197.692 9.688C197.836 9.688 197.964 9.744 198.076 9.856C198.908 10.592 199.572 11.552 200.068 12.736C200.1 12.832 200.116 12.904 200.116 12.952C200.116 13.24 199.98 13.448 199.708 13.576ZM196.756 14.704C195.892 14.816 195.004 14.904 194.092 14.968C193.18 15.016 192.268 15.04 191.356 15.04C189.516 15.04 187.78 14.92 186.148 14.68C185.924 14.648 185.732 14.544 185.572 14.368C185.428 14.192 185.356 13.992 185.356 13.768C185.356 13.464 185.468 13.224 185.692 13.048C185.916 12.872 186.164 12.8 186.436 12.832C187.028 12.912 187.732 12.992 188.548 13.072C189.38 13.136 190.308 13.168 191.332 13.168C192.116 13.168 192.948 13.144 193.828 13.096C194.724 13.032 195.668 12.944 196.66 12.832C196.916 12.8 197.14 12.872 197.332 13.048C197.524 13.208 197.62 13.424 197.62 13.696C197.62 13.952 197.54 14.176 197.38 14.368C197.22 14.56 197.012 14.672 196.756 14.704ZM199.228 25.936C197.9 26.304 196.62 26.6 195.388 26.824C194.172 27.032 192.996 27.136 191.86 27.136C190.292 27.136 188.804 26.896 187.396 26.416C186.004 25.936 184.668 25.144 183.388 24.04C183.18 23.88 183.076 23.648 183.076 23.344C183.076 23.072 183.156 22.848 183.316 22.672C183.508 22.464 183.748 22.36 184.036 22.36C184.292 22.36 184.508 22.44 184.684 22.6C185.628 23.4 186.676 24.048 187.828 24.544C188.98 25.024 190.356 25.264 191.956 25.264C192.9 25.264 193.94 25.168 195.076 24.976C196.228 24.768 197.484 24.456 198.844 24.04C198.892 24.024 198.94 24.016 198.988 24.016C199.036 24 199.084 23.992 199.132 23.992C199.372 23.992 199.572 24.08 199.732 24.256C199.908 24.432 199.996 24.648 199.996 24.904C199.996 25.144 199.924 25.36 199.78 25.552C199.636 25.744 199.452 25.872 199.228 25.936ZM213.1 16.576C213.308 17.072 213.516 17.648 213.724 18.304C213.932 18.96 214.116 19.64 214.276 20.344C214.324 20.6 214.26 20.84 214.084 21.064C213.924 21.288 213.7 21.4 213.412 21.4C213.22 21.4 213.044 21.336 212.884 21.208C212.74 21.08 212.644 20.912 212.596 20.704L212.404 19.96C212.388 19.88 212.332 19.848 212.236 19.864C211.788 20.008 211.308 20.144 210.796 20.272C210.716 20.304 210.676 20.352 210.676 20.416V28.504C210.676 28.744 210.588 28.952 210.412 29.128C210.252 29.304 210.044 29.392 209.788 29.392C209.548 29.392 209.34 29.304 209.164 29.128C208.988 28.952 208.9 28.744 208.9 28.504V20.752C208.9 20.64 208.852 20.6 208.756 20.632C208.324 20.68 207.908 20.72 207.508 20.752C207.108 20.784 206.748 20.816 206.428 20.848C206.124 20.864 205.876 20.768 205.684 20.56C205.492 20.352 205.396 20.112 205.396 19.84C205.396 19.664 205.436 19.488 205.516 19.312C205.596 19.136 205.724 18.992 205.9 18.88C206.556 18.4 207.188 17.792 207.796 17.056C207.828 16.992 207.836 16.928 207.82 16.864C207.58 16.416 207.316 16 207.028 15.616C206.74 15.232 206.452 14.896 206.164 14.608C205.924 14.368 205.804 14.08 205.804 13.744C205.804 13.456 205.892 13.2 206.068 12.976C206.468 12.48 206.828 11.92 207.148 11.296C207.468 10.672 207.732 9.992 207.94 9.256C207.988 9.032 208.1 8.864 208.276 8.752C208.452 8.624 208.644 8.56 208.852 8.56C209.076 8.56 209.26 8.64 209.404 8.8C209.564 8.96 209.644 9.152 209.644 9.376C209.644 9.472 209.636 9.544 209.62 9.592C209.428 10.264 209.188 10.952 208.9 11.656C208.612 12.344 208.236 12.992 207.772 13.6C207.724 13.664 207.732 13.728 207.796 13.792C207.892 13.904 208.044 14.088 208.252 14.344C208.46 14.584 208.676 14.872 208.9 15.208C208.964 15.304 209.028 15.296 209.092 15.184C209.956 13.792 210.604 12.216 211.036 10.456C211.1 10.232 211.228 10.056 211.42 9.928C211.628 9.8 211.844 9.76 212.068 9.808C212.516 9.936 212.74 10.224 212.74 10.672C212.74 10.768 212.732 10.84 212.716 10.888C211.916 14.088 210.548 16.712 208.612 18.76C208.564 18.808 208.548 18.848 208.564 18.88C208.58 18.912 208.62 18.92 208.684 18.904C209.148 18.824 209.644 18.736 210.172 18.64C210.7 18.544 211.212 18.416 211.708 18.256C211.804 18.24 211.836 18.176 211.804 18.064C211.74 17.92 211.676 17.776 211.612 17.632C211.564 17.488 211.508 17.36 211.444 17.248C211.38 17.136 211.348 17 211.348 16.84C211.348 16.472 211.516 16.224 211.852 16.096C211.98 16.048 212.108 16.024 212.236 16.024C212.668 16.024 212.956 16.208 213.1 16.576ZM215.212 9.592H223.828C224.212 9.592 224.54 9.736 224.812 10.024C225.1 10.296 225.228 10.632 225.196 11.032C225.18 11.624 225.148 12.264 225.1 12.952C225.068 13.64 225.02 14.296 224.956 14.92C224.908 15.544 224.852 16.064 224.788 16.48C224.628 17.472 224.26 18.144 223.684 18.496C223.108 18.848 222.372 19.024 221.476 19.024C221.364 19.024 221.252 19.024 221.14 19.024C221.028 19.024 220.908 19.016 220.78 19C220.54 18.968 220.34 18.864 220.18 18.688C220.02 18.496 219.94 18.28 219.94 18.04C219.94 17.768 220.036 17.544 220.228 17.368C220.436 17.192 220.668 17.12 220.924 17.152C221.308 17.2 221.628 17.224 221.884 17.224C222.204 17.224 222.452 17.152 222.628 17.008C222.82 16.864 222.956 16.576 223.036 16.144C223.132 15.632 223.212 14.936 223.276 14.056C223.34 13.16 223.388 12.296 223.42 11.464C223.42 11.368 223.372 11.32 223.276 11.32H220.468C220.404 11.32 220.356 11.36 220.324 11.44C220.1 12.624 219.708 13.712 219.148 14.704C218.604 15.68 217.98 16.528 217.276 17.248C216.588 17.968 215.9 18.536 215.212 18.952C215.084 19.032 214.956 19.072 214.828 19.072C214.476 19.072 214.22 18.896 214.06 18.544C214.012 18.416 213.988 18.296 213.988 18.184C213.988 17.8 214.164 17.472 214.516 17.2C215.492 16.544 216.332 15.72 217.036 14.728C217.74 13.736 218.228 12.656 218.5 11.488C218.516 11.376 218.476 11.32 218.38 11.32H215.212C214.972 11.32 214.764 11.24 214.588 11.08C214.428 10.904 214.348 10.696 214.348 10.456C214.348 10.216 214.428 10.016 214.588 9.856C214.764 9.68 214.972 9.592 215.212 9.592ZM223.18 20.08C223.58 20.08 223.916 20.224 224.188 20.512C224.476 20.784 224.62 21.12 224.62 21.52V27.736C224.62 28.136 224.476 28.472 224.188 28.744C223.916 29.032 223.58 29.176 223.18 29.176H216.7C216.3 29.176 215.956 29.032 215.668 28.744C215.396 28.472 215.26 28.136 215.26 27.736V21.52C215.26 21.12 215.396 20.784 215.668 20.512C215.956 20.224 216.3 20.08 216.7 20.08H223.18ZM207.556 21.4C207.828 21.4 208.052 21.504 208.228 21.712C208.404 21.904 208.476 22.128 208.444 22.384C208.364 23.168 208.22 24.056 208.012 25.048C207.804 26.024 207.564 26.936 207.292 27.784C207.1 28.264 206.756 28.504 206.26 28.504C206.02 28.504 205.82 28.432 205.66 28.288C205.516 28.144 205.444 27.968 205.444 27.76C205.444 27.712 205.444 27.664 205.444 27.616C205.46 27.568 205.476 27.52 205.492 27.472C205.812 26.624 206.068 25.76 206.26 24.88C206.452 23.984 206.604 23.072 206.716 22.144C206.748 21.92 206.844 21.744 207.004 21.616C207.164 21.472 207.348 21.4 207.556 21.4ZM212.836 22.168C212.964 22.472 213.092 22.856 213.22 23.32C213.364 23.784 213.492 24.264 213.604 24.76C213.716 25.24 213.804 25.672 213.868 26.056C213.916 26.28 213.876 26.488 213.748 26.68C213.62 26.872 213.436 27 213.196 27.064C212.988 27.128 212.796 27.096 212.62 26.968C212.444 26.824 212.34 26.648 212.308 26.44C212.212 25.832 212.06 25.176 211.852 24.472C211.66 23.752 211.452 23.192 211.228 22.792C211.164 22.68 211.132 22.552 211.132 22.408C211.132 22.056 211.292 21.816 211.612 21.688C211.74 21.64 211.86 21.616 211.972 21.616C212.388 21.616 212.676 21.8 212.836 22.168ZM217.036 27.256C217.036 27.352 217.084 27.4 217.18 27.4H222.676C222.772 27.4 222.82 27.352 222.82 27.256V22C222.82 21.904 222.772 21.856 222.676 21.856H217.18C217.084 21.856 217.036 21.904 217.036 22V27.256ZM248.764 17.848C248.028 17.512 247.228 17.08 246.364 16.552C245.5 16.008 244.628 15.416 243.748 14.776C242.884 14.136 242.084 13.512 241.348 12.904C240.612 12.28 240.012 11.72 239.548 11.224C239.5 11.144 239.436 11.144 239.356 11.224C238.94 11.736 238.396 12.296 237.724 12.904C237.052 13.496 236.308 14.096 235.492 14.704C234.692 15.296 233.868 15.856 233.02 16.384C232.188 16.912 231.388 17.352 230.62 17.704C230.556 17.72 230.492 17.744 230.428 17.776C230.38 17.792 230.324 17.8 230.26 17.8C229.876 17.8 229.604 17.616 229.444 17.248C229.396 17.12 229.372 17.008 229.372 16.912C229.372 16.544 229.548 16.264 229.9 16.072C230.924 15.592 231.972 14.984 233.044 14.248C234.116 13.496 235.124 12.704 236.068 11.872C237.028 11.024 237.844 10.216 238.516 9.448C238.74 9.176 239.044 9.04 239.428 9.04C239.796 9.04 240.1 9.168 240.34 9.424C240.82 9.92 241.404 10.472 242.092 11.08C242.78 11.688 243.524 12.304 244.324 12.928C245.14 13.552 245.972 14.136 246.82 14.68C247.684 15.224 248.524 15.68 249.34 16.048C249.756 16.224 249.964 16.536 249.964 16.984C249.964 17.256 249.876 17.48 249.7 17.656C249.54 17.832 249.348 17.92 249.124 17.92C249.012 17.92 248.892 17.896 248.764 17.848ZM242.86 29.368C242.604 29.368 242.388 29.28 242.212 29.104C242.036 28.944 241.948 28.736 241.948 28.48V17.944C241.948 17.688 242.036 17.472 242.212 17.296C242.388 17.12 242.604 17.032 242.86 17.032C243.116 17.032 243.332 17.12 243.508 17.296C243.684 17.472 243.772 17.688 243.772 17.944V28.48C243.772 28.736 243.684 28.944 243.508 29.104C243.332 29.28 243.116 29.368 242.86 29.368ZM231.22 29.248C231.172 29.264 231.124 29.272 231.076 29.272C231.028 29.288 230.98 29.296 230.932 29.296C230.708 29.296 230.508 29.208 230.332 29.032C230.156 28.872 230.068 28.672 230.068 28.432C230.068 28.032 230.252 27.752 230.62 27.592C231.34 27.272 231.964 26.888 232.492 26.44C233.02 25.992 233.46 25.424 233.812 24.736C234.18 24.032 234.468 23.136 234.676 22.048C234.884 20.96 235.012 19.608 235.06 17.992C235.076 17.736 235.172 17.528 235.348 17.368C235.524 17.192 235.74 17.104 235.996 17.104C236.236 17.104 236.444 17.192 236.62 17.368C236.796 17.528 236.884 17.736 236.884 17.992C236.836 19.816 236.676 21.376 236.404 22.672C236.132 23.952 235.748 25.024 235.252 25.888C234.772 26.752 234.188 27.448 233.5 27.976C232.828 28.504 232.068 28.928 231.22 29.248Z" fill="black"/>
<path d="M62.236 87.896C62.14 87.944 62.036 87.968 61.924 87.968C61.7 87.968 61.5 87.88 61.324 87.704C61.164 87.528 61.084 87.312 61.084 87.056C61.084 86.864 61.148 86.68 61.276 86.504C61.404 86.328 61.564 86.2 61.756 86.12C62.556 85.784 63.364 85.36 64.18 84.848C64.996 84.336 65.788 83.776 66.556 83.168C67.324 82.544 68.036 81.92 68.692 81.296C69.364 80.656 69.948 80.064 70.444 79.52C70.7 79.216 71.036 79.064 71.452 79.064C71.804 79.064 72.108 79.192 72.364 79.448C73.148 80.216 74.028 81.016 75.004 81.848C75.98 82.68 77.004 83.472 78.076 84.224C79.164 84.96 80.236 85.576 81.292 86.072C81.468 86.152 81.612 86.28 81.724 86.456C81.852 86.632 81.916 86.824 81.916 87.032C81.916 87.288 81.836 87.496 81.676 87.656C81.516 87.816 81.332 87.896 81.124 87.896C81.012 87.896 80.908 87.872 80.812 87.824C80.012 87.456 79.18 87.008 78.316 86.48C77.452 85.952 76.596 85.384 75.748 84.776C74.916 84.168 74.14 83.56 73.42 82.952C72.7 82.328 72.076 81.744 71.548 81.2C71.484 81.12 71.428 81.104 71.38 81.152C70.98 81.632 70.436 82.192 69.748 82.832C69.06 83.456 68.284 84.096 67.42 84.752C66.556 85.392 65.676 85.992 64.78 86.552C63.884 87.112 63.036 87.56 62.236 87.896ZM75.292 87.776H67.708C67.468 87.776 67.26 87.696 67.084 87.536C66.908 87.36 66.82 87.144 66.82 86.888C66.82 86.632 66.908 86.424 67.084 86.264C67.26 86.088 67.468 86 67.708 86H75.292C75.532 86 75.74 86.088 75.916 86.264C76.092 86.424 76.18 86.632 76.18 86.888C76.18 87.144 76.092 87.36 75.916 87.536C75.74 87.696 75.532 87.776 75.292 87.776ZM69.82 99.224C69.772 99.24 69.724 99.248 69.676 99.248C69.628 99.264 69.58 99.272 69.532 99.272C69.308 99.272 69.1 99.176 68.908 98.984C68.716 98.808 68.62 98.584 68.62 98.312C68.62 98.12 68.684 97.944 68.812 97.784C68.94 97.624 69.1 97.512 69.292 97.448C70.828 96.952 72.164 96.224 73.3 95.264C74.452 94.304 75.348 93.248 75.988 92.096C76.052 91.984 76.02 91.928 75.892 91.928H65.308C65.068 91.928 64.86 91.84 64.684 91.664C64.508 91.488 64.42 91.28 64.42 91.04C64.42 90.784 64.508 90.576 64.684 90.416C64.86 90.24 65.068 90.152 65.308 90.152H77.188C77.492 90.152 77.748 90.256 77.956 90.464C78.164 90.656 78.268 90.888 78.268 91.16C78.268 91.272 78.244 91.392 78.196 91.52C77.812 92.544 77.3 93.48 76.66 94.328C76.036 95.16 75.332 95.904 74.548 96.56C73.764 97.2 72.964 97.744 72.148 98.192C71.348 98.64 70.572 98.984 69.82 99.224ZM93.076 85.184C92.452 84.768 91.796 84.456 91.108 84.248C90.436 84.024 89.796 83.872 89.188 83.792C88.98 83.76 88.796 83.664 88.636 83.504C88.492 83.328 88.42 83.136 88.42 82.928C88.42 82.656 88.524 82.424 88.732 82.232C88.94 82.04 89.18 81.96 89.452 81.992C90.188 82.072 90.948 82.248 91.732 82.52C92.516 82.792 93.236 83.136 93.892 83.552C94.196 83.744 94.348 84.024 94.348 84.392C94.348 84.536 94.308 84.704 94.228 84.896C94.084 85.168 93.852 85.304 93.532 85.304C93.388 85.304 93.236 85.264 93.076 85.184ZM89.788 98.096C89.724 98.112 89.636 98.12 89.524 98.12C89.028 98.12 88.7 97.872 88.54 97.376C88.524 97.312 88.516 97.224 88.516 97.112C88.516 96.632 88.756 96.328 89.236 96.2C90.244 95.912 91.324 95.504 92.476 94.976C93.644 94.432 94.804 93.768 95.956 92.984C97.124 92.2 98.228 91.304 99.268 90.296C100.308 89.288 101.22 88.184 102.004 86.984C102.18 86.712 102.436 86.576 102.772 86.576C102.964 86.576 103.14 86.632 103.3 86.744C103.588 86.984 103.732 87.272 103.732 87.608C103.732 87.832 103.676 88.024 103.564 88.184C102.924 89.176 102.108 90.184 101.116 91.208C100.124 92.216 99.012 93.184 97.78 94.112C96.548 95.024 95.252 95.832 93.892 96.536C92.532 97.224 91.164 97.744 89.788 98.096ZM91.684 90.368C91.14 90.144 90.524 89.96 89.836 89.816C89.148 89.656 88.516 89.56 87.94 89.528C87.7 89.512 87.492 89.424 87.316 89.264C87.14 89.104 87.052 88.904 87.052 88.664C87.052 88.392 87.14 88.16 87.316 87.968C87.508 87.76 87.74 87.664 88.012 87.68C88.668 87.712 89.396 87.816 90.196 87.992C90.996 88.152 91.732 88.376 92.404 88.664C92.756 88.824 92.932 89.112 92.932 89.528C92.932 89.816 92.836 90.04 92.644 90.2C92.468 90.36 92.268 90.44 92.044 90.44C91.932 90.44 91.812 90.416 91.684 90.368ZM126.988 90.032H112.012C111.756 90.032 111.54 89.944 111.364 89.768C111.188 89.592 111.1 89.376 111.1 89.12C111.1 88.864 111.188 88.648 111.364 88.472C111.54 88.296 111.756 88.208 112.012 88.208H126.988C127.244 88.208 127.46 88.296 127.636 88.472C127.812 88.648 127.9 88.864 127.9 89.12C127.9 89.376 127.812 89.592 127.636 89.768C127.46 89.944 127.244 90.032 126.988 90.032ZM152.956 81.536C153.02 81.616 153.052 81.728 153.052 81.872C153.052 82.096 152.956 82.272 152.764 82.4C152.684 82.464 152.58 82.496 152.452 82.496C152.228 82.496 152.052 82.4 151.924 82.208C151.668 81.824 151.372 81.416 151.036 80.984C150.7 80.552 150.38 80.184 150.076 79.88C149.948 79.752 149.884 79.608 149.884 79.448C149.884 79.288 149.94 79.152 150.052 79.04C150.212 78.912 150.364 78.848 150.508 78.848C150.684 78.848 150.836 78.912 150.964 79.04C151.316 79.392 151.66 79.792 151.996 80.24C152.348 80.672 152.668 81.104 152.956 81.536ZM150.1 83.264C149.844 82.864 149.54 82.448 149.188 82.016C148.852 81.568 148.524 81.192 148.204 80.888C148.076 80.76 148.012 80.6 148.012 80.408C148.012 80.248 148.068 80.112 148.18 80C148.308 79.872 148.468 79.808 148.66 79.808C148.836 79.808 148.98 79.864 149.092 79.976C149.46 80.328 149.82 80.744 150.172 81.224C150.54 81.688 150.868 82.136 151.156 82.568C151.22 82.648 151.252 82.76 151.252 82.904C151.252 83.144 151.156 83.328 150.964 83.456C150.868 83.504 150.764 83.528 150.652 83.528C150.412 83.528 150.228 83.44 150.1 83.264ZM145.636 90.968C145.524 91.096 145.54 91.192 145.684 91.256C146.5 91.656 147.308 92.16 148.108 92.768C148.908 93.36 149.652 94 150.34 94.688C151.044 95.376 151.636 96.056 152.116 96.728C152.244 96.936 152.308 97.128 152.308 97.304C152.308 97.64 152.172 97.92 151.9 98.144C151.74 98.272 151.564 98.336 151.372 98.336C151.084 98.336 150.836 98.208 150.628 97.952C150.116 97.216 149.516 96.512 148.828 95.84C148.14 95.168 147.404 94.56 146.62 94.016C145.836 93.472 145.044 93.04 144.244 92.72C144.132 92.672 144.036 92.688 143.956 92.768C142.932 93.728 141.756 94.672 140.428 95.6C139.1 96.528 137.596 97.368 135.916 98.12C135.804 98.168 135.684 98.192 135.556 98.192C135.348 98.192 135.148 98.112 134.956 97.952C134.78 97.792 134.692 97.576 134.692 97.304C134.692 97.096 134.748 96.904 134.86 96.728C134.972 96.536 135.132 96.4 135.34 96.32C136.908 95.632 138.316 94.848 139.564 93.968C140.812 93.072 141.892 92.16 142.804 91.232C143.732 90.304 144.5 89.424 145.108 88.592C145.732 87.744 146.188 87.024 146.476 86.432C146.62 86.128 146.74 85.832 146.836 85.544C146.932 85.256 146.98 85 146.98 84.776C146.98 84.504 146.9 84.288 146.74 84.128C146.58 83.952 146.292 83.864 145.876 83.864C145.7 83.864 145.476 83.888 145.204 83.936C144.66 84.016 143.932 84.096 143.02 84.176C142.108 84.256 141.116 84.32 140.044 84.368C138.972 84.416 137.916 84.44 136.876 84.44C136.636 84.44 136.428 84.352 136.252 84.176C136.092 84 136.012 83.792 136.012 83.552C136.012 83.28 136.1 83.056 136.276 82.88C136.468 82.704 136.692 82.616 136.948 82.616H138.028C139.452 82.616 140.788 82.568 142.036 82.472C143.284 82.376 144.252 82.264 144.94 82.136C145.116 82.104 145.284 82.08 145.444 82.064C145.604 82.048 145.756 82.04 145.9 82.04C146.844 82.04 147.564 82.296 148.06 82.808C148.556 83.32 148.804 83.976 148.804 84.776C148.804 85.528 148.588 86.352 148.156 87.248C147.9 87.792 147.556 88.384 147.124 89.024C146.708 89.648 146.212 90.296 145.636 90.968ZM165.844 87.344C165.684 87.536 165.46 87.632 165.172 87.632C164.9 87.632 164.668 87.536 164.476 87.344C163.932 86.832 163.3 86.416 162.58 86.096C161.86 85.776 161.092 85.552 160.276 85.424C160.052 85.392 159.852 85.288 159.676 85.112C159.516 84.936 159.436 84.728 159.436 84.488C159.436 84.184 159.54 83.928 159.748 83.72C159.956 83.512 160.212 83.424 160.516 83.456C161.556 83.6 162.548 83.912 163.492 84.392C164.452 84.856 165.228 85.344 165.82 85.856C166.044 86.048 166.156 86.296 166.156 86.6C166.156 86.856 166.052 87.104 165.844 87.344ZM160.54 97.352C160.268 97.4 160.02 97.336 159.796 97.16C159.572 96.984 159.46 96.752 159.46 96.464C159.46 96.224 159.532 96.008 159.676 95.816C159.836 95.608 160.044 95.472 160.3 95.408C161.372 95.152 162.532 94.776 163.78 94.28C165.028 93.768 166.292 93.12 167.572 92.336C168.852 91.552 170.1 90.632 171.316 89.576C172.548 88.504 173.676 87.28 174.7 85.904C174.892 85.648 175.148 85.52 175.468 85.52C175.724 85.52 175.924 85.584 176.068 85.712C176.324 85.904 176.452 86.176 176.452 86.528C176.452 86.768 176.388 86.976 176.26 87.152C175.38 88.304 174.348 89.424 173.164 90.512C171.996 91.6 170.724 92.6 169.348 93.512C167.972 94.424 166.532 95.216 165.028 95.888C163.54 96.544 162.044 97.032 160.54 97.352ZM192.436 97.4C192.18 97.432 191.948 97.368 191.74 97.208C191.548 97.032 191.428 96.816 191.38 96.56C191.364 96.32 191.428 96.104 191.572 95.912C191.716 95.704 191.916 95.576 192.172 95.528C193.66 95.288 194.852 94.88 195.748 94.304C196.66 93.712 197.324 93.008 197.74 92.192C198.156 91.36 198.364 90.472 198.364 89.528C198.364 88.568 198.124 87.696 197.644 86.912C197.18 86.112 196.54 85.472 195.724 84.992C194.924 84.496 194.012 84.24 192.988 84.224C192.86 84.224 192.78 84.288 192.748 84.416C192.428 85.952 192.02 87.416 191.524 88.808C191.044 90.184 190.5 91.408 189.892 92.48C189.284 93.552 188.636 94.4 187.948 95.024C187.26 95.648 186.556 95.96 185.836 95.96C185.66 95.96 185.476 95.936 185.284 95.888C184.516 95.712 183.932 95.256 183.532 94.52C183.148 93.768 182.956 92.888 182.956 91.88C182.956 90.968 183.116 90.008 183.436 89C183.772 87.976 184.268 87.024 184.924 86.144C185.868 84.864 187.004 83.92 188.332 83.312C189.676 82.704 191.036 82.4 192.412 82.4C193.532 82.4 194.604 82.6 195.628 83C196.668 83.4 197.564 83.984 198.316 84.752C199.084 85.52 199.628 86.472 199.948 87.608C200.14 88.248 200.236 88.92 200.236 89.624C200.236 90.472 200.084 91.32 199.78 92.168C199.476 93 199.004 93.784 198.364 94.52C197.74 95.24 196.932 95.856 195.94 96.368C194.964 96.864 193.796 97.208 192.436 97.4ZM184.996 93.56C185.236 93.944 185.508 94.136 185.812 94.136C186.148 94.136 186.5 93.944 186.868 93.56C187.252 93.16 187.636 92.632 188.02 91.976C188.42 91.32 188.796 90.576 189.148 89.744C189.5 88.912 189.82 88.056 190.108 87.176C190.396 86.296 190.628 85.44 190.804 84.608V84.584C190.804 84.472 190.708 84.416 190.516 84.416C190.484 84.416 190.444 84.424 190.396 84.44C190.348 84.44 190.292 84.448 190.228 84.464C189.252 84.72 188.404 85.136 187.684 85.712C186.98 86.272 186.404 86.92 185.956 87.656C185.524 88.376 185.196 89.112 184.972 89.864C184.764 90.616 184.66 91.304 184.66 91.928C184.66 92.616 184.772 93.16 184.996 93.56ZM223.732 84.44C223.988 84.456 224.204 84.56 224.38 84.752C224.556 84.928 224.644 85.144 224.644 85.4C224.644 85.656 224.548 85.872 224.356 86.048C224.18 86.208 223.972 86.28 223.732 86.264C222.9 86.216 222.052 86.184 221.188 86.168C220.324 86.136 219.444 86.112 218.548 86.096C218.404 86.096 218.34 86.168 218.356 86.312C218.452 87.496 218.556 88.776 218.668 90.152C218.796 91.512 218.948 92.944 219.124 94.448C219.172 94.8 219.196 95.128 219.196 95.432C219.196 96.456 218.908 97.216 218.332 97.712C217.756 98.192 216.732 98.432 215.26 98.432C215.148 98.432 215.028 98.432 214.9 98.432C214.772 98.432 214.644 98.424 214.516 98.408C214.244 98.392 214.012 98.28 213.82 98.072C213.644 97.88 213.556 97.656 213.556 97.4C213.556 97.128 213.652 96.904 213.844 96.728C214.036 96.552 214.26 96.48 214.516 96.512C214.74 96.528 214.94 96.536 215.116 96.536C215.292 96.536 215.46 96.536 215.62 96.536C216.372 96.536 216.852 96.464 217.06 96.32C217.284 96.176 217.396 95.952 217.396 95.648C217.396 95.536 217.388 95.416 217.372 95.288C217.356 95.16 217.34 95.016 217.324 94.856C217.228 93.816 217.132 92.744 217.036 91.64C216.94 90.52 216.844 89.416 216.748 88.328C216.748 88.232 216.716 88.176 216.652 88.16C216.604 88.144 216.548 88.176 216.484 88.256C215.796 89.2 214.98 90.128 214.036 91.04C213.108 91.952 212.124 92.784 211.084 93.536C210.06 94.272 209.036 94.872 208.012 95.336C207.9 95.384 207.78 95.408 207.652 95.408C207.428 95.408 207.22 95.328 207.028 95.168C206.852 94.992 206.764 94.768 206.764 94.496C206.764 94.32 206.812 94.152 206.908 93.992C207.004 93.816 207.14 93.688 207.316 93.608C208.324 93.128 209.34 92.512 210.364 91.76C211.404 91.008 212.372 90.176 213.268 89.264C214.18 88.336 214.94 87.368 215.548 86.36C215.564 86.328 215.572 86.296 215.572 86.264C215.572 86.152 215.508 86.096 215.38 86.096C214.132 86.112 212.876 86.152 211.612 86.216C210.364 86.264 209.124 86.352 207.892 86.48C207.636 86.496 207.412 86.416 207.22 86.24C207.028 86.064 206.932 85.848 206.932 85.592C206.932 85.352 207.012 85.144 207.172 84.968C207.348 84.776 207.564 84.672 207.82 84.656C209.1 84.544 210.452 84.464 211.876 84.416C213.316 84.352 214.764 84.312 216.22 84.296C216.38 84.296 216.444 84.224 216.412 84.08L216.124 80.168C216.108 79.912 216.188 79.696 216.364 79.52C216.54 79.328 216.756 79.224 217.012 79.208C217.268 79.208 217.484 79.296 217.66 79.472C217.852 79.632 217.956 79.84 217.972 80.096C218.004 80.592 218.036 81.184 218.068 81.872C218.1 82.544 218.14 83.28 218.188 84.08C218.22 84.224 218.3 84.296 218.428 84.296C219.34 84.312 220.244 84.336 221.14 84.368C222.036 84.384 222.9 84.408 223.732 84.44ZM248.332 96.728C248.46 96.936 248.524 97.128 248.524 97.304C248.524 97.64 248.388 97.92 248.116 98.144C247.956 98.272 247.78 98.336 247.588 98.336C247.3 98.336 247.052 98.208 246.844 97.952C246.332 97.216 245.732 96.512 245.044 95.84C244.356 95.168 243.62 94.56 242.836 94.016C242.052 93.472 241.26 93.04 240.46 92.72C240.348 92.672 240.252 92.688 240.172 92.768C239.148 93.728 237.972 94.672 236.644 95.6C235.316 96.528 233.812 97.368 232.132 98.12C232.02 98.168 231.9 98.192 231.772 98.192C231.564 98.192 231.364 98.112 231.172 97.952C230.996 97.792 230.908 97.576 230.908 97.304C230.908 97.096 230.964 96.904 231.076 96.728C231.188 96.536 231.348 96.4 231.556 96.32C233.124 95.632 234.532 94.848 235.78 93.968C237.028 93.072 238.108 92.16 239.02 91.232C239.948 90.304 240.716 89.424 241.324 88.592C241.948 87.744 242.404 87.024 242.692 86.432C242.836 86.128 242.956 85.832 243.052 85.544C243.148 85.256 243.196 85 243.196 84.776C243.196 84.504 243.116 84.288 242.956 84.128C242.796 83.952 242.508 83.864 242.092 83.864C241.916 83.864 241.692 83.888 241.42 83.936C240.876 84.016 240.148 84.096 239.236 84.176C238.324 84.256 237.332 84.32 236.26 84.368C235.188 84.416 234.132 84.44 233.092 84.44C232.852 84.44 232.644 84.352 232.468 84.176C232.308 84 232.228 83.792 232.228 83.552C232.228 83.28 232.316 83.056 232.492 82.88C232.684 82.704 232.908 82.616 233.164 82.616H234.244C235.668 82.616 237.004 82.568 238.252 82.472C239.5 82.376 240.468 82.264 241.156 82.136C241.332 82.104 241.5 82.08 241.66 82.064C241.82 82.048 241.972 82.04 242.116 82.04C243.06 82.04 243.78 82.296 244.276 82.808C244.772 83.32 245.02 83.976 245.02 84.776C245.02 85.528 244.804 86.352 244.372 87.248C244.116 87.792 243.772 88.384 243.34 89.024C242.924 89.648 242.428 90.296 241.852 90.968C241.82 91 241.804 91.048 241.804 91.112C241.804 91.176 241.844 91.232 241.924 91.28C242.74 91.664 243.548 92.16 244.348 92.768C245.148 93.36 245.892 94 246.58 94.688C247.268 95.376 247.852 96.056 248.332 96.728ZM272.332 96.728C272.46 96.936 272.524 97.128 272.524 97.304C272.524 97.64 272.388 97.92 272.116 98.144C271.956 98.272 271.78 98.336 271.588 98.336C271.3 98.336 271.052 98.208 270.844 97.952C270.332 97.216 269.732 96.512 269.044 95.84C268.356 95.168 267.62 94.56 266.836 94.016C266.052 93.472 265.26 93.04 264.46 92.72C264.348 92.672 264.252 92.688 264.172 92.768C263.148 93.728 261.972 94.672 260.644 95.6C259.316 96.528 257.812 97.368 256.132 98.12C256.02 98.168 255.9 98.192 255.772 98.192C255.564 98.192 255.364 98.112 255.172 97.952C254.996 97.792 254.908 97.576 254.908 97.304C254.908 97.096 254.964 96.904 255.076 96.728C255.188 96.536 255.348 96.4 255.556 96.32C257.124 95.632 258.532 94.848 259.78 93.968C261.028 93.072 262.108 92.16 263.02 91.232C263.948 90.304 264.716 89.424 265.324 88.592C265.948 87.744 266.404 87.024 266.692 86.432C266.836 86.128 266.956 85.832 267.052 85.544C267.148 85.256 267.196 85 267.196 84.776C267.196 84.504 267.116 84.288 266.956 84.128C266.796 83.952 266.508 83.864 266.092 83.864C265.916 83.864 265.692 83.888 265.42 83.936C264.876 84.016 264.148 84.096 263.236 84.176C262.324 84.256 261.332 84.32 260.26 84.368C259.188 84.416 258.132 84.44 257.092 84.44C256.852 84.44 256.644 84.352 256.468 84.176C256.308 84 256.228 83.792 256.228 83.552C256.228 83.28 256.316 83.056 256.492 82.88C256.684 82.704 256.908 82.616 257.164 82.616H258.244C259.668 82.616 261.004 82.568 262.252 82.472C263.5 82.376 264.468 82.264 265.156 82.136C265.332 82.104 265.5 82.08 265.66 82.064C265.82 82.048 265.972 82.04 266.116 82.04C267.06 82.04 267.78 82.296 268.276 82.808C268.772 83.32 269.02 83.976 269.02 84.776C269.02 85.528 268.804 86.352 268.372 87.248C268.116 87.792 267.772 88.384 267.34 89.024C266.924 89.648 266.428 90.296 265.852 90.968C265.82 91 265.804 91.048 265.804 91.112C265.804 91.176 265.844 91.232 265.924 91.28C266.74 91.664 267.548 92.16 268.348 92.768C269.148 93.36 269.892 94 270.58 94.688C271.268 95.376 271.852 96.056 272.332 96.728ZM294.148 92.12C294.388 92.328 294.508 92.592 294.508 92.912C294.508 93.136 294.428 93.368 294.268 93.608C294.092 93.832 293.868 93.944 293.596 93.944C293.356 93.944 293.156 93.864 292.996 93.704C291.908 92.664 290.796 91.768 289.66 91.016C289.532 90.936 289.436 90.952 289.372 91.064C288.348 92.408 287.18 93.656 285.868 94.808C284.556 95.96 283.132 96.976 281.596 97.856C281.436 97.936 281.284 97.976 281.14 97.976C280.788 97.976 280.508 97.808 280.3 97.472C280.22 97.312 280.18 97.16 280.18 97.016C280.18 96.648 280.348 96.36 280.684 96.152C282.092 95.352 283.372 94.448 284.524 93.44C285.692 92.416 286.74 91.312 287.668 90.128C287.7 90.096 287.716 90.048 287.716 89.984C287.716 89.904 287.676 89.856 287.596 89.84C286.236 89.152 284.732 88.608 283.084 88.208C282.588 88.08 282.34 87.76 282.34 87.248C282.34 86.96 282.436 86.728 282.628 86.552C282.836 86.36 283.068 86.264 283.324 86.264C283.42 86.264 283.492 86.272 283.54 86.288C284.436 86.496 285.316 86.776 286.18 87.128C287.06 87.464 287.908 87.84 288.724 88.256C288.788 88.288 288.836 88.304 288.868 88.304C288.932 88.304 288.988 88.264 289.036 88.184C290.348 86.072 291.34 83.728 292.012 81.152C292.06 80.928 292.172 80.752 292.348 80.624C292.54 80.496 292.74 80.432 292.948 80.432C293.22 80.432 293.444 80.528 293.62 80.72C293.812 80.912 293.908 81.136 293.908 81.392C293.908 81.488 293.9 81.56 293.884 81.608C293.58 82.904 293.156 84.192 292.612 85.472C292.084 86.736 291.444 87.96 290.692 89.144C290.66 89.208 290.644 89.256 290.644 89.288C290.644 89.352 290.684 89.408 290.764 89.456C291.404 89.856 292.004 90.288 292.564 90.752C293.124 91.2 293.652 91.656 294.148 92.12Z" fill="black"/>
<path d="M105.028 151.008C105.092 151.088 105.124 151.2 105.124 151.344C105.124 151.568 105.028 151.744 104.836 151.872C104.756 151.936 104.652 151.968 104.524 151.968C104.3 151.968 104.124 151.872 103.996 151.68C103.756 151.296 103.468 150.888 103.132 150.456C102.796 150.024 102.468 149.656 102.148 149.352C102.036 149.24 101.98 149.096 101.98 148.92C101.98 148.744 102.036 148.608 102.148 148.512C102.276 148.384 102.436 148.32 102.628 148.32C102.788 148.32 102.924 148.376 103.036 148.488C103.404 148.84 103.756 149.24 104.092 149.688C104.444 150.136 104.756 150.576 105.028 151.008ZM102.196 152.712C101.94 152.328 101.636 151.912 101.284 151.464C100.948 151.016 100.62 150.64 100.3 150.336C100.172 150.208 100.108 150.056 100.108 149.88C100.108 149.72 100.164 149.584 100.276 149.472C100.404 149.344 100.564 149.28 100.756 149.28C100.916 149.28 101.052 149.336 101.164 149.448C101.532 149.8 101.892 150.208 102.244 150.672C102.612 151.136 102.94 151.592 103.228 152.04C103.292 152.12 103.324 152.232 103.324 152.376C103.324 152.6 103.228 152.776 103.036 152.904C102.956 152.968 102.844 153 102.7 153C102.492 153 102.324 152.904 102.196 152.712ZM102.652 158.28C102.684 158.264 102.724 158.256 102.772 158.256C102.82 158.256 102.86 158.256 102.892 158.256C103.132 158.256 103.348 158.336 103.54 158.496C103.732 158.64 103.828 158.856 103.828 159.144C103.828 159.608 103.604 159.904 103.156 160.032C102.324 160.24 101.388 160.448 100.348 160.656C99.324 160.864 98.252 161.056 97.132 161.232C96.988 161.232 96.932 161.312 96.964 161.472C97.236 162.512 97.5 163.528 97.756 164.52C98.028 165.496 98.292 166.408 98.548 167.256C98.564 167.304 98.572 167.352 98.572 167.4C98.588 167.432 98.596 167.472 98.596 167.52C98.596 167.776 98.5 168 98.308 168.192C98.132 168.384 97.908 168.48 97.636 168.48C97.204 168.48 96.916 168.272 96.772 167.856C96.5 166.96 96.22 165.992 95.932 164.952C95.66 163.912 95.388 162.84 95.116 161.736C95.084 161.592 94.996 161.536 94.852 161.568C93.716 161.76 92.62 161.936 91.564 162.096C90.524 162.24 89.636 162.4 88.9 162.576C88.644 162.624 88.396 162.568 88.156 162.408C87.932 162.232 87.82 161.992 87.82 161.688C87.82 161.464 87.892 161.272 88.036 161.112C88.18 160.936 88.356 160.824 88.564 160.776C89.364 160.6 90.268 160.432 91.276 160.272C92.3 160.112 93.356 159.952 94.444 159.792C94.572 159.776 94.628 159.696 94.612 159.552C94.484 158.912 94.348 158.288 94.204 157.68C94.076 157.072 93.956 156.48 93.844 155.904C93.812 155.744 93.724 155.68 93.58 155.712C92.668 155.84 91.78 155.968 90.916 156.096C90.068 156.208 89.284 156.336 88.564 156.48C88.308 156.528 88.06 156.464 87.82 156.288C87.596 156.112 87.484 155.872 87.484 155.568C87.484 155.344 87.556 155.152 87.7 154.992C87.844 154.816 88.028 154.704 88.252 154.656C88.956 154.528 89.732 154.408 90.58 154.296C91.428 154.168 92.308 154.04 93.22 153.912C93.348 153.896 93.404 153.816 93.388 153.672L92.836 150.576C92.804 150.304 92.868 150.056 93.028 149.832C93.204 149.608 93.444 149.496 93.748 149.496C93.972 149.496 94.172 149.576 94.348 149.736C94.54 149.88 94.66 150.064 94.708 150.288C94.788 150.704 94.868 151.176 94.948 151.704C95.044 152.232 95.148 152.8 95.26 153.408C95.292 153.568 95.38 153.632 95.524 153.6C96.356 153.472 97.172 153.344 97.972 153.216C98.788 153.072 99.556 152.928 100.276 152.784C100.564 152.72 100.82 152.784 101.044 152.976C101.268 153.152 101.38 153.4 101.38 153.72C101.38 153.928 101.316 154.12 101.188 154.296C101.06 154.456 100.884 154.552 100.66 154.584C99.956 154.728 99.188 154.872 98.356 155.016C97.54 155.144 96.708 155.272 95.86 155.4C95.732 155.416 95.676 155.496 95.692 155.64C95.804 156.216 95.924 156.808 96.052 157.416C96.196 158.024 96.332 158.64 96.46 159.264C96.476 159.408 96.58 159.464 96.772 159.432C97.876 159.272 98.932 159.096 99.94 158.904C100.964 158.712 101.868 158.504 102.652 158.28ZM116.068 168.12C115.956 168.168 115.844 168.192 115.732 168.192C115.3 168.192 115.004 167.992 114.844 167.592C114.796 167.464 114.772 167.344 114.772 167.232C114.772 166.832 114.972 166.536 115.372 166.344C117.932 165.256 119.98 163.928 121.516 162.36C123.068 160.792 124.188 158.856 124.876 156.552C124.972 156.232 125.044 155.936 125.092 155.664C125.156 155.376 125.188 155.128 125.188 154.92C125.188 154.44 125.036 154.08 124.732 153.84C124.444 153.6 123.964 153.44 123.292 153.36C122.94 153.328 122.58 153.304 122.212 153.288C121.86 153.256 121.492 153.24 121.108 153.24C119.892 153.24 118.612 153.328 117.268 153.504C115.924 153.68 114.532 153.928 113.092 154.248C112.836 154.296 112.596 154.24 112.372 154.08C112.148 153.904 112.036 153.68 112.036 153.408C112.036 153.136 112.108 152.904 112.252 152.712C112.396 152.52 112.596 152.392 112.852 152.328C113.668 152.152 114.564 152 115.54 151.872C116.516 151.744 117.508 151.648 118.516 151.584C119.524 151.504 120.468 151.464 121.348 151.464C121.764 151.464 122.164 151.48 122.548 151.512C122.932 151.528 123.284 151.552 123.604 151.584C124.532 151.696 125.244 151.92 125.74 152.256C126.236 152.592 126.58 152.992 126.772 153.456C126.98 153.92 127.084 154.408 127.084 154.92C127.084 155.288 127.044 155.664 126.964 156.048C126.884 156.416 126.796 156.76 126.7 157.08C125.916 159.64 124.66 161.816 122.932 163.608C121.204 165.4 118.916 166.904 116.068 168.12ZM150.724 161.16C150.916 161.352 151.012 161.584 151.012 161.856C151.012 162.112 150.924 162.352 150.748 162.576C150.572 162.752 150.364 162.84 150.124 162.84C149.9 162.84 149.7 162.752 149.524 162.576C148.548 161.536 147.532 160.696 146.476 160.056C145.436 159.416 144.244 158.984 142.9 158.76H142.852C142.724 158.76 142.66 158.824 142.66 158.952V167.472C142.66 167.728 142.564 167.944 142.372 168.12C142.196 168.312 141.972 168.408 141.7 168.408C141.444 168.408 141.22 168.312 141.028 168.12C140.852 167.944 140.764 167.728 140.764 167.472V151.2C140.764 150.928 140.852 150.704 141.028 150.528C141.22 150.336 141.444 150.24 141.7 150.24C141.972 150.24 142.196 150.336 142.372 150.528C142.564 150.704 142.66 150.928 142.66 151.2V156.672C142.66 156.8 142.732 156.88 142.876 156.912C143.9 157.04 144.892 157.312 145.852 157.728C146.812 158.144 147.7 158.648 148.516 159.24C149.348 159.832 150.084 160.472 150.724 161.16ZM168.436 167.4C168.18 167.432 167.948 167.368 167.74 167.208C167.548 167.032 167.428 166.816 167.38 166.56C167.364 166.32 167.428 166.104 167.572 165.912C167.716 165.704 167.916 165.576 168.172 165.528C169.66 165.288 170.852 164.88 171.748 164.304C172.66 163.712 173.324 163.008 173.74 162.192C174.156 161.36 174.364 160.472 174.364 159.528C174.364 158.568 174.124 157.696 173.644 156.912C173.18 156.112 172.54 155.472 171.724 154.992C170.924 154.496 170.012 154.24 168.988 154.224C168.86 154.224 168.78 154.288 168.748 154.416C168.428 155.952 168.02 157.416 167.524 158.808C167.044 160.184 166.5 161.408 165.892 162.48C165.284 163.552 164.636 164.4 163.948 165.024C163.26 165.648 162.556 165.96 161.836 165.96C161.66 165.96 161.476 165.936 161.284 165.888C160.516 165.712 159.932 165.256 159.532 164.52C159.148 163.768 158.956 162.888 158.956 161.88C158.956 160.968 159.116 160.008 159.436 159C159.772 157.976 160.268 157.024 160.924 156.144C161.868 154.864 163.004 153.92 164.332 153.312C165.676 152.704 167.036 152.4 168.412 152.4C169.532 152.4 170.604 152.6 171.628 153C172.668 153.4 173.564 153.984 174.316 154.752C175.084 155.52 175.628 156.472 175.948 157.608C176.14 158.248 176.236 158.92 176.236 159.624C176.236 160.472 176.084 161.32 175.78 162.168C175.476 163 175.004 163.784 174.364 164.52C173.74 165.24 172.932 165.856 171.94 166.368C170.964 166.864 169.796 167.208 168.436 167.4ZM160.996 163.56C161.236 163.944 161.508 164.136 161.812 164.136C162.148 164.136 162.5 163.944 162.868 163.56C163.252 163.16 163.636 162.632 164.02 161.976C164.42 161.32 164.796 160.576 165.148 159.744C165.5 158.912 165.82 158.056 166.108 157.176C166.396 156.296 166.628 155.44 166.804 154.608V154.584C166.804 154.472 166.708 154.416 166.516 154.416C166.484 154.416 166.444 154.424 166.396 154.44C166.348 154.44 166.292 154.448 166.228 154.464C165.252 154.72 164.404 155.136 163.684 155.712C162.98 156.272 162.404 156.92 161.956 157.656C161.524 158.376 161.196 159.112 160.972 159.864C160.764 160.616 160.66 161.304 160.66 161.928C160.66 162.616 160.772 163.16 160.996 163.56ZM199.732 154.44C199.988 154.456 200.204 154.56 200.38 154.752C200.556 154.928 200.644 155.144 200.644 155.4C200.644 155.656 200.548 155.872 200.356 156.048C200.18 156.208 199.972 156.28 199.732 156.264C198.9 156.216 198.052 156.184 197.188 156.168C196.324 156.136 195.444 156.112 194.548 156.096C194.404 156.096 194.34 156.168 194.356 156.312C194.452 157.496 194.556 158.776 194.668 160.152C194.796 161.512 194.948 162.944 195.124 164.448C195.172 164.8 195.196 165.128 195.196 165.432C195.196 166.456 194.908 167.216 194.332 167.712C193.756 168.192 192.732 168.432 191.26 168.432C191.148 168.432 191.028 168.432 190.9 168.432C190.772 168.432 190.644 168.424 190.516 168.408C190.244 168.392 190.012 168.28 189.82 168.072C189.644 167.88 189.556 167.656 189.556 167.4C189.556 167.128 189.652 166.904 189.844 166.728C190.036 166.552 190.26 166.48 190.516 166.512C190.74 166.528 190.94 166.536 191.116 166.536C191.292 166.536 191.46 166.536 191.62 166.536C192.372 166.536 192.852 166.464 193.06 166.32C193.284 166.176 193.396 165.952 193.396 165.648C193.396 165.536 193.388 165.416 193.372 165.288C193.356 165.16 193.34 165.016 193.324 164.856C193.228 163.816 193.132 162.744 193.036 161.64C192.94 160.52 192.844 159.416 192.748 158.328C192.748 158.232 192.716 158.176 192.652 158.16C192.604 158.144 192.548 158.176 192.484 158.256C191.796 159.2 190.98 160.128 190.036 161.04C189.108 161.952 188.124 162.784 187.084 163.536C186.06 164.272 185.036 164.872 184.012 165.336C183.9 165.384 183.78 165.408 183.652 165.408C183.428 165.408 183.22 165.328 183.028 165.168C182.852 164.992 182.764 164.768 182.764 164.496C182.764 164.32 182.812 164.152 182.908 163.992C183.004 163.816 183.14 163.688 183.316 163.608C184.324 163.128 185.34 162.512 186.364 161.76C187.404 161.008 188.372 160.176 189.268 159.264C190.18 158.336 190.94 157.368 191.548 156.36C191.564 156.328 191.572 156.296 191.572 156.264C191.572 156.152 191.508 156.096 191.38 156.096C190.132 156.112 188.876 156.152 187.612 156.216C186.364 156.264 185.124 156.352 183.892 156.48C183.636 156.496 183.412 156.416 183.22 156.24C183.028 156.064 182.932 155.848 182.932 155.592C182.932 155.352 183.012 155.144 183.172 154.968C183.348 154.776 183.564 154.672 183.82 154.656C185.1 154.544 186.452 154.464 187.876 154.416C189.316 154.352 190.764 154.312 192.22 154.296C192.38 154.296 192.444 154.224 192.412 154.08L192.124 150.168C192.108 149.912 192.188 149.696 192.364 149.52C192.54 149.328 192.756 149.224 193.012 149.208C193.268 149.208 193.484 149.296 193.66 149.472C193.852 149.632 193.956 149.84 193.972 150.096C194.004 150.592 194.036 151.184 194.068 151.872C194.1 152.544 194.14 153.28 194.188 154.08C194.22 154.224 194.3 154.296 194.428 154.296C195.34 154.312 196.244 154.336 197.14 154.368C198.036 154.384 198.9 154.408 199.732 154.44ZM224.332 166.728C224.46 166.936 224.524 167.128 224.524 167.304C224.524 167.64 224.388 167.92 224.116 168.144C223.956 168.272 223.78 168.336 223.588 168.336C223.3 168.336 223.052 168.208 222.844 167.952C222.332 167.216 221.732 166.512 221.044 165.84C220.356 165.168 219.62 164.56 218.836 164.016C218.052 163.472 217.26 163.04 216.46 162.72C216.348 162.672 216.252 162.688 216.172 162.768C215.148 163.728 213.972 164.672 212.644 165.6C211.316 166.528 209.812 167.368 208.132 168.12C208.02 168.168 207.9 168.192 207.772 168.192C207.564 168.192 207.364 168.112 207.172 167.952C206.996 167.792 206.908 167.576 206.908 167.304C206.908 167.096 206.964 166.904 207.076 166.728C207.188 166.536 207.348 166.4 207.556 166.32C209.124 165.632 210.532 164.848 211.78 163.968C213.028 163.072 214.108 162.16 215.02 161.232C215.948 160.304 216.716 159.424 217.324 158.592C217.948 157.744 218.404 157.024 218.692 156.432C218.836 156.128 218.956 155.832 219.052 155.544C219.148 155.256 219.196 155 219.196 154.776C219.196 154.504 219.116 154.288 218.956 154.128C218.796 153.952 218.508 153.864 218.092 153.864C217.916 153.864 217.692 153.888 217.42 153.936C216.876 154.016 216.148 154.096 215.236 154.176C214.324 154.256 213.332 154.32 212.26 154.368C211.188 154.416 210.132 154.44 209.092 154.44C208.852 154.44 208.644 154.352 208.468 154.176C208.308 154 208.228 153.792 208.228 153.552C208.228 153.28 208.316 153.056 208.492 152.88C208.684 152.704 208.908 152.616 209.164 152.616H210.244C211.668 152.616 213.004 152.568 214.252 152.472C215.5 152.376 216.468 152.264 217.156 152.136C217.332 152.104 217.5 152.08 217.66 152.064C217.82 152.048 217.972 152.04 218.116 152.04C219.06 152.04 219.78 152.296 220.276 152.808C220.772 153.32 221.02 153.976 221.02 154.776C221.02 155.528 220.804 156.352 220.372 157.248C220.116 157.792 219.772 158.384 219.34 159.024C218.924 159.648 218.428 160.296 217.852 160.968C217.82 161 217.804 161.048 217.804 161.112C217.804 161.176 217.844 161.232 217.924 161.28C218.74 161.664 219.548 162.16 220.348 162.768C221.148 163.36 221.892 164 222.58 164.688C223.268 165.376 223.852 166.056 224.332 166.728ZM248.332 166.728C248.46 166.936 248.524 167.128 248.524 167.304C248.524 167.64 248.388 167.92 248.116 168.144C247.956 168.272 247.78 168.336 247.588 168.336C247.3 168.336 247.052 168.208 246.844 167.952C246.332 167.216 245.732 166.512 245.044 165.84C244.356 165.168 243.62 164.56 242.836 164.016C242.052 163.472 241.26 163.04 240.46 162.72C240.348 162.672 240.252 162.688 240.172 162.768C239.148 163.728 237.972 164.672 236.644 165.6C235.316 166.528 233.812 167.368 232.132 168.12C232.02 168.168 231.9 168.192 231.772 168.192C231.564 168.192 231.364 168.112 231.172 167.952C230.996 167.792 230.908 167.576 230.908 167.304C230.908 167.096 230.964 166.904 231.076 166.728C231.188 166.536 231.348 166.4 231.556 166.32C233.124 165.632 234.532 164.848 235.78 163.968C237.028 163.072 238.108 162.16 239.02 161.232C239.948 160.304 240.716 159.424 241.324 158.592C241.948 157.744 242.404 157.024 242.692 156.432C242.836 156.128 242.956 155.832 243.052 155.544C243.148 155.256 243.196 155 243.196 154.776C243.196 154.504 243.116 154.288 242.956 154.128C242.796 153.952 242.508 153.864 242.092 153.864C241.916 153.864 241.692 153.888 241.42 153.936C240.876 154.016 240.148 154.096 239.236 154.176C238.324 154.256 237.332 154.32 236.26 154.368C235.188 154.416 234.132 154.44 233.092 154.44C232.852 154.44 232.644 154.352 232.468 154.176C232.308 154 232.228 153.792 232.228 153.552C232.228 153.28 232.316 153.056 232.492 152.88C232.684 152.704 232.908 152.616 233.164 152.616H234.244C235.668 152.616 237.004 152.568 238.252 152.472C239.5 152.376 240.468 152.264 241.156 152.136C241.332 152.104 241.5 152.08 241.66 152.064C241.82 152.048 241.972 152.04 242.116 152.04C243.06 152.04 243.78 152.296 244.276 152.808C244.772 153.32 245.02 153.976 245.02 154.776C245.02 155.528 244.804 156.352 244.372 157.248C244.116 157.792 243.772 158.384 243.34 159.024C242.924 159.648 242.428 160.296 241.852 160.968C241.82 161 241.804 161.048 241.804 161.112C241.804 161.176 241.844 161.232 241.924 161.28C242.74 161.664 243.548 162.16 244.348 162.768C245.148 163.36 245.892 164 246.58 164.688C247.268 165.376 247.852 166.056 248.332 166.728ZM270.148 162.12C270.388 162.328 270.508 162.592 270.508 162.912C270.508 163.136 270.428 163.368 270.268 163.608C270.092 163.832 269.868 163.944 269.596 163.944C269.356 163.944 269.156 163.864 268.996 163.704C267.908 162.664 266.796 161.768 265.66 161.016C265.532 160.936 265.436 160.952 265.372 161.064C264.348 162.408 263.18 163.656 261.868 164.808C260.556 165.96 259.132 166.976 257.596 167.856C257.436 167.936 257.284 167.976 257.14 167.976C256.788 167.976 256.508 167.808 256.3 167.472C256.22 167.312 256.18 167.16 256.18 167.016C256.18 166.648 256.348 166.36 256.684 166.152C258.092 165.352 259.372 164.448 260.524 163.44C261.692 162.416 262.74 161.312 263.668 160.128C263.7 160.096 263.716 160.048 263.716 159.984C263.716 159.904 263.676 159.856 263.596 159.84C262.236 159.152 260.732 158.608 259.084 158.208C258.588 158.08 258.34 157.76 258.34 157.248C258.34 156.96 258.436 156.728 258.628 156.552C258.836 156.36 259.068 156.264 259.324 156.264C259.42 156.264 259.492 156.272 259.54 156.288C260.436 156.496 261.316 156.776 262.18 157.128C263.06 157.464 263.908 157.84 264.724 158.256C264.788 158.288 264.836 158.304 264.868 158.304C264.932 158.304 264.988 158.264 265.036 158.184C266.348 156.072 267.34 153.728 268.012 151.152C268.06 150.928 268.172 150.752 268.348 150.624C268.54 150.496 268.74 150.432 268.948 150.432C269.22 150.432 269.444 150.528 269.62 150.72C269.812 150.912 269.908 151.136 269.908 151.392C269.908 151.488 269.9 151.56 269.884 151.608C269.58 152.904 269.156 154.192 268.612 155.472C268.084 156.736 267.444 157.96 266.692 159.144C266.66 159.208 266.644 159.256 266.644 159.288C266.644 159.352 266.684 159.408 266.764 159.456C267.404 159.856 268.004 160.288 268.564 160.752C269.124 161.2 269.652 161.656 270.148 162.12Z" fill="black"/>
<path d="M124.516 228.592C125.428 228.832 126.172 229.216 126.748 229.744C127.34 230.256 127.78 230.84 128.068 231.496C128.356 232.152 128.5 232.824 128.5 233.512C128.5 234.328 128.3 235.112 127.9 235.864C127.516 236.6 126.948 237.2 126.196 237.664C125.444 238.128 124.508 238.36 123.388 238.36C122.7 238.36 122.044 238.256 121.42 238.048C120.812 237.856 120.268 237.504 119.788 236.992C119.644 236.816 119.572 236.632 119.572 236.44C119.572 236.168 119.692 235.928 119.932 235.72C120.108 235.576 120.3 235.504 120.508 235.504C120.748 235.504 120.972 235.584 121.18 235.744C121.532 236.032 121.9 236.248 122.284 236.392C122.668 236.52 123.052 236.584 123.436 236.584C124.012 236.584 124.548 236.456 125.044 236.2C125.556 235.928 125.964 235.576 126.268 235.144C126.572 234.696 126.724 234.208 126.724 233.68C126.724 233.6 126.724 233.528 126.724 233.464C126.724 233.4 126.716 233.336 126.7 233.272C126.508 232.2 126.012 231.392 125.212 230.848C124.428 230.288 123.452 230.008 122.284 230.008C121.596 230.008 120.852 230.112 120.052 230.32C119.268 230.528 118.46 230.84 117.628 231.256C117.516 231.304 117.46 231.384 117.46 231.496C117.476 232.296 117.468 233.096 117.436 233.896C117.404 234.696 117.348 235.48 117.268 236.248C117.188 236.856 116.996 237.36 116.692 237.76C116.404 238.144 115.94 238.336 115.3 238.336C115.092 238.336 114.844 238.304 114.556 238.24C114.284 238.192 113.988 238.104 113.668 237.976C112.916 237.656 112.268 237.296 111.724 236.896C111.196 236.48 110.932 235.984 110.932 235.408C110.932 235.024 111.076 234.6 111.364 234.136C111.652 233.672 112.116 233.144 112.756 232.552C113.204 232.152 113.652 231.776 114.1 231.424C114.564 231.072 115.036 230.752 115.516 230.464C115.612 230.384 115.66 230.296 115.66 230.2C115.644 229.512 115.612 228.848 115.564 228.208C115.532 227.568 115.492 226.928 115.444 226.288C115.428 226.16 115.348 226.104 115.204 226.12C114.532 226.248 113.852 226.352 113.164 226.432C112.476 226.512 111.78 226.568 111.076 226.6C110.82 226.616 110.604 226.536 110.428 226.36C110.268 226.168 110.188 225.944 110.188 225.688C110.188 225.464 110.268 225.272 110.428 225.112C110.604 224.936 110.812 224.84 111.052 224.824C111.74 224.792 112.412 224.736 113.068 224.656C113.724 224.576 114.372 224.48 115.012 224.368C115.172 224.336 115.236 224.248 115.204 224.104C115.012 222.728 114.78 221.536 114.508 220.528C114.492 220.48 114.476 220.44 114.46 220.408C114.46 220.36 114.46 220.32 114.46 220.288C114.46 220.048 114.54 219.848 114.7 219.688C114.876 219.512 115.092 219.424 115.348 219.424C115.556 219.424 115.74 219.488 115.9 219.616C116.076 219.728 116.188 219.896 116.236 220.12C116.476 221.096 116.708 222.28 116.932 223.672C116.932 223.832 117.012 223.896 117.172 223.864C117.556 223.752 117.932 223.64 118.3 223.528C118.668 223.4 119.02 223.264 119.356 223.12C119.484 223.072 119.596 223.048 119.692 223.048C120.108 223.048 120.388 223.224 120.532 223.576C120.596 223.688 120.628 223.816 120.628 223.96C120.628 224.344 120.452 224.6 120.1 224.728C119.668 224.904 119.22 225.072 118.756 225.232C118.308 225.376 117.836 225.512 117.34 225.64C117.196 225.672 117.14 225.752 117.172 225.88C117.22 226.408 117.26 226.952 117.292 227.512C117.34 228.056 117.38 228.608 117.412 229.168C117.412 229.344 117.508 229.392 117.7 229.312C118.468 228.992 119.236 228.744 120.004 228.568C120.788 228.392 121.548 228.304 122.284 228.304C123.052 228.304 123.796 228.4 124.516 228.592ZM129.124 226.024C129.364 226.216 129.484 226.456 129.484 226.744C129.484 226.952 129.42 227.144 129.292 227.32C129.116 227.544 128.884 227.656 128.596 227.656C128.404 227.656 128.228 227.6 128.068 227.488C127.492 227.072 126.82 226.728 126.052 226.456C125.284 226.168 124.452 225.984 123.556 225.904C123.332 225.888 123.132 225.8 122.956 225.64C122.796 225.464 122.716 225.256 122.716 225.016C122.716 224.744 122.812 224.52 123.004 224.344C123.196 224.168 123.42 224.096 123.676 224.128C124.7 224.192 125.676 224.392 126.604 224.728C127.548 225.048 128.388 225.48 129.124 226.024ZM113.332 235.888C113.844 236.144 114.236 236.344 114.508 236.488C114.796 236.616 115.012 236.68 115.156 236.68C115.316 236.68 115.412 236.6 115.444 236.44C115.492 236.28 115.524 236.048 115.54 235.744C115.572 235.44 115.596 235.008 115.612 234.448C115.628 233.888 115.644 233.336 115.66 232.792C115.66 232.696 115.636 232.632 115.588 232.6C115.54 232.568 115.476 232.584 115.396 232.648C114.58 233.224 113.9 233.792 113.356 234.352C112.956 234.768 112.756 235.088 112.756 235.312C112.756 235.44 112.812 235.552 112.924 235.648C113.036 235.728 113.172 235.808 113.332 235.888ZM142.516 220.6V225.928C142.516 226.328 142.38 226.672 142.108 226.96C141.836 227.232 141.492 227.368 141.076 227.368H136.084C135.988 227.368 135.94 227.416 135.94 227.512V238.504C135.94 238.744 135.852 238.944 135.676 239.104C135.516 239.28 135.316 239.368 135.076 239.368C134.82 239.368 134.604 239.28 134.428 239.104C134.268 238.944 134.188 238.744 134.188 238.504V220.6C134.188 220.2 134.324 219.864 134.596 219.592C134.884 219.304 135.228 219.16 135.628 219.16H141.076C141.492 219.16 141.836 219.304 142.108 219.592C142.38 219.864 142.516 220.2 142.516 220.6ZM145.924 219.16H151.372C151.772 219.16 152.108 219.304 152.38 219.592C152.668 219.864 152.812 220.2 152.812 220.6V236.848C152.812 237.344 152.716 237.792 152.524 238.192C152.332 238.608 151.964 238.928 151.42 239.152C150.892 239.392 150.124 239.488 149.116 239.44C148.86 239.424 148.644 239.32 148.468 239.128C148.308 238.952 148.228 238.736 148.228 238.48C148.244 238.24 148.34 238.04 148.516 237.88C148.692 237.704 148.9 237.624 149.14 237.64C149.78 237.656 150.228 237.64 150.484 237.592C150.756 237.544 150.916 237.456 150.964 237.328C151.028 237.2 151.06 237.04 151.06 236.848V227.512C151.06 227.416 151.012 227.368 150.916 227.368H145.924C145.524 227.368 145.18 227.232 144.892 226.96C144.62 226.672 144.484 226.328 144.484 225.928V220.6C144.484 220.2 144.62 219.864 144.892 219.592C145.18 219.304 145.524 219.16 145.924 219.16ZM140.692 222.424C140.788 222.424 140.836 222.376 140.836 222.28V221.008C140.836 220.912 140.788 220.864 140.692 220.864H136.084C135.988 220.864 135.94 220.912 135.94 221.008V222.28C135.94 222.376 135.988 222.424 136.084 222.424H140.692ZM150.916 222.424C151.012 222.424 151.06 222.376 151.06 222.28V221.008C151.06 220.912 151.012 220.864 150.916 220.864H146.308C146.212 220.864 146.164 220.912 146.164 221.008V222.28C146.164 222.376 146.212 222.424 146.308 222.424H150.916ZM136.084 224.104C135.988 224.104 135.94 224.152 135.94 224.248V225.544C135.94 225.64 135.988 225.688 136.084 225.688H140.692C140.788 225.688 140.836 225.64 140.836 225.544V224.248C140.836 224.152 140.788 224.104 140.692 224.104H136.084ZM146.308 224.104C146.212 224.104 146.164 224.152 146.164 224.248V225.544C146.164 225.64 146.212 225.688 146.308 225.688H150.916C151.012 225.688 151.06 225.64 151.06 225.544V224.248C151.06 224.152 151.012 224.104 150.916 224.104H146.308ZM140.956 229.288H146.044C146.444 229.288 146.78 229.432 147.052 229.72C147.34 229.992 147.484 230.328 147.484 230.728V235.144C147.484 235.544 147.34 235.888 147.052 236.176C146.78 236.448 146.444 236.584 146.044 236.584H140.956C140.556 236.584 140.212 236.448 139.924 236.176C139.652 235.888 139.516 235.544 139.516 235.144V230.728C139.516 230.328 139.652 229.992 139.924 229.72C140.212 229.432 140.556 229.288 140.956 229.288ZM141.244 234.736C141.244 234.832 141.292 234.88 141.388 234.88H145.612C145.708 234.88 145.756 234.832 145.756 234.736V231.136C145.756 231.04 145.708 230.992 145.612 230.992H141.388C141.292 230.992 141.244 231.04 141.244 231.136V234.736ZM164.068 236.632C163.412 236.632 162.764 236.416 162.124 235.984C161.5 235.536 160.932 234.92 160.42 234.136C159.924 233.352 159.524 232.448 159.22 231.424C158.916 230.384 158.764 229.272 158.764 228.088C158.764 227.272 158.844 226.44 159.004 225.592C159.18 224.728 159.452 223.856 159.82 222.976C159.964 222.624 160.244 222.448 160.66 222.448C160.932 222.448 161.148 222.544 161.308 222.736C161.468 222.928 161.548 223.136 161.548 223.36C161.548 223.472 161.524 223.592 161.476 223.72C161.124 224.504 160.868 225.272 160.708 226.024C160.564 226.776 160.492 227.504 160.492 228.208C160.492 229.152 160.604 230.032 160.828 230.848C161.052 231.648 161.34 232.352 161.692 232.96C162.06 233.552 162.452 234.016 162.868 234.352C163.284 234.672 163.684 234.832 164.068 234.832C164.388 234.832 164.676 234.704 164.932 234.448C165.188 234.176 165.372 233.768 165.484 233.224C165.532 232.984 165.644 232.784 165.82 232.624C166.012 232.464 166.228 232.384 166.468 232.384C166.74 232.384 166.964 232.496 167.14 232.72C167.332 232.928 167.396 233.168 167.332 233.44C167.076 234.592 166.66 235.416 166.084 235.912C165.524 236.392 164.852 236.632 164.068 236.632ZM175.468 232.096C175.148 232.096 174.892 231.984 174.7 231.76C174.524 231.52 174.436 231.248 174.436 230.944C174.436 229.808 174.14 228.808 173.548 227.944C172.956 227.064 172.044 226.456 170.812 226.12C170.556 226.04 170.348 225.896 170.188 225.688C170.044 225.464 170.004 225.224 170.068 224.968C170.132 224.728 170.252 224.536 170.428 224.392C170.62 224.248 170.82 224.176 171.028 224.176C171.06 224.176 171.1 224.176 171.148 224.176C171.196 224.176 171.236 224.184 171.268 224.2C172.212 224.44 173.084 224.896 173.884 225.568C174.7 226.224 175.348 227.04 175.828 228.016C176.308 228.992 176.5 230.08 176.404 231.28C176.388 231.52 176.284 231.72 176.092 231.88C175.916 232.024 175.708 232.096 175.468 232.096ZM182.212 228.376C182.116 228.424 182.012 228.448 181.9 228.448C181.692 228.448 181.5 228.36 181.324 228.184C181.164 228.008 181.084 227.8 181.084 227.56C181.084 227.368 181.14 227.184 181.252 227.008C181.38 226.816 181.54 226.68 181.732 226.6C182.5 226.232 183.292 225.776 184.108 225.232C184.924 224.672 185.724 224.072 186.508 223.432C187.292 222.776 188.02 222.112 188.692 221.44C189.38 220.768 189.972 220.136 190.468 219.544C190.708 219.256 191.028 219.112 191.428 219.112C191.764 219.112 192.052 219.232 192.292 219.472C192.804 220 193.396 220.584 194.068 221.224C194.756 221.848 195.5 222.488 196.3 223.144C197.1 223.784 197.924 224.4 198.772 224.992C199.636 225.568 200.492 226.072 201.34 226.504C201.74 226.712 201.94 227.04 201.94 227.488C201.94 227.744 201.86 227.952 201.7 228.112C201.54 228.272 201.356 228.352 201.148 228.352C201.052 228.352 200.94 228.328 200.812 228.28C200.108 227.944 199.34 227.512 198.508 226.984C197.676 226.44 196.836 225.848 195.988 225.208C195.14 224.552 194.332 223.888 193.564 223.216C192.796 222.528 192.124 221.872 191.548 221.248C191.484 221.152 191.42 221.152 191.356 221.248C190.828 221.904 190.18 222.584 189.412 223.288C188.66 223.992 187.86 224.672 187.012 225.328C186.164 225.984 185.324 226.576 184.492 227.104C183.66 227.632 182.9 228.056 182.212 228.376ZM195.988 228.136H187.012C186.756 228.136 186.54 228.048 186.364 227.872C186.204 227.696 186.124 227.488 186.124 227.248C186.124 227.008 186.204 226.8 186.364 226.624C186.54 226.448 186.756 226.36 187.012 226.36H195.988C196.244 226.36 196.452 226.448 196.612 226.624C196.788 226.8 196.876 227.008 196.876 227.248C196.876 227.488 196.788 227.696 196.612 227.872C196.452 228.048 196.244 228.136 195.988 228.136ZM196.756 239.056H186.244C185.844 239.056 185.5 238.912 185.212 238.624C184.94 238.352 184.804 238.016 184.804 237.616V231.784C184.804 231.384 184.94 231.048 185.212 230.776C185.5 230.488 185.844 230.344 186.244 230.344H196.756C197.156 230.344 197.492 230.488 197.764 230.776C198.052 231.048 198.196 231.384 198.196 231.784V237.616C198.196 238.016 198.052 238.352 197.764 238.624C197.492 238.912 197.156 239.056 196.756 239.056ZM186.748 232.12C186.652 232.12 186.604 232.168 186.604 232.264V237.16C186.604 237.256 186.652 237.304 186.748 237.304H196.252C196.348 237.304 196.396 237.256 196.396 237.16V232.264C196.396 232.168 196.348 232.12 196.252 232.12H186.748ZM224.14 227.872C224.38 228.224 224.572 228.648 224.716 229.144C224.876 229.64 224.956 230.184 224.956 230.776C224.956 231.4 224.844 232.04 224.62 232.696C224.396 233.352 224.012 234 223.468 234.64C222.94 235.264 222.22 235.84 221.308 236.368C220.412 236.896 219.292 237.328 217.948 237.664C217.9 237.68 217.828 237.688 217.732 237.688C217.524 237.688 217.324 237.608 217.132 237.448C216.956 237.272 216.868 237.056 216.868 236.8C216.868 236.592 216.932 236.408 217.06 236.248C217.204 236.072 217.38 235.96 217.588 235.912C218.212 235.752 218.844 235.528 219.484 235.24C220.14 234.952 220.748 234.6 221.308 234.184C221.868 233.768 222.316 233.288 222.652 232.744C223.004 232.184 223.18 231.56 223.18 230.872C223.18 230.632 223.156 230.384 223.108 230.128C222.916 229.136 222.476 228.376 221.788 227.848C221.1 227.304 220.252 227.032 219.244 227.032C218.412 227.032 217.492 227.224 216.484 227.608C215.492 227.976 214.452 228.56 213.364 229.36C213.268 229.424 213.22 229.512 213.22 229.624C213.236 231.032 213.26 232.408 213.292 233.752C213.324 235.096 213.364 236.312 213.412 237.4C213.428 237.656 213.348 237.88 213.172 238.072C212.996 238.28 212.772 238.384 212.5 238.384C212.26 238.384 212.052 238.296 211.876 238.12C211.7 237.96 211.604 237.76 211.588 237.52C211.54 236.64 211.5 235.672 211.468 234.616C211.452 233.56 211.436 232.472 211.42 231.352C211.42 231.256 211.396 231.2 211.348 231.184C211.3 231.152 211.236 231.168 211.156 231.232C210.9 231.488 210.644 231.752 210.388 232.024C210.148 232.28 209.9 232.56 209.644 232.864C209.58 232.928 209.532 232.992 209.5 233.056C209.292 233.376 209.084 233.696 208.876 234.016C208.668 234.32 208.452 234.616 208.228 234.904C208.068 235.128 207.844 235.24 207.556 235.24C207.332 235.24 207.148 235.176 207.004 235.048C206.78 234.872 206.668 234.656 206.668 234.4C206.668 234.176 206.74 233.984 206.884 233.824C207.38 233.184 207.892 232.456 208.42 231.64C208.964 230.824 209.484 230.008 209.98 229.192C210.492 228.376 210.94 227.664 211.324 227.056C211.372 226.96 211.396 226.872 211.396 226.792V226.336C211.396 226.144 211.316 226.088 211.156 226.168C210.58 226.36 209.964 226.52 209.308 226.648C208.668 226.76 207.924 226.832 207.076 226.864C206.82 226.88 206.604 226.808 206.428 226.648C206.268 226.472 206.188 226.256 206.188 226C206.188 225.76 206.268 225.552 206.428 225.376C206.604 225.2 206.812 225.104 207.052 225.088C207.948 225.04 208.716 224.944 209.356 224.8C210.012 224.64 210.636 224.448 211.228 224.224C211.34 224.176 211.396 224.088 211.396 223.96C211.412 223.176 211.428 222.448 211.444 221.776C211.46 221.104 211.476 220.52 211.492 220.024C211.508 219.784 211.604 219.584 211.78 219.424C211.956 219.264 212.164 219.184 212.404 219.184C212.676 219.184 212.9 219.28 213.076 219.472C213.252 219.664 213.332 219.896 213.316 220.168C213.268 221.032 213.244 222.152 213.244 223.528C213.244 223.64 213.308 223.72 213.436 223.768C213.756 223.88 213.996 224.072 214.156 224.344C214.332 224.616 214.42 224.912 214.42 225.232C214.42 225.696 214.252 226.112 213.916 226.48C213.82 226.576 213.724 226.688 213.628 226.816C213.532 226.928 213.428 227.048 213.316 227.176C213.252 227.256 213.22 227.312 213.22 227.344C213.22 227.376 213.324 227.328 213.532 227.2C214.524 226.592 215.508 226.12 216.484 225.784C217.46 225.448 218.388 225.28 219.268 225.28C220.228 225.28 221.124 225.488 221.956 225.904C222.788 226.32 223.516 226.976 224.14 227.872ZM248.044 224.656C248.268 224.672 248.46 224.768 248.62 224.944C248.78 225.104 248.86 225.296 248.86 225.52C248.86 225.776 248.772 225.992 248.596 226.168C248.42 226.344 248.196 226.432 247.924 226.432C247.348 226.416 246.748 226.424 246.124 226.456C245.516 226.472 244.892 226.504 244.252 226.552C244.108 226.568 244.036 226.648 244.036 226.792C244.068 227.464 244.084 228.072 244.084 228.616C244.1 229.16 244.108 229.56 244.108 229.816C244.108 230.888 243.868 231.752 243.388 232.408C242.908 233.064 242.124 233.392 241.036 233.392C240.492 233.392 239.9 233.312 239.26 233.152C238.844 233.024 238.636 232.744 238.636 232.312C238.636 232.04 238.732 231.816 238.924 231.64C239.116 231.464 239.34 231.376 239.596 231.376C239.628 231.376 239.668 231.376 239.716 231.376C239.764 231.376 239.804 231.384 239.836 231.4C240.284 231.512 240.676 231.568 241.012 231.568C241.588 231.568 241.94 231.4 242.068 231.064C242.212 230.712 242.284 230.28 242.284 229.768C242.284 229.528 242.276 229.16 242.26 228.664C242.26 228.168 242.244 227.608 242.212 226.984C242.212 226.808 242.14 226.736 241.996 226.768C241.116 226.864 240.22 226.968 239.308 227.08C238.412 227.176 237.5 227.272 236.572 227.368C236.428 227.384 236.356 227.464 236.356 227.608V233.392C236.356 234.192 236.428 234.824 236.572 235.288C236.732 235.752 237.036 236.08 237.484 236.272C237.932 236.464 238.58 236.56 239.428 236.56C240.116 236.56 240.956 236.512 241.948 236.416C242.94 236.32 244.124 236.192 245.5 236.032C245.772 236 246.004 236.072 246.196 236.248C246.388 236.424 246.484 236.648 246.484 236.92C246.484 237.176 246.396 237.4 246.22 237.592C246.06 237.768 245.86 237.872 245.62 237.904C244.276 238.032 243.1 238.136 242.092 238.216C241.084 238.312 240.204 238.36 239.452 238.36C238.62 238.36 237.924 238.288 237.364 238.144C236.804 238.016 236.34 237.8 235.972 237.496C235.332 236.936 234.932 236.248 234.772 235.432C234.628 234.616 234.556 233.696 234.556 232.672V227.752C234.556 227.592 234.484 227.528 234.34 227.56C233.764 227.592 233.188 227.624 232.612 227.656C232.052 227.672 231.492 227.672 230.932 227.656C230.708 227.64 230.508 227.552 230.332 227.392C230.172 227.216 230.092 227.016 230.092 226.792C230.092 226.536 230.18 226.32 230.356 226.144C230.532 225.968 230.748 225.88 231.004 225.88C231.58 225.896 232.14 225.896 232.684 225.88C233.244 225.848 233.796 225.824 234.34 225.808C234.484 225.776 234.556 225.696 234.556 225.568V221.368C234.556 221.112 234.644 220.896 234.82 220.72C234.996 220.544 235.204 220.456 235.444 220.456C235.7 220.456 235.916 220.544 236.092 220.72C236.268 220.896 236.356 221.112 236.356 221.368V225.424C236.356 225.568 236.428 225.632 236.572 225.616C237.516 225.52 238.428 225.424 239.308 225.328C240.204 225.216 241.092 225.112 241.972 225.016C242.116 224.984 242.188 224.904 242.188 224.776C242.172 223.944 242.148 223.144 242.116 222.376C242.084 221.608 242.06 220.976 242.044 220.48C242.044 220.208 242.132 219.984 242.308 219.808C242.5 219.632 242.724 219.544 242.98 219.544C243.22 219.544 243.428 219.632 243.604 219.808C243.78 219.984 243.868 220.192 243.868 220.432L243.988 224.584C243.988 224.728 244.06 224.792 244.204 224.776C244.844 224.728 245.484 224.696 246.124 224.68C246.764 224.648 247.404 224.64 248.044 224.656Z" fill="black"/>
<path d="M126.724 301.16C126.916 301.352 127.012 301.584 127.012 301.856C127.012 302.112 126.924 302.352 126.748 302.576C126.572 302.752 126.364 302.84 126.124 302.84C125.9 302.84 125.7 302.752 125.524 302.576C124.548 301.536 123.532 300.696 122.476 300.056C121.436 299.416 120.244 298.984 118.9 298.76H118.852C118.724 298.76 118.66 298.824 118.66 298.952V307.472C118.66 307.728 118.564 307.944 118.372 308.12C118.196 308.312 117.972 308.408 117.7 308.408C117.444 308.408 117.22 308.312 117.028 308.12C116.852 307.944 116.764 307.728 116.764 307.472V291.2C116.764 290.928 116.852 290.704 117.028 290.528C117.22 290.336 117.444 290.24 117.7 290.24C117.972 290.24 118.196 290.336 118.372 290.528C118.564 290.704 118.66 290.928 118.66 291.2V296.672C118.66 296.8 118.732 296.88 118.876 296.912C119.9 297.04 120.892 297.312 121.852 297.728C122.812 298.144 123.7 298.648 124.516 299.24C125.348 299.832 126.084 300.472 126.724 301.16ZM141.82 308.528C141.724 308.576 141.612 308.6 141.484 308.6C141.276 308.6 141.084 308.52 140.908 308.36C140.732 308.2 140.644 307.984 140.644 307.712C140.644 307.312 140.836 307.024 141.22 306.848C142.5 306.272 143.572 305.544 144.436 304.664C145.3 303.768 145.996 302.792 146.524 301.736C147.052 300.68 147.452 299.624 147.724 298.568C148.012 297.512 148.204 296.528 148.3 295.616C148.332 295.392 148.42 295.216 148.564 295.088C148.724 294.96 148.9 294.896 149.092 294.896C149.396 294.896 149.636 295.016 149.812 295.256C149.988 295.48 150.06 295.728 150.028 296C149.66 299.136 148.756 301.768 147.316 303.896C145.892 306.024 144.06 307.568 141.82 308.528ZM142.636 300.176C142.284 300.176 142.044 300.016 141.916 299.696C141.708 299.152 141.508 298.544 141.316 297.872C141.14 297.184 141.004 296.512 140.908 295.856C140.876 295.616 140.94 295.4 141.1 295.208C141.26 295.016 141.468 294.92 141.724 294.92C141.916 294.92 142.092 294.984 142.252 295.112C142.412 295.24 142.5 295.408 142.516 295.616C142.612 296.208 142.74 296.8 142.9 297.392C143.076 297.984 143.244 298.504 143.404 298.952C143.452 299.064 143.476 299.184 143.476 299.312C143.476 299.52 143.404 299.72 143.26 299.912C143.116 300.088 142.908 300.176 142.636 300.176ZM139.54 301.352C139.428 301.416 139.292 301.448 139.132 301.448C139.004 301.448 138.876 301.416 138.748 301.352C138.62 301.272 138.524 301.168 138.46 301.04C138.188 300.464 137.924 299.816 137.668 299.096C137.412 298.36 137.212 297.688 137.068 297.08C137.02 296.824 137.076 296.6 137.236 296.408C137.412 296.2 137.628 296.096 137.884 296.096C138.316 296.096 138.588 296.32 138.7 296.768C138.828 297.296 138.996 297.88 139.204 298.52C139.428 299.144 139.652 299.712 139.876 300.224C139.908 300.288 139.932 300.352 139.948 300.416C139.964 300.48 139.972 300.544 139.972 300.608C139.972 300.944 139.828 301.192 139.54 301.352ZM175.972 293.144C175.284 293.144 174.684 292.896 174.172 292.4C173.676 291.888 173.428 291.288 173.428 290.6C173.428 289.896 173.676 289.296 174.172 288.8C174.684 288.304 175.284 288.056 175.972 288.056C176.676 288.056 177.276 288.304 177.772 288.8C178.268 289.296 178.516 289.896 178.516 290.6C178.516 291.288 178.268 291.888 177.772 292.4C177.276 292.896 176.676 293.144 175.972 293.144ZM175.972 292.184C176.42 292.184 176.796 292.032 177.1 291.728C177.404 291.408 177.556 291.032 177.556 290.6C177.556 290.152 177.404 289.776 177.1 289.472C176.796 289.168 176.42 289.016 175.972 289.016C175.54 289.016 175.164 289.168 174.844 289.472C174.54 289.776 174.388 290.152 174.388 290.6C174.388 291.032 174.54 291.408 174.844 291.728C175.164 292.032 175.54 292.184 175.972 292.184ZM163.228 308.192C163.116 308.24 163.004 308.264 162.892 308.264C162.46 308.264 162.164 308.064 162.004 307.664C161.956 307.536 161.932 307.416 161.932 307.304C161.932 306.904 162.132 306.608 162.532 306.416C165.092 305.328 167.14 304 168.676 302.432C170.228 300.864 171.348 298.928 172.036 296.624C172.132 296.304 172.204 296.008 172.252 295.736C172.316 295.448 172.348 295.2 172.348 294.992C172.348 294.512 172.196 294.152 171.892 293.912C171.604 293.672 171.124 293.512 170.452 293.432C170.1 293.4 169.74 293.376 169.372 293.36C169.02 293.328 168.652 293.312 168.268 293.312C167.052 293.312 165.772 293.4 164.428 293.576C163.084 293.752 161.692 294 160.252 294.32C159.996 294.368 159.756 294.312 159.532 294.152C159.308 293.976 159.196 293.752 159.196 293.48C159.196 293.208 159.268 292.976 159.412 292.784C159.556 292.592 159.756 292.464 160.012 292.4C160.828 292.224 161.724 292.072 162.7 291.944C163.676 291.816 164.668 291.72 165.676 291.656C166.684 291.576 167.628 291.536 168.508 291.536C168.924 291.536 169.324 291.552 169.708 291.584C170.092 291.6 170.444 291.624 170.764 291.656C171.692 291.768 172.404 291.992 172.9 292.328C173.396 292.664 173.74 293.064 173.932 293.528C174.14 293.992 174.244 294.48 174.244 294.992C174.244 295.36 174.204 295.736 174.124 296.12C174.044 296.488 173.956 296.832 173.86 297.152C173.076 299.712 171.82 301.888 170.092 303.68C168.364 305.472 166.076 306.976 163.228 308.192ZM185.26 307.664C184.796 307.664 184.5 307.456 184.372 307.04C184.036 306 183.788 304.84 183.628 303.56C183.468 302.264 183.388 300.952 183.388 299.624C183.388 298.2 183.476 296.8 183.652 295.424C183.828 294.032 184.092 292.8 184.444 291.728C184.604 291.296 184.924 291.08 185.404 291.08C185.676 291.08 185.884 291.168 186.028 291.344C186.188 291.52 186.268 291.72 186.268 291.944C186.268 291.992 186.26 292.04 186.244 292.088C186.244 292.12 186.236 292.16 186.22 292.208C185.9 293.232 185.66 294.384 185.5 295.664C185.34 296.928 185.26 298.216 185.26 299.528C185.26 300.776 185.332 302 185.476 303.2C185.62 304.4 185.836 305.496 186.124 306.488C186.14 306.536 186.148 306.584 186.148 306.632C186.164 306.664 186.172 306.704 186.172 306.752C186.172 306.992 186.084 307.208 185.908 307.4C185.748 307.576 185.532 307.664 185.26 307.664ZM189.46 295.376C189.252 295.328 189.076 295.216 188.932 295.04C188.788 294.864 188.716 294.672 188.716 294.464C188.716 294.192 188.812 293.968 189.004 293.792C189.212 293.616 189.444 293.544 189.7 293.576C190.324 293.672 190.972 293.744 191.644 293.792C192.332 293.84 193.02 293.864 193.708 293.864C194.508 293.864 195.276 293.832 196.012 293.768C196.764 293.704 197.46 293.608 198.1 293.48C198.356 293.432 198.588 293.496 198.796 293.672C199.004 293.832 199.108 294.048 199.108 294.32C199.108 294.832 198.86 295.152 198.364 295.28C196.956 295.552 195.356 295.688 193.564 295.688C192.876 295.688 192.18 295.664 191.476 295.616C190.788 295.568 190.116 295.488 189.46 295.376ZM199.66 305.816C198.988 306.04 198.244 306.224 197.428 306.368C196.612 306.512 195.78 306.584 194.932 306.584C193.7 306.584 192.476 306.408 191.26 306.056C190.044 305.688 188.98 305.064 188.068 304.184C187.876 304.008 187.78 303.8 187.78 303.56C187.78 303.304 187.876 303.08 188.068 302.888C188.228 302.712 188.428 302.624 188.668 302.624C188.924 302.624 189.132 302.704 189.292 302.864C190.012 303.504 190.868 303.984 191.86 304.304C192.868 304.608 193.924 304.76 195.028 304.76C195.716 304.76 196.404 304.704 197.092 304.592C197.78 304.48 198.468 304.304 199.156 304.064C199.204 304.032 199.252 304.016 199.3 304.016C199.348 304.016 199.396 304.016 199.444 304.016C199.684 304.016 199.884 304.096 200.044 304.256C200.22 304.416 200.308 304.632 200.308 304.904C200.308 305.352 200.092 305.656 199.66 305.816ZM224.548 291.176H206.716C206.476 291.176 206.268 291.088 206.092 290.912C205.916 290.736 205.828 290.528 205.828 290.288C205.828 290.048 205.916 289.84 206.092 289.664C206.268 289.488 206.476 289.4 206.716 289.4H224.548C224.804 289.4 225.012 289.488 225.172 289.664C225.348 289.84 225.436 290.048 225.436 290.288C225.436 290.528 225.348 290.736 225.172 290.912C225.012 291.088 224.804 291.176 224.548 291.176ZM222.388 298.52H209.452C209.356 298.52 209.308 298.568 209.308 298.664C209.292 299.544 209.18 300.536 208.972 301.64C208.78 302.728 208.54 303.816 208.252 304.904C207.98 305.992 207.7 306.968 207.412 307.832C207.348 308.04 207.228 308.2 207.052 308.312C206.876 308.44 206.676 308.504 206.452 308.504C206.196 308.504 205.98 308.416 205.804 308.24C205.644 308.064 205.564 307.872 205.564 307.664C205.564 307.552 205.588 307.448 205.636 307.352C206.1 306.136 206.452 304.976 206.692 303.872C206.948 302.768 207.132 301.776 207.244 300.896C207.372 300 207.444 299.272 207.46 298.712C207.492 298.136 207.508 297.784 207.508 297.656V294.128C207.508 293.728 207.644 293.392 207.916 293.12C208.204 292.832 208.548 292.688 208.948 292.688H222.388C222.788 292.688 223.124 292.832 223.396 293.12C223.684 293.392 223.828 293.728 223.828 294.128V297.08C223.828 297.48 223.684 297.824 223.396 298.112C223.124 298.384 222.788 298.52 222.388 298.52ZM222.004 294.56C222.004 294.464 221.956 294.416 221.86 294.416H209.476C209.38 294.416 209.332 294.464 209.332 294.56V296.648C209.332 296.744 209.38 296.792 209.476 296.792H221.86C221.956 296.792 222.004 296.744 222.004 296.648V294.56ZM225.172 307.544C225.38 307.608 225.548 307.72 225.676 307.88C225.804 308.04 225.868 308.224 225.868 308.432C225.868 308.672 225.772 308.88 225.58 309.056C225.404 309.232 225.204 309.32 224.98 309.32C224.9 309.32 224.836 309.312 224.788 309.296C223.7 309.024 222.66 308.608 221.668 308.048C220.676 307.488 219.78 306.864 218.98 306.176C218.18 305.472 217.524 304.768 217.012 304.064C216.964 303.952 216.9 303.952 216.82 304.064C216.34 304.848 215.716 305.584 214.948 306.272C214.196 306.96 213.348 307.552 212.404 308.048C211.46 308.56 210.476 308.952 209.452 309.224C209.404 309.24 209.34 309.248 209.26 309.248C209.036 309.248 208.828 309.16 208.636 308.984C208.46 308.808 208.372 308.6 208.372 308.36C208.372 308.136 208.444 307.944 208.588 307.784C208.732 307.608 208.908 307.488 209.116 307.424C209.964 307.2 210.78 306.88 211.564 306.464C212.364 306.048 213.084 305.56 213.724 305C214.38 304.424 214.916 303.816 215.332 303.176C215.396 303.064 215.356 303.008 215.212 303.008H210.196C209.94 303.008 209.724 302.92 209.548 302.744C209.388 302.568 209.308 302.36 209.308 302.12C209.308 301.88 209.388 301.672 209.548 301.496C209.724 301.32 209.94 301.232 210.196 301.232H215.812C215.908 301.232 215.956 301.184 215.956 301.088V299.936C215.956 299.696 216.044 299.488 216.22 299.312C216.396 299.136 216.604 299.048 216.844 299.048C217.084 299.048 217.292 299.136 217.468 299.312C217.644 299.488 217.732 299.696 217.732 299.936V301.088C217.732 301.184 217.78 301.232 217.876 301.232H223.924C224.164 301.232 224.372 301.32 224.548 301.496C224.724 301.672 224.812 301.88 224.812 302.12C224.812 302.36 224.724 302.568 224.548 302.744C224.372 302.92 224.164 303.008 223.924 303.008H218.692C218.548 303.008 218.516 303.064 218.596 303.176C219.06 303.832 219.644 304.448 220.348 305.024C221.052 305.6 221.82 306.112 222.652 306.56C223.5 306.992 224.34 307.32 225.172 307.544ZM239.164 308.48C238.14 308.48 237.324 308.336 236.716 308.048C236.124 307.76 235.7 307.392 235.444 306.944C235.188 306.496 235.06 306.048 235.06 305.6C235.06 305.104 235.172 304.656 235.396 304.256C235.636 303.824 235.908 303.512 236.212 303.32C236.516 303.128 236.836 303.032 237.172 303.032C237.62 303.032 238.092 303.184 238.588 303.488C239.084 303.776 239.588 304.168 240.1 304.664C240.628 305.144 241.132 305.68 241.612 306.272C241.676 306.368 241.772 306.4 241.9 306.368C242.492 306.144 243.044 305.856 243.556 305.504C244.068 305.152 244.5 304.728 244.852 304.232C245.236 303.656 245.428 303.032 245.428 302.36C245.428 301.592 245.156 300.888 244.612 300.248C244.084 299.608 243.268 299.224 242.164 299.096C242.004 299.064 241.844 299.048 241.684 299.048C241.54 299.048 241.388 299.048 241.228 299.048C239.868 299.048 238.572 299.368 237.34 300.008C236.124 300.648 234.908 301.512 233.692 302.6C233.516 302.76 233.292 302.84 233.02 302.84C232.828 302.84 232.66 302.792 232.516 302.696C232.292 302.552 232.18 302.344 232.18 302.072C232.18 301.928 232.22 301.792 232.3 301.664C233.356 300.096 234.452 298.56 235.588 297.056C236.74 295.552 237.9 294.192 239.068 292.976C239.116 292.928 239.14 292.88 239.14 292.832C239.14 292.768 239.076 292.744 238.948 292.76C238.5 292.824 237.972 292.88 237.364 292.928C236.772 292.976 236.164 293 235.54 293C235.332 293 235.132 293 234.94 293C234.748 293 234.556 292.992 234.364 292.976C234.124 292.96 233.924 292.864 233.764 292.688C233.604 292.496 233.524 292.28 233.524 292.04C233.524 291.784 233.62 291.568 233.812 291.392C234.02 291.216 234.252 291.136 234.508 291.152C235.164 291.2 235.796 291.224 236.404 291.224C237.22 291.224 237.996 291.176 238.732 291.08C239.484 290.984 240.22 290.816 240.94 290.576C241.004 290.544 241.06 290.528 241.108 290.528C241.172 290.528 241.236 290.528 241.3 290.528C241.476 290.528 241.644 290.576 241.804 290.672C241.98 290.768 242.1 290.904 242.164 291.08C242.244 291.272 242.284 291.448 242.284 291.608C242.284 291.976 242.14 292.288 241.852 292.544C240.748 293.52 239.764 294.504 238.9 295.496C238.036 296.472 237.204 297.536 236.404 298.688C236.372 298.752 236.356 298.792 236.356 298.808C236.356 298.936 236.444 298.96 236.62 298.88C237.596 298.368 238.524 298 239.404 297.776C240.3 297.552 241.132 297.44 241.9 297.44C243.228 297.44 244.34 297.736 245.236 298.328C246.132 298.92 246.732 299.712 247.036 300.704C247.196 301.2 247.276 301.728 247.276 302.288C247.276 303.392 246.932 304.416 246.244 305.36C245.572 306.304 244.628 307.064 243.412 307.64C242.196 308.2 240.78 308.48 239.164 308.48ZM239.74 306.8C239.852 306.8 239.908 306.76 239.908 306.68C239.908 306.616 239.884 306.552 239.836 306.488C239.26 305.816 238.764 305.352 238.348 305.096C237.948 304.84 237.62 304.712 237.364 304.712C237.14 304.712 236.972 304.784 236.86 304.928C236.748 305.072 236.692 305.232 236.692 305.408C236.692 305.456 236.692 305.504 236.692 305.552C236.708 305.6 236.724 305.648 236.74 305.696C236.9 306.096 237.26 306.392 237.82 306.584C238.38 306.76 239.02 306.832 239.74 306.8Z" fill="black"/>
<path d="M172.3 384L179.5 376.8L186.7 384L189.5 381.2L182.3 374L189.5 366.8L186.7 364L179.5 371.2L172.3 364L169.5 366.8L176.7 374L169.5 381.2L172.3 384ZM179.5 394C176.733 394 174.133 393.475 171.7 392.424C169.267 391.373 167.15 389.949 165.35 388.15C163.55 386.351 162.125 384.235 161.076 381.8C160.027 379.365 159.501 376.765 159.5 374C159.499 371.235 160.024 368.635 161.076 366.2C162.128 363.765 163.553 361.649 165.35 359.85C167.147 358.051 169.264 356.627 171.7 355.576C174.136 354.525 176.736 354 179.5 354C182.264 354 184.864 354.525 187.3 355.576C189.736 356.627 191.853 358.051 193.65 359.85C195.447 361.649 196.873 363.765 197.926 366.2C198.979 368.635 199.504 371.235 199.5 374C199.496 376.765 198.971 379.365 197.924 381.8C196.877 384.235 195.453 386.351 193.65 388.15C191.847 389.949 189.731 391.374 187.3 392.426C184.869 393.478 182.269 394.003 179.5 394Z" fill="#FFFF00"/>
</svg>
