<svg width="277" height="24" viewBox="0 0 277 24" fill="none" xmlns="http://www.w3.org/2000/svg">
<path d="M2.07306 11.04C1.96106 11.088 1.84106 11.112 1.71306 11.112C1.47306 11.112 1.24906 11.016 1.04106 10.824C0.833063 10.632 0.729063 10.384 0.729063 10.08C0.729063 9.856 0.793063 9.64 0.921063 9.432C1.06506 9.224 1.24906 9.08 1.47306 9C2.27306 8.664 3.07306 8.24 3.87306 7.728C4.68906 7.216 5.48106 6.656 6.24906 6.048C7.01706 5.44 7.72906 4.824 8.38506 4.2C9.04106 3.56 9.61706 2.968 10.1131 2.424C10.4331 2.088 10.8011 1.92 11.2171 1.92C11.6011 1.92 11.9451 2.056 12.2491 2.328C13.0331 3.096 13.9051 3.896 14.8651 4.728C15.8411 5.56 16.8651 6.352 17.9371 7.104C19.0091 7.84 20.0731 8.456 21.1291 8.952C21.3531 9.048 21.5291 9.2 21.6571 9.408C21.7851 9.6 21.8491 9.808 21.8491 10.032C21.8491 10.336 21.7531 10.584 21.5611 10.776C21.3851 10.968 21.1691 11.064 20.9131 11.064C20.8491 11.064 20.7851 11.056 20.7211 11.04C20.6571 11.008 20.5931 10.984 20.5291 10.968C19.7451 10.6 18.9211 10.16 18.0571 9.648C17.2091 9.12 16.3691 8.56 15.5371 7.968C14.7051 7.36 13.9291 6.752 13.2091 6.144C12.5051 5.52 11.8891 4.936 11.3611 4.392C11.2971 4.328 11.2411 4.32 11.1931 4.368C10.7611 4.848 10.1931 5.408 9.48906 6.048C8.80106 6.672 8.03306 7.304 7.18506 7.944C6.33706 8.584 5.47306 9.176 4.59306 9.72C3.71306 10.264 2.87306 10.704 2.07306 11.04ZM15.0811 10.92H7.49706C7.22506 10.92 6.98506 10.824 6.77706 10.632C6.56906 10.424 6.46506 10.176 6.46506 9.888C6.46506 9.616 6.56106 9.376 6.75306 9.168C6.96106 8.96 7.20906 8.856 7.49706 8.856H15.0811C15.3691 8.856 15.6091 8.96 15.8011 9.168C16.0091 9.376 16.1131 9.616 16.1131 9.888C16.1131 10.16 16.0091 10.4 15.8011 10.608C15.6091 10.816 15.3691 10.92 15.0811 10.92ZM9.65706 22.368C9.59306 22.384 9.53706 22.392 9.48906 22.392C9.44106 22.408 9.38506 22.416 9.32106 22.416C9.04906 22.416 8.80106 22.312 8.57706 22.104C8.36906 21.912 8.26506 21.656 8.26506 21.336C8.26506 21.112 8.33706 20.904 8.48106 20.712C8.62506 20.52 8.80906 20.384 9.03306 20.304C10.4411 19.856 11.7051 19.192 12.8251 18.312C13.9611 17.416 14.8651 16.392 15.5371 15.24C15.6011 15.128 15.5691 15.072 15.4411 15.072H5.09706C4.80906 15.072 4.56106 14.968 4.35306 14.76C4.16106 14.552 4.06506 14.312 4.06506 14.04C4.06506 13.752 4.16906 13.512 4.37706 13.32C4.58506 13.112 4.82506 13.008 5.09706 13.008H16.9771C17.3291 13.008 17.6171 13.128 17.8411 13.368C18.0811 13.592 18.2011 13.856 18.2011 14.16C18.2011 14.288 18.1771 14.424 18.1291 14.568C17.7451 15.608 17.2251 16.552 16.5691 17.4C15.9291 18.248 15.2171 19 14.4331 19.656C13.6491 20.312 12.8411 20.864 12.0091 21.312C11.1931 21.776 10.4091 22.128 9.65706 22.368ZM32.7931 8.304C32.2491 7.936 31.6491 7.64 30.9931 7.416C30.3371 7.192 29.6571 7.032 28.9531 6.936C28.6971 6.888 28.4811 6.768 28.3051 6.576C28.1451 6.384 28.0651 6.168 28.0651 5.928C28.0651 5.608 28.1851 5.344 28.4251 5.136C28.6651 4.912 28.9371 4.816 29.2411 4.848C30.0251 4.928 30.8091 5.112 31.5931 5.4C32.3931 5.672 33.1211 6.016 33.7771 6.432C34.1131 6.672 34.2811 6.992 34.2811 7.392C34.2811 7.584 34.2331 7.768 34.1371 7.944C33.9771 8.28 33.7051 8.448 33.3211 8.448C33.1451 8.448 32.9691 8.4 32.7931 8.304ZM29.6011 21.24C29.5371 21.256 29.4491 21.264 29.3371 21.264C29.0331 21.264 28.7611 21.152 28.5211 20.928C28.2811 20.704 28.1611 20.424 28.1611 20.088C28.1611 19.864 28.2331 19.656 28.3771 19.464C28.5211 19.256 28.7211 19.12 28.9771 19.056C29.9851 18.784 31.0651 18.376 32.2171 17.832C33.3691 17.288 34.5211 16.632 35.6731 15.864C36.8251 15.08 37.9211 14.192 38.9611 13.2C40.0011 12.208 40.9051 11.112 41.6731 9.912C41.8971 9.576 42.1931 9.408 42.5611 9.408C42.7691 9.408 42.9691 9.48 43.1611 9.624C43.4971 9.88 43.6651 10.208 43.6651 10.608C43.6651 10.832 43.6011 11.048 43.4731 11.256C42.8331 12.264 42.0091 13.28 41.0011 14.304C40.0091 15.328 38.8891 16.304 37.6411 17.232C36.4091 18.144 35.1051 18.952 33.7291 19.656C32.3531 20.36 30.9771 20.888 29.6011 21.24ZM31.4011 13.512C30.8571 13.288 30.2491 13.104 29.5771 12.96C28.9051 12.8 28.2811 12.704 27.7051 12.672C27.4331 12.656 27.1931 12.552 26.9851 12.36C26.7931 12.152 26.6971 11.92 26.6971 11.664C26.6971 11.344 26.8011 11.072 27.0091 10.848C27.2331 10.624 27.4971 10.52 27.8011 10.536C28.5371 10.568 29.3051 10.68 30.1051 10.872C30.9051 11.048 31.6171 11.272 32.2411 11.544C32.4491 11.624 32.6011 11.76 32.6971 11.952C32.8091 12.128 32.8651 12.32 32.8651 12.528C32.8651 12.864 32.7531 13.128 32.5291 13.32C32.3211 13.496 32.0811 13.584 31.8091 13.584C31.6811 13.584 31.5451 13.56 31.4011 13.512ZM66.7771 13.176H51.8011C51.5131 13.176 51.2651 13.072 51.0571 12.864C50.8491 12.656 50.7451 12.408 50.7451 12.12C50.7451 11.816 50.8491 11.568 51.0571 11.376C51.2651 11.168 51.5131 11.064 51.8011 11.064H66.7771C67.0651 11.064 67.3131 11.168 67.5211 11.376C67.7291 11.584 67.8331 11.832 67.8331 12.12C67.8331 12.424 67.7291 12.68 67.5211 12.888C67.3131 13.08 67.0651 13.176 66.7771 13.176ZM92.8651 4.464C92.9451 4.56 92.9851 4.688 92.9851 4.848C92.9851 5.152 92.8651 5.376 92.6251 5.52C92.5291 5.6 92.4011 5.64 92.2411 5.64C91.9531 5.64 91.7371 5.52 91.5931 5.28C91.3371 4.896 91.0411 4.496 90.7051 4.08C90.3691 3.648 90.0571 3.28 89.7691 2.976C89.6091 2.816 89.5291 2.632 89.5291 2.424C89.5291 2.216 89.6011 2.056 89.7451 1.944C89.9051 1.784 90.0971 1.704 90.3211 1.704C90.5291 1.704 90.7051 1.784 90.8491 1.944C91.2171 2.296 91.5691 2.696 91.9051 3.144C92.2571 3.592 92.5771 4.032 92.8651 4.464ZM87.8971 3.984C87.7371 3.84 87.6571 3.656 87.6571 3.432C87.6571 3.224 87.7291 3.048 87.8731 2.904C88.0171 2.744 88.2011 2.664 88.4251 2.664C88.6491 2.664 88.8331 2.736 88.9771 2.88C89.3451 3.232 89.7131 3.648 90.0811 4.128C90.4491 4.608 90.7771 5.064 91.0651 5.496C91.1451 5.592 91.1851 5.728 91.1851 5.904C91.1851 6.016 91.1531 6.136 91.0891 6.264C91.0411 6.392 90.9531 6.496 90.8251 6.576C90.6971 6.656 90.5691 6.696 90.4411 6.696C90.1851 6.696 89.9611 6.576 89.7691 6.336C89.5131 5.936 89.2091 5.52 88.8571 5.088C88.5211 4.656 88.2011 4.288 87.8971 3.984ZM85.6651 13.92C85.6171 13.968 85.5931 14.024 85.5931 14.088C85.5931 14.136 85.6331 14.184 85.7131 14.232C86.5131 14.632 87.3051 15.136 88.0891 15.744C88.8731 16.336 89.6011 16.976 90.2731 17.664C90.9611 18.336 91.5451 19 92.0251 19.656C92.1691 19.848 92.2411 20.064 92.2411 20.304C92.2411 20.688 92.0891 21.008 91.7851 21.264C91.5931 21.408 91.3851 21.48 91.1611 21.48C90.8091 21.48 90.5211 21.336 90.2971 21.048C89.8011 20.312 89.2091 19.608 88.5211 18.936C87.8331 18.264 87.1051 17.664 86.3371 17.136C85.5851 16.608 84.8251 16.192 84.0571 15.888C83.9451 15.84 83.8491 15.856 83.7691 15.936C82.7451 16.896 81.5691 17.832 80.2411 18.744C78.9291 19.656 77.4411 20.488 75.7771 21.24C75.6491 21.304 75.5051 21.336 75.3451 21.336C75.0891 21.336 74.8571 21.24 74.6491 21.048C74.4411 20.856 74.3371 20.608 74.3371 20.304C74.3371 20.064 74.4011 19.84 74.5291 19.632C74.6731 19.424 74.8571 19.272 75.0811 19.176C76.6331 18.488 78.0251 17.712 79.2571 16.848C80.5051 15.968 81.5851 15.072 82.4971 14.16C83.4251 13.232 84.1931 12.352 84.8011 11.52C85.4091 10.672 85.8571 9.952 86.1451 9.36C86.4651 8.672 86.6251 8.144 86.6251 7.776C86.6251 7.28 86.3051 7.032 85.6651 7.032C85.5691 7.032 85.4651 7.032 85.3531 7.032C85.2571 7.032 85.1451 7.048 85.0171 7.08C84.4731 7.16 83.7451 7.24 82.8331 7.32C81.9211 7.4 80.9211 7.464 79.8331 7.512C78.7611 7.56 77.7051 7.584 76.6651 7.584C76.3931 7.584 76.1531 7.488 75.9451 7.296C75.7531 7.088 75.6571 6.84 75.6571 6.552C75.6571 6.248 75.7611 5.992 75.9691 5.784C76.1771 5.576 76.4331 5.472 76.7371 5.472H77.8171C79.2251 5.472 80.5531 5.424 81.8011 5.328C83.0491 5.232 84.0171 5.12 84.7051 4.992C84.8811 4.96 85.0491 4.936 85.2091 4.92C85.3691 4.904 85.5291 4.896 85.6891 4.896C86.6491 4.896 87.3931 5.16 87.9211 5.688C88.4651 6.2 88.7371 6.888 88.7371 7.752C88.7371 8.552 88.5131 9.408 88.0651 10.32C87.8091 10.848 87.4811 11.416 87.0811 12.024C86.6811 12.632 86.2091 13.264 85.6651 13.92ZM105.753 10.44C105.561 10.648 105.305 10.752 104.985 10.752C104.665 10.752 104.393 10.648 104.169 10.44C103.097 9.464 101.721 8.84 100.041 8.568C99.7691 8.52 99.5371 8.392 99.3451 8.184C99.1691 7.976 99.0811 7.736 99.0811 7.464C99.0811 7.112 99.2011 6.824 99.4411 6.6C99.6971 6.376 99.9931 6.28 100.329 6.312C101.385 6.456 102.393 6.776 103.353 7.272C104.329 7.752 105.113 8.248 105.705 8.76C105.961 8.984 106.089 9.264 106.089 9.6C106.089 9.904 105.977 10.184 105.753 10.44ZM100.353 20.496C100.305 20.512 100.241 20.52 100.161 20.52C99.8731 20.52 99.6251 20.416 99.4171 20.208C99.2091 20 99.1051 19.744 99.1051 19.44C99.1051 19.168 99.1931 18.92 99.3691 18.696C99.5451 18.472 99.7771 18.328 100.065 18.264C101.121 18.008 102.265 17.632 103.497 17.136C104.745 16.624 106.009 15.984 107.289 15.216C108.569 14.432 109.809 13.512 111.009 12.456C112.225 11.384 113.345 10.168 114.369 8.808C114.593 8.504 114.889 8.352 115.257 8.352C115.513 8.352 115.745 8.432 115.953 8.592C116.257 8.848 116.409 9.168 116.409 9.552C116.409 9.792 116.329 10.016 116.169 10.224C115.289 11.392 114.257 12.52 113.073 13.608C111.889 14.696 110.601 15.704 109.209 16.632C107.833 17.544 106.393 18.336 104.889 19.008C103.385 19.68 101.873 20.176 100.353 20.496ZM127.161 23.856C125.785 23.008 124.633 21.976 123.705 20.76C122.793 19.544 122.105 18.224 121.641 16.8C121.193 15.36 120.969 13.904 120.969 12.432C120.969 10.944 121.193 9.488 121.641 8.064C122.105 6.64 122.793 5.32 123.705 4.104C124.633 2.888 125.785 1.856 127.161 1.008C127.241 0.943999 127.337 0.912 127.449 0.912C127.593 0.912 127.721 0.96 127.833 1.056C127.945 1.152 128.001 1.264 128.001 1.392C128.001 1.488 127.953 1.584 127.857 1.68C126.289 3.088 125.105 4.736 124.305 6.624C123.521 8.512 123.129 10.448 123.129 12.432C123.129 14.416 123.521 16.352 124.305 18.24C125.105 20.112 126.289 21.76 127.857 23.184C127.953 23.28 128.001 23.376 128.001 23.472C128.001 23.584 127.945 23.688 127.833 23.784C127.737 23.896 127.617 23.952 127.473 23.952C127.345 23.952 127.241 23.92 127.161 23.856ZM153.986 23.856C153.906 23.92 153.802 23.952 153.674 23.952C153.53 23.952 153.402 23.904 153.29 23.808C153.194 23.712 153.146 23.608 153.146 23.496C153.146 23.384 153.194 23.28 153.29 23.184C154.874 21.76 156.058 20.112 156.842 18.24C157.626 16.352 158.018 14.416 158.018 12.432C158.018 10.448 157.626 8.512 156.842 6.624C156.058 4.736 154.874 3.088 153.29 1.68C153.194 1.584 153.146 1.488 153.146 1.392C153.146 1.264 153.194 1.152 153.29 1.056C153.402 0.96 153.53 0.912 153.674 0.912C153.802 0.912 153.906 0.943999 153.986 1.008C155.362 1.856 156.506 2.888 157.418 4.104C158.346 5.32 159.034 6.64 159.482 8.064C159.946 9.488 160.178 10.944 160.178 12.432C160.178 13.904 159.946 15.36 159.482 16.8C159.034 18.224 158.346 19.544 157.418 20.76C156.506 21.976 155.362 23.008 153.986 23.856ZM174.671 20.544C174.367 20.576 174.087 20.48 173.831 20.256C173.575 20.032 173.447 19.752 173.447 19.416C173.447 19.16 173.535 18.936 173.711 18.744C173.887 18.552 174.103 18.432 174.359 18.384C176.311 18.08 177.807 17.424 178.847 16.416C179.903 15.408 180.431 14.12 180.431 12.552C180.431 11.624 180.207 10.776 179.759 10.008C179.311 9.24 178.695 8.624 177.911 8.16C177.143 7.68 176.279 7.416 175.319 7.368C175.191 7.368 175.111 7.432 175.079 7.56C174.743 9.08 174.327 10.536 173.831 11.928C173.351 13.304 172.799 14.536 172.175 15.624C171.567 16.696 170.911 17.544 170.207 18.168C169.519 18.792 168.799 19.104 168.047 19.104C167.855 19.104 167.663 19.08 167.471 19.032C166.671 18.84 166.063 18.36 165.647 17.592C165.247 16.824 165.047 15.92 165.047 14.88C165.047 13.936 165.207 12.952 165.527 11.928C165.863 10.904 166.359 9.944 167.015 9.048C167.959 7.768 169.111 6.816 170.471 6.192C171.847 5.568 173.231 5.256 174.623 5.256C175.775 5.256 176.871 5.456 177.911 5.856C178.967 6.256 179.879 6.856 180.647 7.656C181.431 8.44 181.983 9.408 182.303 10.56C182.495 11.2 182.591 11.872 182.591 12.576C182.591 13.44 182.431 14.304 182.111 15.168C181.807 16.032 181.335 16.84 180.695 17.592C180.055 18.328 179.231 18.96 178.223 19.488C177.231 20 176.047 20.352 174.671 20.544ZM167.351 16.488C167.543 16.824 167.783 16.992 168.071 16.992C168.455 16.992 168.871 16.712 169.319 16.152C169.783 15.592 170.239 14.856 170.687 13.944C171.135 13.032 171.551 12.04 171.935 10.968C172.319 9.88 172.623 8.824 172.847 7.8V7.776C172.847 7.664 172.751 7.608 172.559 7.608C172.511 7.608 172.463 7.616 172.415 7.632C172.367 7.632 172.319 7.64 172.271 7.656C171.343 7.928 170.543 8.344 169.871 8.904C169.215 9.448 168.671 10.072 168.239 10.776C167.823 11.48 167.511 12.192 167.303 12.912C167.111 13.616 167.015 14.272 167.015 14.88C167.015 15.552 167.127 16.088 167.351 16.488ZM205.943 7.296C206.231 7.312 206.479 7.432 206.687 7.656C206.895 7.864 206.999 8.112 206.999 8.4C206.999 8.704 206.887 8.952 206.663 9.144C206.455 9.336 206.207 9.424 205.919 9.408C205.135 9.376 204.319 9.344 203.471 9.312C202.639 9.28 201.791 9.256 200.927 9.24C200.783 9.24 200.719 9.312 200.735 9.456C200.815 10.624 200.919 11.88 201.047 13.224C201.175 14.552 201.319 15.952 201.479 17.424C201.527 17.776 201.551 18.112 201.551 18.432C201.551 19.648 201.175 20.488 200.423 20.952C199.671 21.416 198.439 21.616 196.727 21.552C196.423 21.536 196.159 21.416 195.935 21.192C195.727 20.968 195.623 20.704 195.623 20.4C195.623 20.096 195.727 19.84 195.935 19.632C196.159 19.424 196.423 19.336 196.727 19.368C196.967 19.384 197.191 19.4 197.399 19.416C197.607 19.416 197.791 19.416 197.951 19.416C198.575 19.416 198.975 19.36 199.151 19.248C199.343 19.136 199.439 18.928 199.439 18.624C199.439 18.512 199.431 18.4 199.415 18.288C199.415 18.16 199.407 18.024 199.391 17.88C199.295 16.888 199.199 15.872 199.103 14.832C199.023 13.776 198.935 12.736 198.839 11.712C198.839 11.616 198.807 11.56 198.743 11.544C198.695 11.528 198.639 11.56 198.575 11.64C197.887 12.552 197.079 13.448 196.151 14.328C195.239 15.192 194.279 15.984 193.271 16.704C192.263 17.424 191.263 18.016 190.271 18.48C190.207 18.496 190.143 18.52 190.079 18.552C190.015 18.568 189.943 18.576 189.863 18.576C189.607 18.576 189.367 18.48 189.143 18.288C188.935 18.08 188.831 17.816 188.831 17.496C188.831 17.288 188.887 17.096 188.999 16.92C189.111 16.728 189.271 16.584 189.479 16.488C190.455 16.008 191.439 15.416 192.431 14.712C193.439 13.992 194.383 13.192 195.263 12.312C196.143 11.416 196.887 10.48 197.495 9.504C197.527 9.44 197.543 9.4 197.543 9.384C197.543 9.288 197.479 9.24 197.351 9.24C196.135 9.256 194.919 9.296 193.703 9.36C192.503 9.424 191.311 9.512 190.127 9.624C189.823 9.64 189.559 9.552 189.335 9.36C189.111 9.152 188.999 8.896 188.999 8.592C188.999 8.32 189.095 8.08 189.287 7.872C189.495 7.648 189.735 7.528 190.007 7.512C191.287 7.4 192.623 7.32 194.015 7.272C195.423 7.224 196.839 7.192 198.263 7.176C198.391 7.176 198.455 7.104 198.455 6.96L198.191 3.192C198.175 2.872 198.271 2.608 198.479 2.4C198.703 2.192 198.967 2.088 199.271 2.088C199.543 2.088 199.783 2.192 199.991 2.4C200.199 2.592 200.311 2.824 200.327 3.096C200.359 3.592 200.391 4.16 200.423 4.8C200.455 5.44 200.487 6.152 200.519 6.936C200.551 7.08 200.631 7.152 200.759 7.152C202.599 7.184 204.327 7.232 205.943 7.296ZM230.663 19.656C230.807 19.848 230.879 20.064 230.879 20.304C230.879 20.688 230.727 21.008 230.423 21.264C230.231 21.408 230.023 21.48 229.799 21.48C229.447 21.48 229.159 21.336 228.935 21.048C228.439 20.312 227.847 19.608 227.159 18.936C226.471 18.264 225.743 17.664 224.975 17.136C224.223 16.608 223.463 16.192 222.695 15.888C222.583 15.84 222.487 15.856 222.407 15.936C221.383 16.896 220.207 17.832 218.879 18.744C217.567 19.656 216.079 20.488 214.415 21.24C214.287 21.304 214.143 21.336 213.983 21.336C213.727 21.336 213.495 21.24 213.287 21.048C213.079 20.856 212.975 20.608 212.975 20.304C212.975 20.064 213.039 19.84 213.167 19.632C213.311 19.424 213.495 19.272 213.719 19.176C215.271 18.488 216.663 17.712 217.895 16.848C219.143 15.968 220.223 15.072 221.135 14.16C222.063 13.232 222.831 12.352 223.439 11.52C224.047 10.672 224.495 9.952 224.783 9.36C225.103 8.672 225.263 8.144 225.263 7.776C225.263 7.28 224.943 7.032 224.303 7.032C224.207 7.032 224.103 7.032 223.991 7.032C223.895 7.032 223.783 7.048 223.655 7.08C223.111 7.16 222.383 7.24 221.471 7.32C220.559 7.4 219.559 7.464 218.471 7.512C217.399 7.56 216.343 7.584 215.303 7.584C215.031 7.584 214.791 7.488 214.583 7.296C214.391 7.088 214.295 6.84 214.295 6.552C214.295 6.248 214.399 5.992 214.607 5.784C214.815 5.576 215.071 5.472 215.375 5.472H216.455C217.863 5.472 219.191 5.424 220.439 5.328C221.687 5.232 222.655 5.12 223.343 4.992C223.519 4.96 223.687 4.936 223.847 4.92C224.007 4.904 224.167 4.896 224.327 4.896C225.287 4.896 226.031 5.16 226.559 5.688C227.103 6.2 227.375 6.888 227.375 7.752C227.375 8.552 227.151 9.408 226.703 10.32C226.447 10.848 226.119 11.416 225.719 12.024C225.319 12.632 224.847 13.264 224.303 13.92C224.271 13.952 224.255 14 224.255 14.064C224.255 14.128 224.295 14.184 224.375 14.232C225.175 14.632 225.967 15.136 226.751 15.744C227.535 16.336 228.263 16.976 228.935 17.664C229.607 18.336 230.183 19 230.663 19.656ZM254.663 19.656C254.807 19.848 254.879 20.064 254.879 20.304C254.879 20.688 254.727 21.008 254.423 21.264C254.231 21.408 254.023 21.48 253.799 21.48C253.447 21.48 253.159 21.336 252.935 21.048C252.439 20.312 251.847 19.608 251.159 18.936C250.471 18.264 249.743 17.664 248.975 17.136C248.223 16.608 247.463 16.192 246.695 15.888C246.583 15.84 246.487 15.856 246.407 15.936C245.383 16.896 244.207 17.832 242.879 18.744C241.567 19.656 240.079 20.488 238.415 21.24C238.287 21.304 238.143 21.336 237.983 21.336C237.727 21.336 237.495 21.24 237.287 21.048C237.079 20.856 236.975 20.608 236.975 20.304C236.975 20.064 237.039 19.84 237.167 19.632C237.311 19.424 237.495 19.272 237.719 19.176C239.271 18.488 240.663 17.712 241.895 16.848C243.143 15.968 244.223 15.072 245.135 14.16C246.063 13.232 246.831 12.352 247.439 11.52C248.047 10.672 248.495 9.952 248.783 9.36C249.103 8.672 249.263 8.144 249.263 7.776C249.263 7.28 248.943 7.032 248.303 7.032C248.207 7.032 248.103 7.032 247.991 7.032C247.895 7.032 247.783 7.048 247.655 7.08C247.111 7.16 246.383 7.24 245.471 7.32C244.559 7.4 243.559 7.464 242.471 7.512C241.399 7.56 240.343 7.584 239.303 7.584C239.031 7.584 238.791 7.488 238.583 7.296C238.391 7.088 238.295 6.84 238.295 6.552C238.295 6.248 238.399 5.992 238.607 5.784C238.815 5.576 239.071 5.472 239.375 5.472H240.455C241.863 5.472 243.191 5.424 244.439 5.328C245.687 5.232 246.655 5.12 247.343 4.992C247.519 4.96 247.687 4.936 247.847 4.92C248.007 4.904 248.167 4.896 248.327 4.896C249.287 4.896 250.031 5.16 250.559 5.688C251.103 6.2 251.375 6.888 251.375 7.752C251.375 8.552 251.151 9.408 250.703 10.32C250.447 10.848 250.119 11.416 249.719 12.024C249.319 12.632 248.847 13.264 248.303 13.92C248.271 13.952 248.255 14 248.255 14.064C248.255 14.128 248.295 14.184 248.375 14.232C249.175 14.632 249.967 15.136 250.751 15.744C251.535 16.336 252.263 16.976 252.935 17.664C253.607 18.336 254.183 19 254.663 19.656ZM276.479 15C276.735 15.256 276.863 15.552 276.863 15.888C276.863 16.16 276.775 16.424 276.599 16.68C276.423 16.952 276.159 17.088 275.807 17.088C275.695 17.088 275.575 17.072 275.447 17.04C275.319 16.992 275.207 16.92 275.111 16.824C274.055 15.816 272.983 14.944 271.895 14.208C271.767 14.128 271.671 14.144 271.607 14.256C269.479 17.024 266.903 19.264 263.879 20.976C263.719 21.072 263.543 21.12 263.351 21.12C262.919 21.12 262.599 20.928 262.391 20.544C262.311 20.4 262.271 20.224 262.271 20.016C262.271 19.584 262.455 19.256 262.823 19.032C265.543 17.48 267.823 15.528 269.663 13.176C269.695 13.144 269.711 13.096 269.711 13.032C269.711 12.952 269.671 12.904 269.591 12.888C268.935 12.568 268.247 12.28 267.527 12.024C266.807 11.768 266.047 11.536 265.247 11.328C264.991 11.264 264.783 11.136 264.623 10.944C264.479 10.736 264.407 10.504 264.407 10.248C264.407 9.88 264.551 9.584 264.839 9.36C265.143 9.136 265.463 9.064 265.799 9.144C266.695 9.352 267.567 9.624 268.415 9.96C269.279 10.28 270.103 10.648 270.887 11.064C270.951 11.096 270.999 11.112 271.031 11.112C271.095 11.112 271.151 11.072 271.199 10.992C271.823 9.952 272.375 8.864 272.855 7.728C273.351 6.576 273.759 5.368 274.079 4.104C274.143 3.864 274.271 3.672 274.463 3.528C274.671 3.368 274.895 3.288 275.135 3.288C275.455 3.288 275.719 3.4 275.927 3.624C276.151 3.848 276.263 4.104 276.263 4.392C276.263 4.504 276.255 4.592 276.239 4.656C275.935 5.968 275.511 7.248 274.967 8.496C274.439 9.744 273.815 10.944 273.095 12.096C273.063 12.16 273.047 12.208 273.047 12.24C273.047 12.304 273.087 12.36 273.167 12.408C273.791 12.808 274.375 13.232 274.919 13.68C275.479 14.112 275.999 14.552 276.479 15Z" fill="black"/>
<path d="M150.194 20.448C150.466 20.464 150.682 20.584 150.842 20.808C151.018 21.032 151.082 21.28 151.034 21.552C150.97 21.84 150.818 22.064 150.578 22.224C150.354 22.4 150.106 22.472 149.834 22.44C148.714 22.328 147.37 22.12 145.802 21.816C144.25 21.512 142.658 21.088 141.026 20.544C140.962 20.528 140.898 20.536 140.834 20.568C139.202 21.192 137.546 21.656 135.866 21.96C134.186 22.264 132.666 22.464 131.306 22.56C131.034 22.576 130.786 22.488 130.562 22.296C130.338 22.12 130.202 21.888 130.154 21.6C130.122 21.328 130.194 21.088 130.37 20.88C130.546 20.656 130.77 20.536 131.042 20.52C132.274 20.424 133.45 20.288 134.57 20.112C135.69 19.92 136.754 19.688 137.762 19.416C137.842 19.4 137.882 19.376 137.882 19.344C137.882 19.296 137.85 19.256 137.786 19.224C136.906 18.792 136.074 18.328 135.29 17.832C135.226 17.8 135.162 17.792 135.098 17.808C134.042 18.256 132.978 18.608 131.906 18.864C131.858 18.88 131.786 18.888 131.69 18.888C131.45 18.888 131.234 18.816 131.042 18.672C130.85 18.512 130.73 18.312 130.682 18.072C130.666 18.04 130.658 18 130.658 17.952C130.658 17.904 130.658 17.864 130.658 17.832C130.658 17.608 130.73 17.408 130.874 17.232C131.018 17.056 131.202 16.944 131.426 16.896C133.698 16.4 135.722 15.496 137.498 14.184C137.562 14.152 137.586 14.12 137.57 14.088C137.554 14.04 137.514 14.016 137.45 14.016H135.218C134.786 14.016 134.41 13.864 134.09 13.56C133.786 13.256 133.634 12.88 133.634 12.432V6.744C133.634 6.312 133.786 5.944 134.09 5.64C134.41 5.32 134.786 5.16 135.218 5.16H138.194C138.258 5.16 138.314 5.136 138.362 5.088C138.49 4.976 138.61 4.856 138.722 4.728C138.85 4.6 138.962 4.456 139.058 4.296C139.09 4.248 139.09 4.208 139.058 4.176C139.042 4.144 139.01 4.128 138.962 4.128H131.594C131.322 4.128 131.082 4.032 130.874 3.84C130.682 3.648 130.586 3.408 130.586 3.12C130.586 2.848 130.682 2.616 130.874 2.424C131.082 2.216 131.322 2.112 131.594 2.112H149.546C149.818 2.112 150.05 2.216 150.242 2.424C150.45 2.616 150.554 2.848 150.554 3.12C150.554 3.392 150.458 3.632 150.266 3.84C150.074 4.032 149.834 4.128 149.546 4.128H141.626C141.53 4.128 141.474 4.168 141.458 4.248C141.394 4.376 141.33 4.504 141.266 4.632C141.202 4.744 141.13 4.864 141.05 4.992C141.002 5.104 141.034 5.16 141.146 5.16H145.97C146.402 5.16 146.77 5.312 147.074 5.616C147.394 5.92 147.554 6.296 147.554 6.744V12.432C147.554 12.864 147.394 13.24 147.074 13.56C146.77 13.864 146.402 14.016 145.97 14.016H140.834C140.77 14.016 140.714 14.04 140.666 14.088C140.506 14.248 140.338 14.408 140.162 14.568C139.986 14.728 139.802 14.888 139.61 15.048C139.562 15.08 139.546 15.12 139.562 15.168C139.578 15.2 139.618 15.216 139.682 15.216H145.634C145.97 15.216 146.234 15.328 146.426 15.552C146.634 15.776 146.738 16.032 146.738 16.32C146.738 16.448 146.714 16.584 146.666 16.728C146.618 16.856 146.53 16.976 146.402 17.088C146.018 17.472 145.61 17.832 145.178 18.168C144.746 18.488 144.298 18.792 143.834 19.08C143.69 19.16 143.69 19.216 143.834 19.248C144.826 19.52 145.85 19.76 146.906 19.968C147.978 20.16 149.074 20.32 150.194 20.448ZM145.442 7.632C145.538 7.632 145.586 7.584 145.586 7.488V7.128C145.586 7.032 145.538 6.984 145.442 6.984H135.746C135.65 6.984 135.602 7.032 135.602 7.128V7.488C135.602 7.584 135.65 7.632 135.746 7.632H145.442ZM135.602 9.768C135.602 9.864 135.65 9.912 135.746 9.912H145.442C145.538 9.912 145.586 9.864 145.586 9.768V9.408C145.586 9.312 145.538 9.264 145.442 9.264H135.746C135.65 9.264 135.602 9.312 135.602 9.408V9.768ZM145.586 11.688C145.586 11.592 145.538 11.544 145.442 11.544H135.746C135.65 11.544 135.602 11.592 135.602 11.688V12.048C135.602 12.144 135.65 12.192 135.746 12.192H145.442C145.538 12.192 145.586 12.144 145.586 12.048V11.688ZM142.97 17.232C143.034 17.2 143.058 17.168 143.042 17.136C143.026 17.088 142.978 17.064 142.898 17.064H138.362C138.298 17.064 138.258 17.088 138.242 17.136C138.226 17.168 138.25 17.2 138.314 17.232C138.698 17.424 139.09 17.608 139.49 17.784C139.906 17.96 140.33 18.128 140.762 18.288C140.81 18.32 140.874 18.32 140.954 18.288C141.322 18.128 141.674 17.96 142.01 17.784C142.346 17.608 142.666 17.424 142.97 17.232Z" fill="#00550A"/>
</svg>
