<svg width="186" height="30" viewBox="0 0 186 30" fill="none" xmlns="http://www.w3.org/2000/svg">
<path d="M12.312 11.256C12.312 11.384 12.376 11.448 12.504 11.448H19.64C20.216 11.448 20.7067 11.6507 21.112 12.056C21.5387 12.4613 21.752 12.9627 21.752 13.56V26.104C21.752 26.68 21.5493 27.1707 21.144 27.576C20.7387 28.0027 20.2373 28.216 19.64 28.216H1.496C1.112 28.216 0.781333 28.0773 0.504 27.8C0.226667 27.5227 0.0880003 27.192 0.0880003 26.808C0.0880003 26.424 0.226667 26.0933 0.504 25.816C0.781333 25.5387 1.112 25.4 1.496 25.4H18.712C18.84 25.4 18.904 25.336 18.904 25.208V21.08C18.904 20.952 18.84 20.888 18.712 20.888H2.744C2.36 20.888 2.02933 20.76 1.752 20.504C1.47467 20.2267 1.336 19.896 1.336 19.512C1.336 19.128 1.47467 18.7973 1.752 18.52C2.02933 18.2427 2.36 18.104 2.744 18.104H18.712C18.84 18.104 18.904 18.04 18.904 17.912V14.456C18.904 14.328 18.84 14.264 18.712 14.264H1.496C1.112 14.264 0.781333 14.1253 0.504 13.848C0.226667 13.5707 0.0880003 13.24 0.0880003 12.856C0.0880003 12.4507 0.226667 12.12 0.504 11.864C0.781333 11.5867 1.112 11.448 1.496 11.448H9.304C9.432 11.448 9.496 11.384 9.496 11.256V2.52C9.496 2.15733 9.63467 1.83733 9.912 1.56C10.1893 1.28267 10.52 1.144 10.904 1.144C11.288 1.144 11.6187 1.28267 11.896 1.56C12.1733 1.816 12.312 2.136 12.312 2.52V11.256ZM4.6 10.008C3.81067 8.13067 2.68 6.328 1.208 4.6C0.973334 4.32266 0.856 4.01333 0.856 3.672C0.856 3.20267 1.048 2.84 1.432 2.584C1.70933 2.37067 2.02933 2.264 2.392 2.264C2.92533 2.264 3.34133 2.46667 3.64 2.872C4.00267 3.36267 4.39733 3.94933 4.824 4.632C5.272 5.31466 5.69867 6.02933 6.104 6.776C6.53067 7.52267 6.88267 8.248 7.16 8.952C7.224 9.10133 7.256 9.272 7.256 9.464C7.256 9.80533 7.128 10.1253 6.872 10.424C6.63733 10.7227 6.30667 10.872 5.88 10.872C5.26133 10.872 4.83467 10.584 4.6 10.008ZM15.288 10.616C14.968 10.36 14.808 10.0293 14.808 9.624C14.808 9.304 14.9253 9.00533 15.16 8.728C15.8213 7.98133 16.4507 7.128 17.048 6.168C17.6667 5.208 18.2 4.216 18.648 3.192C18.9253 2.59467 19.384 2.296 20.024 2.296C20.4507 2.296 20.792 2.43467 21.048 2.712C21.3253 2.98933 21.464 3.30933 21.464 3.672C21.464 3.75733 21.4533 3.84267 21.432 3.928C21.4107 4.01333 21.3787 4.09867 21.336 4.184C21.0373 4.824 20.664 5.53867 20.216 6.328C19.7893 7.096 19.3307 7.85333 18.84 8.6C18.3493 9.32533 17.8693 9.95467 17.4 10.488C17.1227 10.7867 16.76 10.936 16.312 10.936C15.928 10.936 15.5867 10.8293 15.288 10.616ZM45.176 3.512C45.176 3.64 45.24 3.704 45.368 3.704H55.32C55.704 3.704 56.024 3.84267 56.28 4.12C56.5573 4.376 56.696 4.696 56.696 5.08C56.696 5.44267 56.5573 5.76267 56.28 6.04C56.024 6.31733 55.704 6.456 55.32 6.456H34.232C34.104 6.456 34.04 6.52 34.04 6.648V12.152C34.04 13.7307 33.9973 15.448 33.912 17.304C33.848 19.1387 33.6987 20.984 33.464 22.84C33.2293 24.696 32.8773 26.4347 32.408 28.056C32.3227 28.3973 32.1307 28.664 31.832 28.856C31.5547 29.0693 31.2347 29.176 30.872 29.176C30.4667 29.176 30.136 29.0373 29.88 28.76C29.624 28.4827 29.496 28.1733 29.496 27.832C29.496 27.7467 29.496 27.672 29.496 27.608C29.5173 27.544 29.5387 27.4693 29.56 27.384C29.8587 26.4667 30.136 25.3467 30.392 24.024C30.648 22.68 30.8507 21.0373 31 19.096C31.1493 17.1547 31.224 14.84 31.224 12.152V5.816C31.224 5.24 31.4267 4.74933 31.832 4.344C32.2373 3.91733 32.7387 3.704 33.336 3.704H42.168C42.296 3.704 42.36 3.64 42.36 3.512V2.264C42.36 1.88 42.4987 1.54933 42.776 1.272C43.0533 0.994666 43.384 0.855999 43.768 0.855999C44.152 0.855999 44.4827 0.994666 44.76 1.272C45.0373 1.54933 45.176 1.88 45.176 2.264V3.512ZM46.136 11.704C46.136 11.832 46.2 11.896 46.328 11.896H54.392C54.7547 11.896 55.064 12.0347 55.32 12.312C55.5973 12.568 55.736 12.8773 55.736 13.24C55.736 13.624 55.5973 13.944 55.32 14.2C55.064 14.456 54.7547 14.584 54.392 14.584H46.328C46.2 14.584 46.136 14.648 46.136 14.776V18.168C46.136 18.296 46.2 18.36 46.328 18.36H51.224C51.8 18.36 52.2907 18.5627 52.696 18.968C53.1227 19.3733 53.336 19.8747 53.336 20.472V26.616C53.336 27.192 53.1333 27.6827 52.728 28.088C52.3227 28.5147 51.8213 28.728 51.224 28.728H38.232C37.656 28.728 37.1547 28.5253 36.728 28.12C36.3227 27.7147 36.12 27.2133 36.12 26.616V20.472C36.12 19.896 36.3227 19.4053 36.728 19C37.1333 18.5733 37.6347 18.36 38.232 18.36H43.128C43.256 18.36 43.32 18.296 43.32 18.168V8.92C43.32 8.51467 43.4587 8.184 43.736 7.928C44.0133 7.65067 44.344 7.512 44.728 7.512C45.112 7.512 45.4427 7.65067 45.72 7.928C45.9973 8.184 46.136 8.51467 46.136 8.92V11.704ZM38.904 25.88C38.904 26.008 38.968 26.072 39.096 26.072H50.36C50.488 26.072 50.552 26.008 50.552 25.88V21.208C50.552 21.08 50.488 21.016 50.36 21.016H39.096C38.968 21.016 38.904 21.08 38.904 21.208V25.88ZM76.28 26.392C75.8747 26.4347 75.5013 26.3067 75.16 26.008C74.8187 25.7093 74.648 25.336 74.648 24.888C74.648 24.5467 74.7653 24.248 75 23.992C75.2347 23.736 75.5227 23.576 75.864 23.512C78.4667 23.1067 80.4613 22.232 81.848 20.888C83.256 19.544 83.96 17.8267 83.96 15.736C83.96 14.4987 83.6613 13.368 83.064 12.344C82.4667 11.32 81.6453 10.4987 80.6 9.88C79.576 9.24 78.424 8.888 77.144 8.824C76.9733 8.824 76.8667 8.90933 76.824 9.08C76.376 11.1067 75.8213 13.048 75.16 14.904C74.52 16.7387 73.784 18.3813 72.952 19.832C72.1413 21.2613 71.2667 22.392 70.328 23.224C69.4107 24.056 68.4507 24.472 67.448 24.472C67.192 24.472 66.936 24.44 66.68 24.376C65.6133 24.12 64.8027 23.48 64.248 22.456C63.7147 21.432 63.448 20.2267 63.448 18.84C63.448 17.5813 63.6613 16.2693 64.088 14.904C64.536 13.5387 65.1973 12.2587 66.072 11.064C67.3307 9.35733 68.8667 8.088 70.68 7.256C72.5147 6.424 74.36 6.008 76.216 6.008C77.752 6.008 79.2133 6.27467 80.6 6.808C82.008 7.34133 83.224 8.14133 84.248 9.208C85.2933 10.2533 86.0293 11.544 86.456 13.08C86.712 13.9333 86.84 14.8293 86.84 15.768C86.84 16.92 86.6267 18.072 86.2 19.224C85.7947 20.376 85.1653 21.4533 84.312 22.456C83.4587 23.4373 82.36 24.28 81.016 24.984C79.6933 25.6667 78.1147 26.136 76.28 26.392ZM66.52 20.984C66.776 21.432 67.096 21.656 67.48 21.656C67.992 21.656 68.5467 21.2827 69.144 20.536C69.7627 19.7893 70.3707 18.808 70.968 17.592C71.5653 16.376 72.12 15.0533 72.632 13.624C73.144 12.1733 73.5493 10.7653 73.848 9.4V9.368C73.848 9.21867 73.72 9.144 73.464 9.144C73.4 9.144 73.336 9.15467 73.272 9.176C73.208 9.176 73.144 9.18667 73.08 9.208C71.8427 9.57067 70.776 10.1253 69.88 10.872C69.0053 11.5973 68.28 12.4293 67.704 13.368C67.1493 14.3067 66.7333 15.256 66.456 16.216C66.2 17.1547 66.072 18.0293 66.072 18.84C66.072 19.736 66.2213 20.4507 66.52 20.984ZM120.312 6.84C119.885 6.84 119.587 6.62667 119.416 6.2C118.883 4.856 118.125 3.71467 117.144 2.776C116.931 2.56267 116.824 2.33867 116.824 2.104C116.824 1.86933 116.92 1.656 117.112 1.464C117.325 1.25067 117.56 1.144 117.816 1.144C118.051 1.144 118.275 1.22933 118.488 1.4C119.107 1.976 119.619 2.56266 120.024 3.16C120.429 3.75733 120.824 4.504 121.208 5.4C121.272 5.528 121.304 5.66667 121.304 5.816C121.304 6.072 121.208 6.30667 121.016 6.52C120.845 6.73333 120.611 6.84 120.312 6.84ZM117.624 8.024C117.197 8.024 116.899 7.81067 116.728 7.384C116.472 6.70133 116.173 6.11467 115.832 5.624C115.491 5.112 115.064 4.62133 114.552 4.152C114.339 3.96 114.232 3.704 114.232 3.384C114.232 3.128 114.307 2.91467 114.456 2.744C114.648 2.53067 114.904 2.424 115.224 2.424C115.501 2.424 115.725 2.50933 115.896 2.68C117.027 3.704 117.923 5.00533 118.584 6.584C118.648 6.712 118.68 6.84 118.68 6.968C118.68 7.24533 118.573 7.49067 118.36 7.704C118.168 7.91733 117.923 8.024 117.624 8.024ZM114.04 9.464C112.888 9.61333 111.693 9.73067 110.456 9.816C109.24 9.88 108.013 9.912 106.776 9.912C104.323 9.912 102.008 9.752 99.832 9.432C99.4907 9.368 99.2027 9.208 98.968 8.952C98.7333 8.67467 98.616 8.36533 98.616 8.024C98.616 7.55467 98.7867 7.192 99.128 6.936C99.4907 6.65867 99.8747 6.54133 100.28 6.584C101.048 6.69067 101.976 6.79733 103.064 6.904C104.173 6.98933 105.411 7.032 106.776 7.032C107.8 7.032 108.899 7 110.072 6.936C111.267 6.85067 112.525 6.73333 113.848 6.584C114.253 6.54133 114.605 6.65867 114.904 6.936C115.203 7.192 115.352 7.53333 115.352 7.96C115.352 8.32267 115.224 8.65333 114.968 8.952C114.712 9.22933 114.403 9.4 114.04 9.464ZM117.336 24.44C115.565 24.9307 113.859 25.3253 112.216 25.624C110.595 25.9013 109.027 26.04 107.512 26.04C105.379 26.04 103.363 25.72 101.464 25.08C99.5653 24.44 97.7627 23.3733 96.056 21.88C95.736 21.5813 95.576 21.2187 95.576 20.792C95.576 20.3867 95.704 20.0453 95.96 19.768C96.2587 19.448 96.6213 19.288 97.048 19.288C97.432 19.288 97.7627 19.416 98.04 19.672C99.2987 20.7173 100.685 21.56 102.2 22.2C103.715 22.8187 105.507 23.128 107.576 23.128C108.835 23.128 110.221 23 111.736 22.744C113.251 22.488 114.915 22.0827 116.728 21.528C116.813 21.5067 116.888 21.496 116.952 21.496C117.016 21.4747 117.091 21.464 117.176 21.464C117.539 21.464 117.848 21.6027 118.104 21.88C118.381 22.136 118.52 22.4667 118.52 22.872C118.52 23.2133 118.413 23.5333 118.2 23.832C117.987 24.1307 117.699 24.3333 117.336 24.44ZM135.96 11.704C136.259 12.3653 136.547 13.144 136.824 14.04C137.101 14.9147 137.347 15.8213 137.56 16.76C137.581 16.824 137.592 16.9093 137.592 17.016C137.592 17.3787 137.453 17.6987 137.176 17.976C136.92 18.2533 136.6 18.392 136.216 18.392C135.917 18.392 135.64 18.2853 135.384 18.072C135.149 17.8587 135 17.6027 134.936 17.304C134.915 17.176 134.883 17.048 134.84 16.92C134.819 16.792 134.787 16.664 134.744 16.536C134.723 16.4293 134.648 16.3867 134.52 16.408C134.264 16.4933 133.997 16.568 133.72 16.632C133.464 16.696 133.197 16.7707 132.92 16.856C132.813 16.8987 132.76 16.9627 132.76 17.048V27.672C132.76 28.0347 132.621 28.3547 132.344 28.632C132.088 28.9093 131.768 29.048 131.384 29.048C131.021 29.048 130.701 28.9093 130.424 28.632C130.147 28.376 130.008 28.056 130.008 27.672V17.56C130.008 17.4107 129.944 17.3573 129.816 17.4C129.283 17.464 128.76 17.5173 128.248 17.56C127.757 17.5813 127.309 17.6133 126.904 17.656C126.435 17.6773 126.051 17.528 125.752 17.208C125.475 16.8667 125.336 16.4933 125.336 16.088C125.336 15.832 125.389 15.576 125.496 15.32C125.624 15.064 125.816 14.8507 126.072 14.68C126.499 14.3813 126.915 14.04 127.32 13.656C127.725 13.2507 128.12 12.824 128.504 12.376C128.547 12.2907 128.557 12.2053 128.536 12.12C127.939 11.0533 127.235 10.1147 126.424 9.304C126.061 8.94133 125.88 8.504 125.88 7.992C125.88 7.56533 126.019 7.18133 126.296 6.84C127.405 5.47467 128.216 3.84267 128.728 1.944C128.813 1.64533 128.984 1.4 129.24 1.208C129.496 0.994665 129.773 0.887999 130.072 0.887999C130.456 0.887999 130.765 1.016 131 1.272C131.256 1.50667 131.384 1.79467 131.384 2.136C131.384 2.28533 131.373 2.40267 131.352 2.488C130.797 4.62133 129.997 6.38133 128.952 7.768C128.888 7.85333 128.888 7.93867 128.952 8.024C129.101 8.17333 129.283 8.38667 129.496 8.664C129.731 8.92 129.965 9.21867 130.2 9.56C130.243 9.624 130.285 9.656 130.328 9.656C130.392 9.656 130.435 9.624 130.456 9.56C130.968 8.664 131.427 7.704 131.832 6.68C132.259 5.656 132.6 4.61067 132.856 3.544C133.027 2.88266 133.453 2.552 134.136 2.552C134.541 2.552 134.872 2.69066 135.128 2.968C135.384 3.24533 135.512 3.56533 135.512 3.928C135.512 4.056 135.501 4.152 135.48 4.216C134.477 8.248 132.76 11.6507 130.328 14.424C130.264 14.488 130.243 14.5413 130.264 14.584C130.285 14.6267 130.339 14.6373 130.424 14.616C130.957 14.5093 131.501 14.4027 132.056 14.296C132.611 14.1893 133.155 14.0613 133.688 13.912C133.795 13.8907 133.827 13.8053 133.784 13.656L133.4 12.76C133.315 12.5893 133.272 12.3867 133.272 12.152C133.272 11.576 133.539 11.1707 134.072 10.936C134.264 10.872 134.445 10.84 134.616 10.84C134.915 10.84 135.181 10.9147 135.416 11.064C135.672 11.2133 135.853 11.4267 135.96 11.704ZM138.616 2.264H150.104C150.68 2.264 151.171 2.47733 151.576 2.904C151.981 3.30933 152.163 3.8 152.12 4.376C152.099 5.16533 152.056 6.02933 151.992 6.968C151.949 7.88533 151.885 8.76 151.8 9.592C151.736 10.424 151.661 11.1173 151.576 11.672C151.341 13.0373 150.787 13.9973 149.912 14.552C149.037 15.0853 147.747 15.2987 146.04 15.192C145.656 15.1493 145.336 14.9893 145.08 14.712C144.845 14.4347 144.728 14.1147 144.728 13.752C144.728 13.3253 144.877 12.9733 145.176 12.696C145.496 12.4187 145.859 12.3013 146.264 12.344C146.776 12.408 147.192 12.44 147.512 12.44C147.917 12.44 148.216 12.3547 148.408 12.184C148.621 12.0133 148.771 11.672 148.856 11.16C148.984 10.4987 149.091 9.60267 149.176 8.472C149.261 7.34133 149.325 6.232 149.368 5.144C149.368 5.016 149.304 4.952 149.176 4.952H145.976C145.891 4.952 145.827 5.00533 145.784 5.112C145.464 6.69067 144.931 8.13067 144.184 9.432C143.437 10.7333 142.595 11.864 141.656 12.824C140.717 13.7627 139.789 14.52 138.872 15.096C138.68 15.224 138.477 15.288 138.264 15.288C137.688 15.288 137.293 15.0107 137.08 14.456C137.059 14.3493 137.027 14.2533 136.984 14.168C136.963 14.0613 136.952 13.9547 136.952 13.848C136.952 13.2933 137.208 12.824 137.72 12.44C139.021 11.5653 140.12 10.4987 141.016 9.24C141.912 7.98133 142.541 6.62667 142.904 5.176C142.947 5.02667 142.893 4.952 142.744 4.952H138.616C138.253 4.952 137.933 4.824 137.656 4.568C137.4 4.29067 137.272 3.97067 137.272 3.608C137.272 3.24533 137.4 2.936 137.656 2.68C137.933 2.40266 138.253 2.264 138.616 2.264ZM149.24 16.248C149.816 16.248 150.307 16.4613 150.712 16.888C151.139 17.2933 151.352 17.784 151.352 18.36V26.648C151.352 27.224 151.149 27.7147 150.744 28.12C150.339 28.5467 149.837 28.76 149.24 28.76H140.6C140.024 28.76 139.523 28.5467 139.096 28.12C138.691 27.7147 138.488 27.224 138.488 26.648V18.36C138.488 17.784 138.691 17.2933 139.096 16.888C139.501 16.4613 140.003 16.248 140.6 16.248H149.24ZM128.376 18.008C128.803 18.008 129.155 18.168 129.432 18.488C129.709 18.7867 129.827 19.1387 129.784 19.544C129.677 20.5893 129.485 21.7733 129.208 23.096C128.931 24.4187 128.6 25.6453 128.216 26.776C128.109 27.096 127.917 27.352 127.64 27.544C127.363 27.7573 127.053 27.864 126.712 27.864C126.328 27.864 126.008 27.7467 125.752 27.512C125.517 27.2773 125.4 27 125.4 26.68C125.4 26.5307 125.432 26.3813 125.496 26.232C125.923 25.1013 126.253 23.9493 126.488 22.776C126.744 21.6027 126.947 20.408 127.096 19.192C127.139 18.8293 127.277 18.5413 127.512 18.328C127.768 18.1147 128.056 18.008 128.376 18.008ZM135.64 19.16C135.811 19.5653 135.981 20.088 136.152 20.728C136.344 21.3467 136.515 21.9867 136.664 22.648C136.813 23.288 136.931 23.864 137.016 24.376C137.037 24.44 137.048 24.536 137.048 24.664C137.048 25.0053 136.909 25.3147 136.632 25.592C136.376 25.848 136.056 25.976 135.672 25.976C135.395 25.976 135.149 25.88 134.936 25.688C134.723 25.496 134.595 25.2507 134.552 24.952C134.424 24.1413 134.232 23.2773 133.976 22.36C133.72 21.4213 133.443 20.6853 133.144 20.152C133.037 19.9813 132.984 19.768 132.984 19.512C132.984 18.9787 133.24 18.6053 133.752 18.392C133.923 18.328 134.093 18.296 134.264 18.296C134.904 18.296 135.363 18.584 135.64 19.16ZM141.24 25.816C141.24 25.944 141.304 26.008 141.432 26.008H148.376C148.504 26.008 148.568 25.944 148.568 25.816V19.192C148.568 19.064 148.504 19 148.376 19H141.432C141.304 19 141.24 19.064 141.24 19.192V25.816ZM183.288 13.624C182.328 13.1973 181.272 12.632 180.12 11.928C178.989 11.224 177.848 10.456 176.696 9.624C175.565 8.792 174.499 7.97067 173.496 7.16C172.515 6.328 171.704 5.58133 171.064 4.92C171 4.81333 170.915 4.81333 170.808 4.92C170.211 5.624 169.464 6.37067 168.568 7.16C167.672 7.94933 166.691 8.73867 165.624 9.528C164.557 10.3173 163.469 11.0533 162.36 11.736C161.272 12.4187 160.237 12.9947 159.256 13.464C159.085 13.5493 158.893 13.592 158.68 13.592C158.339 13.592 158.019 13.4747 157.72 13.24C157.443 12.984 157.304 12.6427 157.304 12.216C157.304 11.9387 157.368 11.6827 157.496 11.448C157.645 11.2133 157.848 11.0427 158.104 10.936C159.469 10.296 160.856 9.48533 162.264 8.504C163.693 7.50133 165.037 6.44533 166.296 5.336C167.576 4.22667 168.664 3.16 169.56 2.136C169.901 1.73067 170.36 1.528 170.936 1.528C171.448 1.528 171.896 1.72 172.28 2.104C172.899 2.76533 173.667 3.50133 174.584 4.312C175.501 5.12267 176.493 5.944 177.56 6.776C178.648 7.58667 179.757 8.35467 180.888 9.08C182.019 9.80533 183.117 10.4133 184.184 10.904C184.483 11.032 184.717 11.2347 184.888 11.512C185.059 11.7893 185.144 12.0773 185.144 12.376C185.144 12.7813 185.005 13.112 184.728 13.368C184.472 13.624 184.173 13.752 183.832 13.752C183.619 13.752 183.437 13.7093 183.288 13.624ZM175.48 29.016C175.096 29.016 174.765 28.8773 174.488 28.6C174.211 28.344 174.072 28.024 174.072 27.64V13.592C174.072 13.208 174.211 12.8773 174.488 12.6C174.765 12.3227 175.096 12.184 175.48 12.184C175.864 12.184 176.195 12.3227 176.472 12.6C176.749 12.856 176.888 13.1867 176.888 13.592V27.64C176.888 28.0027 176.749 28.3227 176.472 28.6C176.195 28.8773 175.864 29.016 175.48 29.016ZM160.024 28.856C159.939 28.8773 159.864 28.888 159.8 28.888C159.736 28.9093 159.661 28.92 159.576 28.92C159.235 28.92 158.925 28.792 158.648 28.536C158.371 28.28 158.232 27.9493 158.232 27.544C158.232 26.968 158.52 26.5413 159.096 26.264C160.035 25.8373 160.845 25.336 161.528 24.76C162.232 24.184 162.819 23.4373 163.288 22.52C163.757 21.6027 164.12 20.4293 164.376 19C164.653 17.5707 164.824 15.7893 164.888 13.656C164.909 13.272 165.048 12.952 165.304 12.696C165.581 12.4187 165.923 12.28 166.328 12.28C166.712 12.28 167.032 12.4187 167.288 12.696C167.565 12.952 167.704 13.272 167.704 13.656C167.64 16.5787 167.331 19.0533 166.776 21.08C166.243 23.0853 165.421 24.7173 164.312 25.976C163.203 27.2347 161.773 28.1947 160.024 28.856Z" fill="black"/>
</svg>
