<svg width="212" height="42" viewBox="0 0 212 42" fill="none" xmlns="http://www.w3.org/2000/svg">
<path d="M27.312 19.256C27.312 19.384 27.376 19.448 27.504 19.448H34.64C35.216 19.448 35.7067 19.6507 36.112 20.056C36.5387 20.4613 36.752 20.9627 36.752 21.56V34.104C36.752 34.68 36.5493 35.1707 36.144 35.576C35.7387 36.0027 35.2373 36.216 34.64 36.216H16.496C16.112 36.216 15.7813 36.0773 15.504 35.8C15.2267 35.5227 15.088 35.192 15.088 34.808C15.088 34.424 15.2267 34.0933 15.504 33.816C15.7813 33.5387 16.112 33.4 16.496 33.4H33.712C33.84 33.4 33.904 33.336 33.904 33.208V29.08C33.904 28.952 33.84 28.888 33.712 28.888H17.744C17.36 28.888 17.0293 28.76 16.752 28.504C16.4747 28.2267 16.336 27.896 16.336 27.512C16.336 27.128 16.4747 26.7973 16.752 26.52C17.0293 26.2427 17.36 26.104 17.744 26.104H33.712C33.84 26.104 33.904 26.04 33.904 25.912V22.456C33.904 22.328 33.84 22.264 33.712 22.264H16.496C16.112 22.264 15.7813 22.1253 15.504 21.848C15.2267 21.5707 15.088 21.24 15.088 20.856C15.088 20.4507 15.2267 20.12 15.504 19.864C15.7813 19.5867 16.112 19.448 16.496 19.448H24.304C24.432 19.448 24.496 19.384 24.496 19.256V10.52C24.496 10.1573 24.6347 9.83733 24.912 9.56C25.1893 9.28267 25.52 9.144 25.904 9.144C26.288 9.144 26.6187 9.28267 26.896 9.56C27.1733 9.816 27.312 10.136 27.312 10.52V19.256ZM19.6 18.008C18.8107 16.1307 17.68 14.328 16.208 12.6C15.9733 12.3227 15.856 12.0133 15.856 11.672C15.856 11.2027 16.048 10.84 16.432 10.584C16.7093 10.3707 17.0293 10.264 17.392 10.264C17.9253 10.264 18.3413 10.4667 18.64 10.872C19.0027 11.3627 19.3973 11.9493 19.824 12.632C20.272 13.3147 20.6987 14.0293 21.104 14.776C21.5307 15.5227 21.8827 16.248 22.16 16.952C22.224 17.1013 22.256 17.272 22.256 17.464C22.256 17.8053 22.128 18.1253 21.872 18.424C21.6373 18.7227 21.3067 18.872 20.88 18.872C20.2613 18.872 19.8347 18.584 19.6 18.008ZM30.288 18.616C29.968 18.36 29.808 18.0293 29.808 17.624C29.808 17.304 29.9253 17.0053 30.16 16.728C30.8213 15.9813 31.4507 15.128 32.048 14.168C32.6667 13.208 33.2 12.216 33.648 11.192C33.9253 10.5947 34.384 10.296 35.024 10.296C35.4507 10.296 35.792 10.4347 36.048 10.712C36.3253 10.9893 36.464 11.3093 36.464 11.672C36.464 11.7573 36.4533 11.8427 36.432 11.928C36.4107 12.0133 36.3787 12.0987 36.336 12.184C36.0373 12.824 35.664 13.5387 35.216 14.328C34.7893 15.096 34.3307 15.8533 33.84 16.6C33.3493 17.3253 32.8693 17.9547 32.4 18.488C32.1227 18.7867 31.76 18.936 31.312 18.936C30.928 18.936 30.5867 18.8293 30.288 18.616ZM60.176 11.512C60.176 11.64 60.24 11.704 60.368 11.704H70.32C70.704 11.704 71.024 11.8427 71.28 12.12C71.5573 12.376 71.696 12.696 71.696 13.08C71.696 13.4427 71.5573 13.7627 71.28 14.04C71.024 14.3173 70.704 14.456 70.32 14.456H49.232C49.104 14.456 49.04 14.52 49.04 14.648V20.152C49.04 21.7307 48.9973 23.448 48.912 25.304C48.848 27.1387 48.6987 28.984 48.464 30.84C48.2293 32.696 47.8773 34.4347 47.408 36.056C47.3227 36.3973 47.1307 36.664 46.832 36.856C46.5547 37.0693 46.2347 37.176 45.872 37.176C45.4667 37.176 45.136 37.0373 44.88 36.76C44.624 36.4827 44.496 36.1733 44.496 35.832C44.496 35.7467 44.496 35.672 44.496 35.608C44.5173 35.544 44.5387 35.4693 44.56 35.384C44.8587 34.4667 45.136 33.3467 45.392 32.024C45.648 30.68 45.8507 29.0373 46 27.096C46.1493 25.1547 46.224 22.84 46.224 20.152V13.816C46.224 13.24 46.4267 12.7493 46.832 12.344C47.2373 11.9173 47.7387 11.704 48.336 11.704H57.168C57.296 11.704 57.36 11.64 57.36 11.512V10.264C57.36 9.88 57.4987 9.54933 57.776 9.272C58.0533 8.99467 58.384 8.856 58.768 8.856C59.152 8.856 59.4827 8.99467 59.76 9.272C60.0373 9.54933 60.176 9.88 60.176 10.264V11.512ZM61.136 19.704C61.136 19.832 61.2 19.896 61.328 19.896H69.392C69.7547 19.896 70.064 20.0347 70.32 20.312C70.5973 20.568 70.736 20.8773 70.736 21.24C70.736 21.624 70.5973 21.944 70.32 22.2C70.064 22.456 69.7547 22.584 69.392 22.584H61.328C61.2 22.584 61.136 22.648 61.136 22.776V26.168C61.136 26.296 61.2 26.36 61.328 26.36H66.224C66.8 26.36 67.2907 26.5627 67.696 26.968C68.1227 27.3733 68.336 27.8747 68.336 28.472V34.616C68.336 35.192 68.1333 35.6827 67.728 36.088C67.3227 36.5147 66.8213 36.728 66.224 36.728H53.232C52.656 36.728 52.1547 36.5253 51.728 36.12C51.3227 35.7147 51.12 35.2133 51.12 34.616V28.472C51.12 27.896 51.3227 27.4053 51.728 27C52.1333 26.5733 52.6347 26.36 53.232 26.36H58.128C58.256 26.36 58.32 26.296 58.32 26.168V16.92C58.32 16.5147 58.4587 16.184 58.736 15.928C59.0133 15.6507 59.344 15.512 59.728 15.512C60.112 15.512 60.4427 15.6507 60.72 15.928C60.9973 16.184 61.136 16.5147 61.136 16.92V19.704ZM53.904 33.88C53.904 34.008 53.968 34.072 54.096 34.072H65.36C65.488 34.072 65.552 34.008 65.552 33.88V29.208C65.552 29.08 65.488 29.016 65.36 29.016H54.096C53.968 29.016 53.904 29.08 53.904 29.208V33.88ZM91.28 34.392C90.8747 34.4347 90.5013 34.3067 90.16 34.008C89.8187 33.7093 89.648 33.336 89.648 32.888C89.648 32.5467 89.7653 32.248 90 31.992C90.2347 31.736 90.5227 31.576 90.864 31.512C93.4667 31.1067 95.4613 30.232 96.848 28.888C98.256 27.544 98.96 25.8267 98.96 23.736C98.96 22.4987 98.6613 21.368 98.064 20.344C97.4667 19.32 96.6453 18.4987 95.6 17.88C94.576 17.24 93.424 16.888 92.144 16.824C91.9733 16.824 91.8667 16.9093 91.824 17.08C91.376 19.1067 90.8213 21.048 90.16 22.904C89.52 24.7387 88.784 26.3813 87.952 27.832C87.1413 29.2613 86.2667 30.392 85.328 31.224C84.4107 32.056 83.4507 32.472 82.448 32.472C82.192 32.472 81.936 32.44 81.68 32.376C80.6133 32.12 79.8027 31.48 79.248 30.456C78.7147 29.432 78.448 28.2267 78.448 26.84C78.448 25.5813 78.6613 24.2693 79.088 22.904C79.536 21.5387 80.1973 20.2587 81.072 19.064C82.3307 17.3573 83.8667 16.088 85.68 15.256C87.5147 14.424 89.36 14.008 91.216 14.008C92.752 14.008 94.2133 14.2747 95.6 14.808C97.008 15.3413 98.224 16.1413 99.248 17.208C100.293 18.2533 101.029 19.544 101.456 21.08C101.712 21.9333 101.84 22.8293 101.84 23.768C101.84 24.92 101.627 26.072 101.2 27.224C100.795 28.376 100.165 29.4533 99.312 30.456C98.4587 31.4373 97.36 32.28 96.016 32.984C94.6933 33.6667 93.1147 34.136 91.28 34.392ZM81.52 28.984C81.776 29.432 82.096 29.656 82.48 29.656C82.992 29.656 83.5467 29.2827 84.144 28.536C84.7627 27.7893 85.3707 26.808 85.968 25.592C86.5653 24.376 87.12 23.0533 87.632 21.624C88.144 20.1733 88.5493 18.7653 88.848 17.4V17.368C88.848 17.2187 88.72 17.144 88.464 17.144C88.4 17.144 88.336 17.1547 88.272 17.176C88.208 17.176 88.144 17.1867 88.08 17.208C86.8427 17.5707 85.776 18.1253 84.88 18.872C84.0053 19.5973 83.28 20.4293 82.704 21.368C82.1493 22.3067 81.7333 23.256 81.456 24.216C81.2 25.1547 81.072 26.0293 81.072 26.84C81.072 27.736 81.2213 28.4507 81.52 28.984ZM135.312 14.84C134.885 14.84 134.587 14.6267 134.416 14.2C133.883 12.856 133.125 11.7147 132.144 10.776C131.931 10.5627 131.824 10.3387 131.824 10.104C131.824 9.86933 131.92 9.656 132.112 9.464C132.325 9.25067 132.56 9.144 132.816 9.144C133.051 9.144 133.275 9.22933 133.488 9.4C134.107 9.976 134.619 10.5627 135.024 11.16C135.429 11.7573 135.824 12.504 136.208 13.4C136.272 13.528 136.304 13.6667 136.304 13.816C136.304 14.072 136.208 14.3067 136.016 14.52C135.845 14.7333 135.611 14.84 135.312 14.84ZM132.624 16.024C132.197 16.024 131.899 15.8107 131.728 15.384C131.472 14.7013 131.173 14.1147 130.832 13.624C130.491 13.112 130.064 12.6213 129.552 12.152C129.339 11.96 129.232 11.704 129.232 11.384C129.232 11.128 129.307 10.9147 129.456 10.744C129.648 10.5307 129.904 10.424 130.224 10.424C130.501 10.424 130.725 10.5093 130.896 10.68C132.027 11.704 132.923 13.0053 133.584 14.584C133.648 14.712 133.68 14.84 133.68 14.968C133.68 15.2453 133.573 15.4907 133.36 15.704C133.168 15.9173 132.923 16.024 132.624 16.024ZM129.04 17.464C127.888 17.6133 126.693 17.7307 125.456 17.816C124.24 17.88 123.013 17.912 121.776 17.912C119.323 17.912 117.008 17.752 114.832 17.432C114.491 17.368 114.203 17.208 113.968 16.952C113.733 16.6747 113.616 16.3653 113.616 16.024C113.616 15.5547 113.787 15.192 114.128 14.936C114.491 14.6587 114.875 14.5413 115.28 14.584C116.048 14.6907 116.976 14.7973 118.064 14.904C119.173 14.9893 120.411 15.032 121.776 15.032C122.8 15.032 123.899 15 125.072 14.936C126.267 14.8507 127.525 14.7333 128.848 14.584C129.253 14.5413 129.605 14.6587 129.904 14.936C130.203 15.192 130.352 15.5333 130.352 15.96C130.352 16.3227 130.224 16.6533 129.968 16.952C129.712 17.2293 129.403 17.4 129.04 17.464ZM132.336 32.44C130.565 32.9307 128.859 33.3253 127.216 33.624C125.595 33.9013 124.027 34.04 122.512 34.04C120.379 34.04 118.363 33.72 116.464 33.08C114.565 32.44 112.763 31.3733 111.056 29.88C110.736 29.5813 110.576 29.2187 110.576 28.792C110.576 28.3867 110.704 28.0453 110.96 27.768C111.259 27.448 111.621 27.288 112.048 27.288C112.432 27.288 112.763 27.416 113.04 27.672C114.299 28.7173 115.685 29.56 117.2 30.2C118.715 30.8187 120.507 31.128 122.576 31.128C123.835 31.128 125.221 31 126.736 30.744C128.251 30.488 129.915 30.0827 131.728 29.528C131.813 29.5067 131.888 29.496 131.952 29.496C132.016 29.4747 132.091 29.464 132.176 29.464C132.539 29.464 132.848 29.6027 133.104 29.88C133.381 30.136 133.52 30.4667 133.52 30.872C133.52 31.2133 133.413 31.5333 133.2 31.832C132.987 32.1307 132.699 32.3333 132.336 32.44ZM150.96 19.704C151.259 20.3653 151.547 21.144 151.824 22.04C152.101 22.9147 152.347 23.8213 152.56 24.76C152.581 24.824 152.592 24.9093 152.592 25.016C152.592 25.3787 152.453 25.6987 152.176 25.976C151.92 26.2533 151.6 26.392 151.216 26.392C150.917 26.392 150.64 26.2853 150.384 26.072C150.149 25.8587 150 25.6027 149.936 25.304C149.915 25.176 149.883 25.048 149.84 24.92C149.819 24.792 149.787 24.664 149.744 24.536C149.723 24.4293 149.648 24.3867 149.52 24.408C149.264 24.4933 148.997 24.568 148.72 24.632C148.464 24.696 148.197 24.7707 147.92 24.856C147.813 24.8987 147.76 24.9627 147.76 25.048V35.672C147.76 36.0347 147.621 36.3547 147.344 36.632C147.088 36.9093 146.768 37.048 146.384 37.048C146.021 37.048 145.701 36.9093 145.424 36.632C145.147 36.376 145.008 36.056 145.008 35.672V25.56C145.008 25.4107 144.944 25.3573 144.816 25.4C144.283 25.464 143.76 25.5173 143.248 25.56C142.757 25.5813 142.309 25.6133 141.904 25.656C141.435 25.6773 141.051 25.528 140.752 25.208C140.475 24.8667 140.336 24.4933 140.336 24.088C140.336 23.832 140.389 23.576 140.496 23.32C140.624 23.064 140.816 22.8507 141.072 22.68C141.499 22.3813 141.915 22.04 142.32 21.656C142.725 21.2507 143.12 20.824 143.504 20.376C143.547 20.2907 143.557 20.2053 143.536 20.12C142.939 19.0533 142.235 18.1147 141.424 17.304C141.061 16.9413 140.88 16.504 140.88 15.992C140.88 15.5653 141.019 15.1813 141.296 14.84C142.405 13.4747 143.216 11.8427 143.728 9.944C143.813 9.64533 143.984 9.4 144.24 9.208C144.496 8.99467 144.773 8.888 145.072 8.888C145.456 8.888 145.765 9.016 146 9.272C146.256 9.50667 146.384 9.79467 146.384 10.136C146.384 10.2853 146.373 10.4027 146.352 10.488C145.797 12.6213 144.997 14.3813 143.952 15.768C143.888 15.8533 143.888 15.9387 143.952 16.024C144.101 16.1733 144.283 16.3867 144.496 16.664C144.731 16.92 144.965 17.2187 145.2 17.56C145.243 17.624 145.285 17.656 145.328 17.656C145.392 17.656 145.435 17.624 145.456 17.56C145.968 16.664 146.427 15.704 146.832 14.68C147.259 13.656 147.6 12.6107 147.856 11.544C148.027 10.8827 148.453 10.552 149.136 10.552C149.541 10.552 149.872 10.6907 150.128 10.968C150.384 11.2453 150.512 11.5653 150.512 11.928C150.512 12.056 150.501 12.152 150.48 12.216C149.477 16.248 147.76 19.6507 145.328 22.424C145.264 22.488 145.243 22.5413 145.264 22.584C145.285 22.6267 145.339 22.6373 145.424 22.616C145.957 22.5093 146.501 22.4027 147.056 22.296C147.611 22.1893 148.155 22.0613 148.688 21.912C148.795 21.8907 148.827 21.8053 148.784 21.656L148.4 20.76C148.315 20.5893 148.272 20.3867 148.272 20.152C148.272 19.576 148.539 19.1707 149.072 18.936C149.264 18.872 149.445 18.84 149.616 18.84C149.915 18.84 150.181 18.9147 150.416 19.064C150.672 19.2133 150.853 19.4267 150.96 19.704ZM153.616 10.264H165.104C165.68 10.264 166.171 10.4773 166.576 10.904C166.981 11.3093 167.163 11.8 167.12 12.376C167.099 13.1653 167.056 14.0293 166.992 14.968C166.949 15.8853 166.885 16.76 166.8 17.592C166.736 18.424 166.661 19.1173 166.576 19.672C166.341 21.0373 165.787 21.9973 164.912 22.552C164.037 23.0853 162.747 23.2987 161.04 23.192C160.656 23.1493 160.336 22.9893 160.08 22.712C159.845 22.4347 159.728 22.1147 159.728 21.752C159.728 21.3253 159.877 20.9733 160.176 20.696C160.496 20.4187 160.859 20.3013 161.264 20.344C161.776 20.408 162.192 20.44 162.512 20.44C162.917 20.44 163.216 20.3547 163.408 20.184C163.621 20.0133 163.771 19.672 163.856 19.16C163.984 18.4987 164.091 17.6027 164.176 16.472C164.261 15.3413 164.325 14.232 164.368 13.144C164.368 13.016 164.304 12.952 164.176 12.952H160.976C160.891 12.952 160.827 13.0053 160.784 13.112C160.464 14.6907 159.931 16.1307 159.184 17.432C158.437 18.7333 157.595 19.864 156.656 20.824C155.717 21.7627 154.789 22.52 153.872 23.096C153.68 23.224 153.477 23.288 153.264 23.288C152.688 23.288 152.293 23.0107 152.08 22.456C152.059 22.3493 152.027 22.2533 151.984 22.168C151.963 22.0613 151.952 21.9547 151.952 21.848C151.952 21.2933 152.208 20.824 152.72 20.44C154.021 19.5653 155.12 18.4987 156.016 17.24C156.912 15.9813 157.541 14.6267 157.904 13.176C157.947 13.0267 157.893 12.952 157.744 12.952H153.616C153.253 12.952 152.933 12.824 152.656 12.568C152.4 12.2907 152.272 11.9707 152.272 11.608C152.272 11.2453 152.4 10.936 152.656 10.68C152.933 10.4027 153.253 10.264 153.616 10.264ZM164.24 24.248C164.816 24.248 165.307 24.4613 165.712 24.888C166.139 25.2933 166.352 25.784 166.352 26.36V34.648C166.352 35.224 166.149 35.7147 165.744 36.12C165.339 36.5467 164.837 36.76 164.24 36.76H155.6C155.024 36.76 154.523 36.5467 154.096 36.12C153.691 35.7147 153.488 35.224 153.488 34.648V26.36C153.488 25.784 153.691 25.2933 154.096 24.888C154.501 24.4613 155.003 24.248 155.6 24.248H164.24ZM143.376 26.008C143.803 26.008 144.155 26.168 144.432 26.488C144.709 26.7867 144.827 27.1387 144.784 27.544C144.677 28.5893 144.485 29.7733 144.208 31.096C143.931 32.4187 143.6 33.6453 143.216 34.776C143.109 35.096 142.917 35.352 142.64 35.544C142.363 35.7573 142.053 35.864 141.712 35.864C141.328 35.864 141.008 35.7467 140.752 35.512C140.517 35.2773 140.4 35 140.4 34.68C140.4 34.5307 140.432 34.3813 140.496 34.232C140.923 33.1013 141.253 31.9493 141.488 30.776C141.744 29.6027 141.947 28.408 142.096 27.192C142.139 26.8293 142.277 26.5413 142.512 26.328C142.768 26.1147 143.056 26.008 143.376 26.008ZM150.64 27.16C150.811 27.5653 150.981 28.088 151.152 28.728C151.344 29.3467 151.515 29.9867 151.664 30.648C151.813 31.288 151.931 31.864 152.016 32.376C152.037 32.44 152.048 32.536 152.048 32.664C152.048 33.0053 151.909 33.3147 151.632 33.592C151.376 33.848 151.056 33.976 150.672 33.976C150.395 33.976 150.149 33.88 149.936 33.688C149.723 33.496 149.595 33.2507 149.552 32.952C149.424 32.1413 149.232 31.2773 148.976 30.36C148.72 29.4213 148.443 28.6853 148.144 28.152C148.037 27.9813 147.984 27.768 147.984 27.512C147.984 26.9787 148.24 26.6053 148.752 26.392C148.923 26.328 149.093 26.296 149.264 26.296C149.904 26.296 150.363 26.584 150.64 27.16ZM156.24 33.816C156.24 33.944 156.304 34.008 156.432 34.008H163.376C163.504 34.008 163.568 33.944 163.568 33.816V27.192C163.568 27.064 163.504 27 163.376 27H156.432C156.304 27 156.24 27.064 156.24 27.192V33.816ZM198.288 21.624C197.328 21.1973 196.272 20.632 195.12 19.928C193.989 19.224 192.848 18.456 191.696 17.624C190.565 16.792 189.499 15.9707 188.496 15.16C187.515 14.328 186.704 13.5813 186.064 12.92C186 12.8133 185.915 12.8133 185.808 12.92C185.211 13.624 184.464 14.3707 183.568 15.16C182.672 15.9493 181.691 16.7387 180.624 17.528C179.557 18.3173 178.469 19.0533 177.36 19.736C176.272 20.4187 175.237 20.9947 174.256 21.464C174.085 21.5493 173.893 21.592 173.68 21.592C173.339 21.592 173.019 21.4747 172.72 21.24C172.443 20.984 172.304 20.6427 172.304 20.216C172.304 19.9387 172.368 19.6827 172.496 19.448C172.645 19.2133 172.848 19.0427 173.104 18.936C174.469 18.296 175.856 17.4853 177.264 16.504C178.693 15.5013 180.037 14.4453 181.296 13.336C182.576 12.2267 183.664 11.16 184.56 10.136C184.901 9.73067 185.36 9.528 185.936 9.528C186.448 9.528 186.896 9.72 187.28 10.104C187.899 10.7653 188.667 11.5013 189.584 12.312C190.501 13.1227 191.493 13.944 192.56 14.776C193.648 15.5867 194.757 16.3547 195.888 17.08C197.019 17.8053 198.117 18.4133 199.184 18.904C199.483 19.032 199.717 19.2347 199.888 19.512C200.059 19.7893 200.144 20.0773 200.144 20.376C200.144 20.7813 200.005 21.112 199.728 21.368C199.472 21.624 199.173 21.752 198.832 21.752C198.619 21.752 198.437 21.7093 198.288 21.624ZM190.48 37.016C190.096 37.016 189.765 36.8773 189.488 36.6C189.211 36.344 189.072 36.024 189.072 35.64V21.592C189.072 21.208 189.211 20.8773 189.488 20.6C189.765 20.3227 190.096 20.184 190.48 20.184C190.864 20.184 191.195 20.3227 191.472 20.6C191.749 20.856 191.888 21.1867 191.888 21.592V35.64C191.888 36.0027 191.749 36.3227 191.472 36.6C191.195 36.8773 190.864 37.016 190.48 37.016ZM175.024 36.856C174.939 36.8773 174.864 36.888 174.8 36.888C174.736 36.9093 174.661 36.92 174.576 36.92C174.235 36.92 173.925 36.792 173.648 36.536C173.371 36.28 173.232 35.9493 173.232 35.544C173.232 34.968 173.52 34.5413 174.096 34.264C175.035 33.8373 175.845 33.336 176.528 32.76C177.232 32.184 177.819 31.4373 178.288 30.52C178.757 29.6027 179.12 28.4293 179.376 27C179.653 25.5707 179.824 23.7893 179.888 21.656C179.909 21.272 180.048 20.952 180.304 20.696C180.581 20.4187 180.923 20.28 181.328 20.28C181.712 20.28 182.032 20.4187 182.288 20.696C182.565 20.952 182.704 21.272 182.704 21.656C182.64 24.5787 182.331 27.0533 181.776 29.08C181.243 31.0853 180.421 32.7173 179.312 33.976C178.203 35.2347 176.773 36.1947 175.024 36.856Z" fill="black"/>
</svg>
