<svg width="303" height="42" viewBox="0 0 303 42" fill="none" xmlns="http://www.w3.org/2000/svg">
<path d="M13.0731 21.04C12.9611 21.088 12.8411 21.112 12.7131 21.112C12.4731 21.112 12.2491 21.016 12.0411 20.824C11.8331 20.632 11.7291 20.384 11.7291 20.08C11.7291 19.856 11.7931 19.64 11.9211 19.432C12.0651 19.224 12.2491 19.08 12.4731 19C13.2731 18.664 14.0731 18.24 14.8731 17.728C15.6891 17.216 16.4811 16.656 17.2491 16.048C18.0171 15.44 18.7291 14.824 19.3851 14.2C20.0411 13.56 20.6171 12.968 21.1131 12.424C21.4331 12.088 21.8011 11.92 22.2171 11.92C22.6011 11.92 22.9451 12.056 23.2491 12.328C24.0331 13.096 24.9051 13.896 25.8651 14.728C26.8411 15.56 27.8651 16.352 28.9371 17.104C30.0091 17.84 31.0731 18.456 32.1291 18.952C32.3531 19.048 32.5291 19.2 32.6571 19.408C32.7851 19.6 32.8491 19.808 32.8491 20.032C32.8491 20.336 32.7531 20.584 32.5611 20.776C32.3851 20.968 32.1691 21.064 31.9131 21.064C31.8491 21.064 31.7851 21.056 31.7211 21.04C31.6571 21.008 31.5931 20.984 31.5291 20.968C30.7451 20.6 29.9211 20.16 29.0571 19.648C28.2091 19.12 27.3691 18.56 26.5371 17.968C25.7051 17.36 24.9291 16.752 24.2091 16.144C23.5051 15.52 22.8891 14.936 22.3611 14.392C22.2971 14.328 22.2411 14.32 22.1931 14.368C21.7611 14.848 21.1931 15.408 20.4891 16.048C19.8011 16.672 19.0331 17.304 18.1851 17.944C17.3371 18.584 16.4731 19.176 15.5931 19.72C14.7131 20.264 13.8731 20.704 13.0731 21.04ZM26.0811 20.92H18.4971C18.2251 20.92 17.9851 20.824 17.7771 20.632C17.5691 20.424 17.4651 20.176 17.4651 19.888C17.4651 19.616 17.5611 19.376 17.7531 19.168C17.9611 18.96 18.2091 18.856 18.4971 18.856H26.0811C26.3691 18.856 26.6091 18.96 26.8011 19.168C27.0091 19.376 27.1131 19.616 27.1131 19.888C27.1131 20.16 27.0091 20.4 26.8011 20.608C26.6091 20.816 26.3691 20.92 26.0811 20.92ZM20.6571 32.368C20.5931 32.384 20.5371 32.392 20.4891 32.392C20.4411 32.408 20.3851 32.416 20.3211 32.416C20.0491 32.416 19.8011 32.312 19.5771 32.104C19.3691 31.912 19.2651 31.656 19.2651 31.336C19.2651 31.112 19.3371 30.904 19.4811 30.712C19.6251 30.52 19.8091 30.384 20.0331 30.304C21.4411 29.856 22.7051 29.192 23.8251 28.312C24.9611 27.416 25.8651 26.392 26.5371 25.24C26.6011 25.128 26.5691 25.072 26.4411 25.072H16.0971C15.8091 25.072 15.5611 24.968 15.3531 24.76C15.1611 24.552 15.0651 24.312 15.0651 24.04C15.0651 23.752 15.1691 23.512 15.3771 23.32C15.5851 23.112 15.8251 23.008 16.0971 23.008H27.9771C28.3291 23.008 28.6171 23.128 28.8411 23.368C29.0811 23.592 29.2011 23.856 29.2011 24.16C29.2011 24.288 29.1771 24.424 29.1291 24.568C28.7451 25.608 28.2251 26.552 27.5691 27.4C26.9291 28.248 26.2171 29 25.4331 29.656C24.6491 30.312 23.8411 30.864 23.0091 31.312C22.1931 31.776 21.4091 32.128 20.6571 32.368ZM43.7931 18.304C43.2491 17.936 42.6491 17.64 41.9931 17.416C41.3371 17.192 40.6571 17.032 39.9531 16.936C39.6971 16.888 39.4811 16.768 39.3051 16.576C39.1451 16.384 39.0651 16.168 39.0651 15.928C39.0651 15.608 39.1851 15.344 39.4251 15.136C39.6651 14.912 39.9371 14.816 40.2411 14.848C41.0251 14.928 41.8091 15.112 42.5931 15.4C43.3931 15.672 44.1211 16.016 44.7771 16.432C45.1131 16.672 45.2811 16.992 45.2811 17.392C45.2811 17.584 45.2331 17.768 45.1371 17.944C44.9771 18.28 44.7051 18.448 44.3211 18.448C44.1451 18.448 43.9691 18.4 43.7931 18.304ZM40.6011 31.24C40.5371 31.256 40.4491 31.264 40.3371 31.264C40.0331 31.264 39.7611 31.152 39.5211 30.928C39.2811 30.704 39.1611 30.424 39.1611 30.088C39.1611 29.864 39.2331 29.656 39.3771 29.464C39.5211 29.256 39.7211 29.12 39.9771 29.056C40.9851 28.784 42.0651 28.376 43.2171 27.832C44.3691 27.288 45.5211 26.632 46.6731 25.864C47.8251 25.08 48.9211 24.192 49.9611 23.2C51.0011 22.208 51.9051 21.112 52.6731 19.912C52.8971 19.576 53.1931 19.408 53.5611 19.408C53.7691 19.408 53.9691 19.48 54.1611 19.624C54.4971 19.88 54.6651 20.208 54.6651 20.608C54.6651 20.832 54.6011 21.048 54.4731 21.256C53.8331 22.264 53.0091 23.28 52.0011 24.304C51.0091 25.328 49.8891 26.304 48.6411 27.232C47.4091 28.144 46.1051 28.952 44.7291 29.656C43.3531 30.36 41.9771 30.888 40.6011 31.24ZM42.4011 23.512C41.8571 23.288 41.2491 23.104 40.5771 22.96C39.9051 22.8 39.2811 22.704 38.7051 22.672C38.4331 22.656 38.1931 22.552 37.9851 22.36C37.7931 22.152 37.6971 21.92 37.6971 21.664C37.6971 21.344 37.8011 21.072 38.0091 20.848C38.2331 20.624 38.4971 20.52 38.8011 20.536C39.5371 20.568 40.3051 20.68 41.1051 20.872C41.9051 21.048 42.6171 21.272 43.2411 21.544C43.4491 21.624 43.6011 21.76 43.6971 21.952C43.8091 22.128 43.8651 22.32 43.8651 22.528C43.8651 22.864 43.7531 23.128 43.5291 23.32C43.3211 23.496 43.0811 23.584 42.8091 23.584C42.6811 23.584 42.5451 23.56 42.4011 23.512ZM77.7771 23.176H62.8011C62.5131 23.176 62.2651 23.072 62.0571 22.864C61.8491 22.656 61.7451 22.408 61.7451 22.12C61.7451 21.816 61.8491 21.568 62.0571 21.376C62.2651 21.168 62.5131 21.064 62.8011 21.064H77.7771C78.0651 21.064 78.3131 21.168 78.5211 21.376C78.7291 21.584 78.8331 21.832 78.8331 22.12C78.8331 22.424 78.7291 22.68 78.5211 22.888C78.3131 23.08 78.0651 23.176 77.7771 23.176ZM103.865 14.464C103.945 14.56 103.985 14.688 103.985 14.848C103.985 15.152 103.865 15.376 103.625 15.52C103.529 15.6 103.401 15.64 103.241 15.64C102.953 15.64 102.737 15.52 102.593 15.28C102.337 14.896 102.041 14.496 101.705 14.08C101.369 13.648 101.057 13.28 100.769 12.976C100.609 12.816 100.529 12.632 100.529 12.424C100.529 12.216 100.601 12.056 100.745 11.944C100.905 11.784 101.097 11.704 101.321 11.704C101.529 11.704 101.705 11.784 101.849 11.944C102.217 12.296 102.569 12.696 102.905 13.144C103.257 13.592 103.577 14.032 103.865 14.464ZM98.8971 13.984C98.7371 13.84 98.6571 13.656 98.6571 13.432C98.6571 13.224 98.7291 13.048 98.8731 12.904C99.0171 12.744 99.2011 12.664 99.4251 12.664C99.6491 12.664 99.8331 12.736 99.9771 12.88C100.345 13.232 100.713 13.648 101.081 14.128C101.449 14.608 101.777 15.064 102.065 15.496C102.145 15.592 102.185 15.728 102.185 15.904C102.185 16.016 102.153 16.136 102.089 16.264C102.041 16.392 101.953 16.496 101.825 16.576C101.697 16.656 101.569 16.696 101.441 16.696C101.185 16.696 100.961 16.576 100.769 16.336C100.513 15.936 100.209 15.52 99.8571 15.088C99.5211 14.656 99.2011 14.288 98.8971 13.984ZM96.6651 23.92C96.6171 23.968 96.5931 24.024 96.5931 24.088C96.5931 24.136 96.6331 24.184 96.7131 24.232C97.5131 24.632 98.3051 25.136 99.0891 25.744C99.8731 26.336 100.601 26.976 101.273 27.664C101.961 28.336 102.545 29 103.025 29.656C103.169 29.848 103.241 30.064 103.241 30.304C103.241 30.688 103.089 31.008 102.785 31.264C102.593 31.408 102.385 31.48 102.161 31.48C101.809 31.48 101.521 31.336 101.297 31.048C100.801 30.312 100.209 29.608 99.5211 28.936C98.8331 28.264 98.1051 27.664 97.3371 27.136C96.5851 26.608 95.8251 26.192 95.0571 25.888C94.9451 25.84 94.8491 25.856 94.7691 25.936C93.7451 26.896 92.5691 27.832 91.2411 28.744C89.9291 29.656 88.4411 30.488 86.7771 31.24C86.6491 31.304 86.5051 31.336 86.3451 31.336C86.0891 31.336 85.8571 31.24 85.6491 31.048C85.4411 30.856 85.3371 30.608 85.3371 30.304C85.3371 30.064 85.4011 29.84 85.5291 29.632C85.6731 29.424 85.8571 29.272 86.0811 29.176C87.6331 28.488 89.0251 27.712 90.2571 26.848C91.5051 25.968 92.5851 25.072 93.4971 24.16C94.4251 23.232 95.1931 22.352 95.8011 21.52C96.4091 20.672 96.8571 19.952 97.1451 19.36C97.4651 18.672 97.6251 18.144 97.6251 17.776C97.6251 17.28 97.3051 17.032 96.6651 17.032C96.5691 17.032 96.4651 17.032 96.3531 17.032C96.2571 17.032 96.1451 17.048 96.0171 17.08C95.4731 17.16 94.7451 17.24 93.8331 17.32C92.9211 17.4 91.9211 17.464 90.8331 17.512C89.7611 17.56 88.7051 17.584 87.6651 17.584C87.3931 17.584 87.1531 17.488 86.9451 17.296C86.7531 17.088 86.6571 16.84 86.6571 16.552C86.6571 16.248 86.7611 15.992 86.9691 15.784C87.1771 15.576 87.4331 15.472 87.7371 15.472H88.8171C90.2251 15.472 91.5531 15.424 92.8011 15.328C94.0491 15.232 95.0171 15.12 95.7051 14.992C95.8811 14.96 96.0491 14.936 96.2091 14.92C96.3691 14.904 96.5291 14.896 96.6891 14.896C97.6491 14.896 98.3931 15.16 98.9211 15.688C99.4651 16.2 99.7371 16.888 99.7371 17.752C99.7371 18.552 99.5131 19.408 99.0651 20.32C98.8091 20.848 98.4811 21.416 98.0811 22.024C97.6811 22.632 97.2091 23.264 96.6651 23.92ZM116.753 20.44C116.561 20.648 116.305 20.752 115.985 20.752C115.665 20.752 115.393 20.648 115.169 20.44C114.097 19.464 112.721 18.84 111.041 18.568C110.769 18.52 110.537 18.392 110.345 18.184C110.169 17.976 110.081 17.736 110.081 17.464C110.081 17.112 110.201 16.824 110.441 16.6C110.697 16.376 110.993 16.28 111.329 16.312C112.385 16.456 113.393 16.776 114.353 17.272C115.329 17.752 116.113 18.248 116.705 18.76C116.961 18.984 117.089 19.264 117.089 19.6C117.089 19.904 116.977 20.184 116.753 20.44ZM111.353 30.496C111.305 30.512 111.241 30.52 111.161 30.52C110.873 30.52 110.625 30.416 110.417 30.208C110.209 30 110.105 29.744 110.105 29.44C110.105 29.168 110.193 28.92 110.369 28.696C110.545 28.472 110.777 28.328 111.065 28.264C112.121 28.008 113.265 27.632 114.497 27.136C115.745 26.624 117.009 25.984 118.289 25.216C119.569 24.432 120.809 23.512 122.009 22.456C123.225 21.384 124.345 20.168 125.369 18.808C125.593 18.504 125.889 18.352 126.257 18.352C126.513 18.352 126.745 18.432 126.953 18.592C127.257 18.848 127.409 19.168 127.409 19.552C127.409 19.792 127.329 20.016 127.169 20.224C126.289 21.392 125.257 22.52 124.073 23.608C122.889 24.696 121.601 25.704 120.209 26.632C118.833 27.544 117.393 28.336 115.889 29.008C114.385 29.68 112.873 30.176 111.353 30.496ZM138.161 33.856C136.785 33.008 135.633 31.976 134.705 30.76C133.793 29.544 133.105 28.224 132.641 26.8C132.193 25.36 131.969 23.904 131.969 22.432C131.969 20.944 132.193 19.488 132.641 18.064C133.105 16.64 133.793 15.32 134.705 14.104C135.633 12.888 136.785 11.856 138.161 11.008C138.241 10.944 138.337 10.912 138.449 10.912C138.593 10.912 138.721 10.96 138.833 11.056C138.945 11.152 139.001 11.264 139.001 11.392C139.001 11.488 138.953 11.584 138.857 11.68C137.289 13.088 136.105 14.736 135.305 16.624C134.521 18.512 134.129 20.448 134.129 22.432C134.129 24.416 134.521 26.352 135.305 28.24C136.105 30.112 137.289 31.76 138.857 33.184C138.953 33.28 139.001 33.376 139.001 33.472C139.001 33.584 138.945 33.688 138.833 33.784C138.737 33.896 138.617 33.952 138.473 33.952C138.345 33.952 138.241 33.92 138.161 33.856ZM164.986 33.856C164.906 33.92 164.802 33.952 164.674 33.952C164.53 33.952 164.402 33.904 164.29 33.808C164.194 33.712 164.146 33.608 164.146 33.496C164.146 33.384 164.194 33.28 164.29 33.184C165.874 31.76 167.058 30.112 167.842 28.24C168.626 26.352 169.018 24.416 169.018 22.432C169.018 20.448 168.626 18.512 167.842 16.624C167.058 14.736 165.874 13.088 164.29 11.68C164.194 11.584 164.146 11.488 164.146 11.392C164.146 11.264 164.194 11.152 164.29 11.056C164.402 10.96 164.53 10.912 164.674 10.912C164.802 10.912 164.906 10.944 164.986 11.008C166.362 11.856 167.506 12.888 168.418 14.104C169.346 15.32 170.034 16.64 170.482 18.064C170.946 19.488 171.178 20.944 171.178 22.432C171.178 23.904 170.946 25.36 170.482 26.8C170.034 28.224 169.346 29.544 168.418 30.76C167.506 31.976 166.362 33.008 164.986 33.856ZM185.671 30.544C185.367 30.576 185.087 30.48 184.831 30.256C184.575 30.032 184.447 29.752 184.447 29.416C184.447 29.16 184.535 28.936 184.711 28.744C184.887 28.552 185.103 28.432 185.359 28.384C187.311 28.08 188.807 27.424 189.847 26.416C190.903 25.408 191.431 24.12 191.431 22.552C191.431 21.624 191.207 20.776 190.759 20.008C190.311 19.24 189.695 18.624 188.911 18.16C188.143 17.68 187.279 17.416 186.319 17.368C186.191 17.368 186.111 17.432 186.079 17.56C185.743 19.08 185.327 20.536 184.831 21.928C184.351 23.304 183.799 24.536 183.175 25.624C182.567 26.696 181.911 27.544 181.207 28.168C180.519 28.792 179.799 29.104 179.047 29.104C178.855 29.104 178.663 29.08 178.471 29.032C177.671 28.84 177.063 28.36 176.647 27.592C176.247 26.824 176.047 25.92 176.047 24.88C176.047 23.936 176.207 22.952 176.527 21.928C176.863 20.904 177.359 19.944 178.015 19.048C178.959 17.768 180.111 16.816 181.471 16.192C182.847 15.568 184.231 15.256 185.623 15.256C186.775 15.256 187.871 15.456 188.911 15.856C189.967 16.256 190.879 16.856 191.647 17.656C192.431 18.44 192.983 19.408 193.303 20.56C193.495 21.2 193.591 21.872 193.591 22.576C193.591 23.44 193.431 24.304 193.111 25.168C192.807 26.032 192.335 26.84 191.695 27.592C191.055 28.328 190.231 28.96 189.223 29.488C188.231 30 187.047 30.352 185.671 30.544ZM178.351 26.488C178.543 26.824 178.783 26.992 179.071 26.992C179.455 26.992 179.871 26.712 180.319 26.152C180.783 25.592 181.239 24.856 181.687 23.944C182.135 23.032 182.551 22.04 182.935 20.968C183.319 19.88 183.623 18.824 183.847 17.8V17.776C183.847 17.664 183.751 17.608 183.559 17.608C183.511 17.608 183.463 17.616 183.415 17.632C183.367 17.632 183.319 17.64 183.271 17.656C182.343 17.928 181.543 18.344 180.871 18.904C180.215 19.448 179.671 20.072 179.239 20.776C178.823 21.48 178.511 22.192 178.303 22.912C178.111 23.616 178.015 24.272 178.015 24.88C178.015 25.552 178.127 26.088 178.351 26.488ZM216.943 17.296C217.231 17.312 217.479 17.432 217.687 17.656C217.895 17.864 217.999 18.112 217.999 18.4C217.999 18.704 217.887 18.952 217.663 19.144C217.455 19.336 217.207 19.424 216.919 19.408C216.135 19.376 215.319 19.344 214.471 19.312C213.639 19.28 212.791 19.256 211.927 19.24C211.783 19.24 211.719 19.312 211.735 19.456C211.815 20.624 211.919 21.88 212.047 23.224C212.175 24.552 212.319 25.952 212.479 27.424C212.527 27.776 212.551 28.112 212.551 28.432C212.551 29.648 212.175 30.488 211.423 30.952C210.671 31.416 209.439 31.616 207.727 31.552C207.423 31.536 207.159 31.416 206.935 31.192C206.727 30.968 206.623 30.704 206.623 30.4C206.623 30.096 206.727 29.84 206.935 29.632C207.159 29.424 207.423 29.336 207.727 29.368C207.967 29.384 208.191 29.4 208.399 29.416C208.607 29.416 208.791 29.416 208.951 29.416C209.575 29.416 209.975 29.36 210.151 29.248C210.343 29.136 210.439 28.928 210.439 28.624C210.439 28.512 210.431 28.4 210.415 28.288C210.415 28.16 210.407 28.024 210.391 27.88C210.295 26.888 210.199 25.872 210.103 24.832C210.023 23.776 209.935 22.736 209.839 21.712C209.839 21.616 209.807 21.56 209.743 21.544C209.695 21.528 209.639 21.56 209.575 21.64C208.887 22.552 208.079 23.448 207.151 24.328C206.239 25.192 205.279 25.984 204.271 26.704C203.263 27.424 202.263 28.016 201.271 28.48C201.207 28.496 201.143 28.52 201.079 28.552C201.015 28.568 200.943 28.576 200.863 28.576C200.607 28.576 200.367 28.48 200.143 28.288C199.935 28.08 199.831 27.816 199.831 27.496C199.831 27.288 199.887 27.096 199.999 26.92C200.111 26.728 200.271 26.584 200.479 26.488C201.455 26.008 202.439 25.416 203.431 24.712C204.439 23.992 205.383 23.192 206.263 22.312C207.143 21.416 207.887 20.48 208.495 19.504C208.527 19.44 208.543 19.4 208.543 19.384C208.543 19.288 208.479 19.24 208.351 19.24C207.135 19.256 205.919 19.296 204.703 19.36C203.503 19.424 202.311 19.512 201.127 19.624C200.823 19.64 200.559 19.552 200.335 19.36C200.111 19.152 199.999 18.896 199.999 18.592C199.999 18.32 200.095 18.08 200.287 17.872C200.495 17.648 200.735 17.528 201.007 17.512C202.287 17.4 203.623 17.32 205.015 17.272C206.423 17.224 207.839 17.192 209.263 17.176C209.391 17.176 209.455 17.104 209.455 16.96L209.191 13.192C209.175 12.872 209.271 12.608 209.479 12.4C209.703 12.192 209.967 12.088 210.271 12.088C210.543 12.088 210.783 12.192 210.991 12.4C211.199 12.592 211.311 12.824 211.327 13.096C211.359 13.592 211.391 14.16 211.423 14.8C211.455 15.44 211.487 16.152 211.519 16.936C211.551 17.08 211.631 17.152 211.759 17.152C213.599 17.184 215.327 17.232 216.943 17.296ZM241.663 29.656C241.807 29.848 241.879 30.064 241.879 30.304C241.879 30.688 241.727 31.008 241.423 31.264C241.231 31.408 241.023 31.48 240.799 31.48C240.447 31.48 240.159 31.336 239.935 31.048C239.439 30.312 238.847 29.608 238.159 28.936C237.471 28.264 236.743 27.664 235.975 27.136C235.223 26.608 234.463 26.192 233.695 25.888C233.583 25.84 233.487 25.856 233.407 25.936C232.383 26.896 231.207 27.832 229.879 28.744C228.567 29.656 227.079 30.488 225.415 31.24C225.287 31.304 225.143 31.336 224.983 31.336C224.727 31.336 224.495 31.24 224.287 31.048C224.079 30.856 223.975 30.608 223.975 30.304C223.975 30.064 224.039 29.84 224.167 29.632C224.311 29.424 224.495 29.272 224.719 29.176C226.271 28.488 227.663 27.712 228.895 26.848C230.143 25.968 231.223 25.072 232.135 24.16C233.063 23.232 233.831 22.352 234.439 21.52C235.047 20.672 235.495 19.952 235.783 19.36C236.103 18.672 236.263 18.144 236.263 17.776C236.263 17.28 235.943 17.032 235.303 17.032C235.207 17.032 235.103 17.032 234.991 17.032C234.895 17.032 234.783 17.048 234.655 17.08C234.111 17.16 233.383 17.24 232.471 17.32C231.559 17.4 230.559 17.464 229.471 17.512C228.399 17.56 227.343 17.584 226.303 17.584C226.031 17.584 225.791 17.488 225.583 17.296C225.391 17.088 225.295 16.84 225.295 16.552C225.295 16.248 225.399 15.992 225.607 15.784C225.815 15.576 226.071 15.472 226.375 15.472H227.455C228.863 15.472 230.191 15.424 231.439 15.328C232.687 15.232 233.655 15.12 234.343 14.992C234.519 14.96 234.687 14.936 234.847 14.92C235.007 14.904 235.167 14.896 235.327 14.896C236.287 14.896 237.031 15.16 237.559 15.688C238.103 16.2 238.375 16.888 238.375 17.752C238.375 18.552 238.151 19.408 237.703 20.32C237.447 20.848 237.119 21.416 236.719 22.024C236.319 22.632 235.847 23.264 235.303 23.92C235.271 23.952 235.255 24 235.255 24.064C235.255 24.128 235.295 24.184 235.375 24.232C236.175 24.632 236.967 25.136 237.751 25.744C238.535 26.336 239.263 26.976 239.935 27.664C240.607 28.336 241.183 29 241.663 29.656ZM265.663 29.656C265.807 29.848 265.879 30.064 265.879 30.304C265.879 30.688 265.727 31.008 265.423 31.264C265.231 31.408 265.023 31.48 264.799 31.48C264.447 31.48 264.159 31.336 263.935 31.048C263.439 30.312 262.847 29.608 262.159 28.936C261.471 28.264 260.743 27.664 259.975 27.136C259.223 26.608 258.463 26.192 257.695 25.888C257.583 25.84 257.487 25.856 257.407 25.936C256.383 26.896 255.207 27.832 253.879 28.744C252.567 29.656 251.079 30.488 249.415 31.24C249.287 31.304 249.143 31.336 248.983 31.336C248.727 31.336 248.495 31.24 248.287 31.048C248.079 30.856 247.975 30.608 247.975 30.304C247.975 30.064 248.039 29.84 248.167 29.632C248.311 29.424 248.495 29.272 248.719 29.176C250.271 28.488 251.663 27.712 252.895 26.848C254.143 25.968 255.223 25.072 256.135 24.16C257.063 23.232 257.831 22.352 258.439 21.52C259.047 20.672 259.495 19.952 259.783 19.36C260.103 18.672 260.263 18.144 260.263 17.776C260.263 17.28 259.943 17.032 259.303 17.032C259.207 17.032 259.103 17.032 258.991 17.032C258.895 17.032 258.783 17.048 258.655 17.08C258.111 17.16 257.383 17.24 256.471 17.32C255.559 17.4 254.559 17.464 253.471 17.512C252.399 17.56 251.343 17.584 250.303 17.584C250.031 17.584 249.791 17.488 249.583 17.296C249.391 17.088 249.295 16.84 249.295 16.552C249.295 16.248 249.399 15.992 249.607 15.784C249.815 15.576 250.071 15.472 250.375 15.472H251.455C252.863 15.472 254.191 15.424 255.439 15.328C256.687 15.232 257.655 15.12 258.343 14.992C258.519 14.96 258.687 14.936 258.847 14.92C259.007 14.904 259.167 14.896 259.327 14.896C260.287 14.896 261.031 15.16 261.559 15.688C262.103 16.2 262.375 16.888 262.375 17.752C262.375 18.552 262.151 19.408 261.703 20.32C261.447 20.848 261.119 21.416 260.719 22.024C260.319 22.632 259.847 23.264 259.303 23.92C259.271 23.952 259.255 24 259.255 24.064C259.255 24.128 259.295 24.184 259.375 24.232C260.175 24.632 260.967 25.136 261.751 25.744C262.535 26.336 263.263 26.976 263.935 27.664C264.607 28.336 265.183 29 265.663 29.656ZM287.479 25C287.735 25.256 287.863 25.552 287.863 25.888C287.863 26.16 287.775 26.424 287.599 26.68C287.423 26.952 287.159 27.088 286.807 27.088C286.695 27.088 286.575 27.072 286.447 27.04C286.319 26.992 286.207 26.92 286.111 26.824C285.055 25.816 283.983 24.944 282.895 24.208C282.767 24.128 282.671 24.144 282.607 24.256C280.479 27.024 277.903 29.264 274.879 30.976C274.719 31.072 274.543 31.12 274.351 31.12C273.919 31.12 273.599 30.928 273.391 30.544C273.311 30.4 273.271 30.224 273.271 30.016C273.271 29.584 273.455 29.256 273.823 29.032C276.543 27.48 278.823 25.528 280.663 23.176C280.695 23.144 280.711 23.096 280.711 23.032C280.711 22.952 280.671 22.904 280.591 22.888C279.935 22.568 279.247 22.28 278.527 22.024C277.807 21.768 277.047 21.536 276.247 21.328C275.991 21.264 275.783 21.136 275.623 20.944C275.479 20.736 275.407 20.504 275.407 20.248C275.407 19.88 275.551 19.584 275.839 19.36C276.143 19.136 276.463 19.064 276.799 19.144C277.695 19.352 278.567 19.624 279.415 19.96C280.279 20.28 281.103 20.648 281.887 21.064C281.951 21.096 281.999 21.112 282.031 21.112C282.095 21.112 282.151 21.072 282.199 20.992C282.823 19.952 283.375 18.864 283.855 17.728C284.351 16.576 284.759 15.368 285.079 14.104C285.143 13.864 285.271 13.672 285.463 13.528C285.671 13.368 285.895 13.288 286.135 13.288C286.455 13.288 286.719 13.4 286.927 13.624C287.151 13.848 287.263 14.104 287.263 14.392C287.263 14.504 287.255 14.592 287.239 14.656C286.935 15.968 286.511 17.248 285.967 18.496C285.439 19.744 284.815 20.944 284.095 22.096C284.063 22.16 284.047 22.208 284.047 22.24C284.047 22.304 284.087 22.36 284.167 22.408C284.791 22.808 285.375 23.232 285.919 23.68C286.479 24.112 286.999 24.552 287.479 25Z" fill="black"/>
<path d="M161.194 30.448C161.466 30.464 161.682 30.584 161.842 30.808C162.018 31.032 162.082 31.28 162.034 31.552C161.97 31.84 161.818 32.064 161.578 32.224C161.354 32.4 161.106 32.472 160.834 32.44C159.714 32.328 158.37 32.12 156.802 31.816C155.25 31.512 153.658 31.088 152.026 30.544C151.962 30.528 151.898 30.536 151.834 30.568C150.202 31.192 148.546 31.656 146.866 31.96C145.186 32.264 143.666 32.464 142.306 32.56C142.034 32.576 141.786 32.488 141.562 32.296C141.338 32.12 141.202 31.888 141.154 31.6C141.122 31.328 141.194 31.088 141.37 30.88C141.546 30.656 141.77 30.536 142.042 30.52C143.274 30.424 144.45 30.288 145.57 30.112C146.69 29.92 147.754 29.688 148.762 29.416C148.842 29.4 148.882 29.376 148.882 29.344C148.882 29.296 148.85 29.256 148.786 29.224C147.906 28.792 147.074 28.328 146.29 27.832C146.226 27.8 146.162 27.792 146.098 27.808C145.042 28.256 143.978 28.608 142.906 28.864C142.858 28.88 142.786 28.888 142.69 28.888C142.45 28.888 142.234 28.816 142.042 28.672C141.85 28.512 141.73 28.312 141.682 28.072C141.666 28.04 141.658 28 141.658 27.952C141.658 27.904 141.658 27.864 141.658 27.832C141.658 27.608 141.73 27.408 141.874 27.232C142.018 27.056 142.202 26.944 142.426 26.896C144.698 26.4 146.722 25.496 148.498 24.184C148.562 24.152 148.586 24.12 148.57 24.088C148.554 24.04 148.514 24.016 148.45 24.016H146.218C145.786 24.016 145.41 23.864 145.09 23.56C144.786 23.256 144.634 22.88 144.634 22.432V16.744C144.634 16.312 144.786 15.944 145.09 15.64C145.41 15.32 145.786 15.16 146.218 15.16H149.194C149.258 15.16 149.314 15.136 149.362 15.088C149.49 14.976 149.61 14.856 149.722 14.728C149.85 14.6 149.962 14.456 150.058 14.296C150.09 14.248 150.09 14.208 150.058 14.176C150.042 14.144 150.01 14.128 149.962 14.128H142.594C142.322 14.128 142.082 14.032 141.874 13.84C141.682 13.648 141.586 13.408 141.586 13.12C141.586 12.848 141.682 12.616 141.874 12.424C142.082 12.216 142.322 12.112 142.594 12.112H160.546C160.818 12.112 161.05 12.216 161.242 12.424C161.45 12.616 161.554 12.848 161.554 13.12C161.554 13.392 161.458 13.632 161.266 13.84C161.074 14.032 160.834 14.128 160.546 14.128H152.626C152.53 14.128 152.474 14.168 152.458 14.248C152.394 14.376 152.33 14.504 152.266 14.632C152.202 14.744 152.13 14.864 152.05 14.992C152.002 15.104 152.034 15.16 152.146 15.16H156.97C157.402 15.16 157.77 15.312 158.074 15.616C158.394 15.92 158.554 16.296 158.554 16.744V22.432C158.554 22.864 158.394 23.24 158.074 23.56C157.77 23.864 157.402 24.016 156.97 24.016H151.834C151.77 24.016 151.714 24.04 151.666 24.088C151.506 24.248 151.338 24.408 151.162 24.568C150.986 24.728 150.802 24.888 150.61 25.048C150.562 25.08 150.546 25.12 150.562 25.168C150.578 25.2 150.618 25.216 150.682 25.216H156.634C156.97 25.216 157.234 25.328 157.426 25.552C157.634 25.776 157.738 26.032 157.738 26.32C157.738 26.448 157.714 26.584 157.666 26.728C157.618 26.856 157.53 26.976 157.402 27.088C157.018 27.472 156.61 27.832 156.178 28.168C155.746 28.488 155.298 28.792 154.834 29.08C154.69 29.16 154.69 29.216 154.834 29.248C155.826 29.52 156.85 29.76 157.906 29.968C158.978 30.16 160.074 30.32 161.194 30.448ZM156.442 17.632C156.538 17.632 156.586 17.584 156.586 17.488V17.128C156.586 17.032 156.538 16.984 156.442 16.984H146.746C146.65 16.984 146.602 17.032 146.602 17.128V17.488C146.602 17.584 146.65 17.632 146.746 17.632H156.442ZM146.602 19.768C146.602 19.864 146.65 19.912 146.746 19.912H156.442C156.538 19.912 156.586 19.864 156.586 19.768V19.408C156.586 19.312 156.538 19.264 156.442 19.264H146.746C146.65 19.264 146.602 19.312 146.602 19.408V19.768ZM156.586 21.688C156.586 21.592 156.538 21.544 156.442 21.544H146.746C146.65 21.544 146.602 21.592 146.602 21.688V22.048C146.602 22.144 146.65 22.192 146.746 22.192H156.442C156.538 22.192 156.586 22.144 156.586 22.048V21.688ZM153.97 27.232C154.034 27.2 154.058 27.168 154.042 27.136C154.026 27.088 153.978 27.064 153.898 27.064H149.362C149.298 27.064 149.258 27.088 149.242 27.136C149.226 27.168 149.25 27.2 149.314 27.232C149.698 27.424 150.09 27.608 150.49 27.784C150.906 27.96 151.33 28.128 151.762 28.288C151.81 28.32 151.874 28.32 151.954 28.288C152.322 28.128 152.674 27.96 153.01 27.784C153.346 27.608 153.666 27.424 153.97 27.232Z" fill="#00550A"/>
</svg>
